<svg version="1.1" id="Layer_1" xmlns="http://www.w3.org/2000/svg" xmlns:xlink="http://www.w3.org/1999/xlink" x="0px" y="0px" viewBox="0 0 500 500" style="width: 181px;" xml:space="preserve" data-imageid="rocket-boy-99" imageName="Rocket Boy" class="illustrations_image">
<style type="text/css">
	.st0_rocket-boy-99{fill:#68E1FD;}
	.st1_rocket-boy-99{fill:#093F68;}
	.st2_rocket-boy-99{fill:#FFFFFF;}
	.st3_rocket-boy-99{fill:#F56132;}
	.st4_rocket-boy-99{fill:#725858;}
	.st5_rocket-boy-99{fill:#FFC9B0;}
	.st6_rocket-boy-99{fill:#FFBC0E;}
	.st7_rocket-boy-99{fill:#DFEAEF;}
</style>
<g id="rocket_rocket-boy-99">
	<path class="st0_rocket-boy-99 targetColor" d="M171.2,303l-55.8,105.1c-0.9,1.8-1.4,3.7-1.4,5.7l0,0c0,6.7,5.5,12.2,12.2,12.2c1.3,0,2.6-0.2,3.8-0.6&#10;&#9;&#9;l43.4-14.6L171.2,303z" style="fill: rgb(104, 225, 253);"/>
	<path class="st1_rocket-boy-99" d="M126.1,427.9c-7.7,0-14-6.3-14-14c0-2.3,0.6-4.6,1.6-6.6l55.8-105.1c0.5-0.9,1.6-1.3,2.5-0.8&#10;&#9;&#9;c0.6,0.3,1,0.9,1,1.6l2.2,107.8c0,0.8-0.5,1.5-1.3,1.8l-43.3,14.6C129.1,427.6,127.6,427.9,126.1,427.9z M169.5,310.2L117,409&#10;&#9;&#9;c-2.7,5-0.7,11.3,4.3,13.9c2.5,1.3,5.4,1.6,8.1,0.7l42.1-14.1L169.5,310.2z"/>
	<path class="st0_rocket-boy-99 targetColor" d="M328.8,303l55.8,105.1c0.9,1.8,1.4,3.7,1.4,5.7l0,0c0,6.7-5.5,12.2-12.2,12.2c-1.3,0-2.6-0.2-3.8-0.6&#10;&#9;&#9;l-43.4-14.6L328.8,303z" style="fill: rgb(104, 225, 253);"/>
	<path class="st1_rocket-boy-99" d="M373.9,427.9c-1.5,0-3.1-0.3-4.5-0.8L326,412.6c-0.8-0.3-1.3-1-1.3-1.8l2.2-107.8c0-1,0.9-1.9,1.9-1.8&#10;&#9;&#9;c0.7,0,1.3,0.4,1.6,1l55.8,105.1c1.1,2,1.6,4.3,1.6,6.6C387.9,421.6,381.6,427.9,373.9,427.9L373.9,427.9z M328.5,409.5l42.1,14.1&#10;&#9;&#9;c5.4,1.8,11.3-1.1,13.1-6.5c0.9-2.7,0.7-5.6-0.7-8.1l-52.5-98.8L328.5,409.5z"/>
	<path class="st0_rocket-boy-99 targetColor" d="M353,231.3c0,51.3-23,181-23,181H170c0,0-23-129.8-23-181c0-45.1,14.9-80.4,33.4-106.7&#10;&#9;&#9;c16.2-22.8,36.8-42.2,60.5-57c5.6-3.4,12.6-3.4,18.1,0c23.7,14.8,44.3,34.2,60.5,57C338.1,150.9,353,186.2,353,231.3z" style="fill: rgb(104, 225, 253);"/>
	<path class="st1_rocket-boy-99" d="M330,414.2H170c-0.9,0-1.7-0.7-1.8-1.5c-0.2-1.3-23.1-130.5-23.1-181.4c0-39.6,11.4-75.9,33.8-107.8&#10;&#9;&#9;c16.4-23,37.1-42.6,61.1-57.5c6.1-3.8,13.9-3.8,20,0c23.9,14.9,44.7,34.5,61,57.5c22.4,31.9,33.8,68.2,33.8,107.8&#10;&#9;&#9;c0,50.9-22.9,180.1-23.1,181.4C331.6,413.5,330.9,414.2,330,414.2z M171.6,410.5h156.8c2.6-14.8,22.8-131.6,22.8-179.2&#10;&#9;&#9;c0-38.8-11.1-74.4-33.1-105.7C302,103,281.6,83.9,258,69.2c-5-3.1-11.2-3.1-16.2,0c-23.5,14.7-43.9,33.9-60,56.5&#10;&#9;&#9;c-22,31.3-33.1,66.8-33.1,105.7C148.9,278.9,169,395.7,171.6,410.5z"/>
	<path class="st1_rocket-boy-99" d="M333.3,394.5H166.7c-1,0-1.9-0.8-1.9-1.9c0-1,0.8-1.9,1.9-1.9h166.7c1,0,1.9,0.8,1.9,1.9&#10;&#9;&#9;C335.2,393.7,334.4,394.5,333.3,394.5z"/>
	<polygon class="st1_rocket-boy-99" points="317,432.8 183.1,432.8 191.9,412.4 308.1,412.4 &#9;"/>
	<path class="st1_rocket-boy-99" d="M317,434.7H183.1c-0.6,0-1.2-0.3-1.6-0.8c-0.3-0.5-0.4-1.2-0.2-1.8l8.9-20.5c0.3-0.7,1-1.1,1.7-1.1h116.2&#10;&#9;&#9;c0.7,0,1.4,0.4,1.7,1.1l8.9,20.5c0.2,0.6,0.2,1.2-0.2,1.8C318.2,434.4,317.6,434.7,317,434.7z M185.9,431h128.2l-7.2-16.7H193.1&#10;&#9;&#9;L185.9,431z"/>
	<path class="st2_rocket-boy-99" d="M334.4,237.2c0,28.8-14.7,55.7-39,71.1c-6,3.9-12.5,6.9-19.3,9.1c-44.3,14.4-91.9-9.9-106.3-54.2&#10;&#9;&#9;c-14.4-44.3,9.9-91.9,54.2-106.3s91.9,9.9,106.3,54.2C333,219.5,334.4,228.3,334.4,237.2L334.4,237.2z"/>
	<path class="st1_rocket-boy-99" d="M250,323.4c-47.3-0.1-85.6-38.5-85.5-85.8c0.1-47.3,38.5-85.6,85.8-85.5c47.3,0.1,85.6,38.5,85.5,85.8&#10;&#9;&#9;c-0.1,37.1-24,69.9-59.2,81.4C268,322,259,323.4,250,323.4z M250,154.7c-45.6,0-82.5,37-82.5,82.5c0,45.6,37,82.5,82.5,82.5&#10;&#9;&#9;c8.6,0,17.2-1.4,25.4-4c6.7-2.1,13-5.1,18.9-8.9c38.4-24.5,49.7-75.5,25.2-113.9C304.4,169.1,278.2,154.7,250,154.7L250,154.7z"/>
	<path class="st0_rocket-boy-99 targetColor" d="M319.6,124.6H180.4c16.2-22.8,36.8-42.2,60.5-57c5.6-3.4,12.6-3.4,18.1,0C282.8,82.4,303.4,101.8,319.6,124.6z&#10;&#9;&#9;" style="fill: rgb(104, 225, 253);"/>
	<path class="st1_rocket-boy-99" d="M319.6,126.4H180.4c-1,0-1.9-0.8-1.9-1.9c0-0.4,0.1-0.8,0.3-1.1c16.4-23,37.1-42.6,61.1-57.5&#10;&#9;&#9;c6.1-3.8,13.9-3.8,20,0c23.9,14.9,44.7,34.5,61,57.5c0.6,0.8,0.4,2-0.5,2.6C320.2,126.3,319.9,126.4,319.6,126.4L319.6,126.4z&#10;&#9;&#9; M184.1,122.7H316c-15.7-21.3-35.4-39.5-57.9-53.5c-5-3.1-11.2-3.1-16.2,0C219.4,83.2,199.8,101.4,184.1,122.7z"/>
	<path class="st0_rocket-boy-99 targetColor" d="M250,332.9L250,332.9c3,0,5.5,2.4,5.7,5.4l4.4,78.7c0.2,3.3-2.4,6.1-5.7,6.3c-0.1,0-0.2,0-0.3,0H246&#10;&#9;&#9;c-3.3,0-6-2.7-6-6c0-0.1,0-0.2,0-0.3l4.4-78.7C244.5,335.3,247,332.9,250,332.9z" style="fill: rgb(104, 225, 253);"/>
	<path class="st1_rocket-boy-99" d="M254.1,425.2h-8.1c-4.4,0-7.9-3.5-7.9-7.9c0-0.1,0-0.2,0-0.3l4.4-78.8c0.2-4.2,3.8-7.4,7.9-7.2&#10;&#9;&#9;c3.9,0.2,7,3.3,7.2,7.2l4.4,78.7c0.2,4.4-3.2,8.1-7.5,8.3C254.4,425.2,254.2,425.2,254.1,425.2L254.1,425.2z M250,334.7&#10;&#9;&#9;c-2,0-3.7,1.6-3.8,3.6l-4.4,78.7c-0.1,2.3,1.7,4.2,4,4.3c0.1,0,0.1,0,0.2,0h8.1c2.3,0,4.2-1.9,4.2-4.2c0-0.1,0-0.1,0-0.2l-4.4-78.7&#10;&#9;&#9;C253.7,336.3,252,334.7,250,334.7z"/>
</g>
<g id="character_rocket-boy-99">
	<path class="st3_rocket-boy-99" d="M250,321.5c-17.7,0-34.9-5.5-49.2-15.9c4.8-11.1,15.9-18.3,28-18.2l37.8,0.1c13,0.1,24.6,8.4,28.8,20.7&#10;&#9;&#9;c-6,3.9-12.5,6.9-19.3,9.1C267.6,320.2,258.8,321.5,250,321.5z"/>
	<path class="st1_rocket-boy-99" d="M250,323.4c-18.1,0-35.7-5.6-50.3-16.2c-0.7-0.5-1-1.4-0.6-2.2c5.1-11.8,16.9-19.5,29.8-19.4l37.8,0.1&#10;&#9;&#9;c3.7,0,7.4,0.7,10.9,2c9.2,3.4,16.4,10.8,19.6,20c0.3,0.8,0,1.7-0.8,2.2c-6.1,3.9-12.8,7.1-19.7,9.3C268,322,259,323.4,250,323.4z&#10;&#9;&#9; M203.1,305c26.9,18.6,62.2,19.6,90,2.5c-3-7.6-9.2-13.6-16.9-16.4c-3.1-1.1-6.4-1.7-9.7-1.7l-37.8-0.1c-2.3,0-4.6,0.3-6.9,0.8&#10;&#9;&#9;C213.7,292.1,206.9,297.6,203.1,305z"/>
	<path class="st4_rocket-boy-99" d="M305.1,237.7c0.5-3.4,0.6-6.8,0.2-10.2c-2.1-21.5-14-37.8-30.6-50.5c-0.8-0.8-1.9-1.2-3-1.2&#10;&#9;&#9;c-0.9,0.3-1.6,0.8-2.2,1.6c-5.9,6.4-13.1,11.5-21.2,14.9c1-5.3,0.3-10.7-2.1-15.5c-2.2,5.2-6,9.5-10.8,12.4&#10;&#9;&#9;c-3.8,2.3-8.2,3.6-12.2,5.5c-10.8,5.3-19,14.6-22.8,26c-3.2,9.7-4.6,24.8,2.2,33.3c2.6,3.3,6.3,5.5,10.2,7.2&#10;&#9;&#9;c12.5,5.5,26.8,5.9,40.4,4.3c6.5-0.8,12.8-2.4,19.3-2.8c7-0.5,13.7-2.8,19.7-6.6c6.3-4.1,11.4-10.4,13-17.7L305.1,237.7z"/>
	<path class="st1_rocket-boy-99" d="M239.6,268.3c-10.6,0-19.7-1.8-27.7-5.3c-4.9-2.2-8.5-4.7-10.9-7.8c-6.9-8.7-6.2-23.9-2.5-35&#10;&#9;&#9;c4-11.8,12.6-21.6,23.8-27.1c1.6-0.8,3.2-1.4,4.8-2c2.5-0.9,5-2.1,7.3-3.4c4.5-2.7,8-6.8,10.1-11.6c0.3-0.7,0.9-1.1,1.6-1.1&#10;&#9;&#9;c0.7,0,1.4,0.4,1.7,1c2.1,4.1,3,8.7,2.7,13.2c6.6-3.3,12.5-7.7,17.5-13.1c0.8-1,1.9-1.8,3.2-2.1c2-0.4,3.7,0.9,4.5,1.5&#10;&#9;&#9;c19.1,14.7,29.4,31.6,31.3,51.8c0.4,3.6,0.3,7.2-0.2,10.7l0,0l-0.1,0.8c-1.6,7.4-6.6,14.3-13.8,18.9c-6.2,3.9-13.2,6.3-20.5,6.9&#10;&#9;&#9;c-3.7,0.3-7.4,0.8-11.1,1.5c-2.6,0.5-5.4,0.9-8.1,1.3C248.7,268,244.2,268.3,239.6,268.3z M246,181.3c-2.4,3.9-5.7,7.2-9.7,9.6&#10;&#9;&#9;c-2.5,1.4-5.1,2.6-7.8,3.6c-1.5,0.6-3.1,1.2-4.6,2c-10.3,5.1-18.2,14-21.9,24.9c-3.3,9.9-4.1,24,1.9,31.5c2.1,2.6,5.2,4.8,9.5,6.7&#10;&#9;&#9;c10.6,4.7,23.5,6,39.4,4.1c2.7-0.3,5.3-0.8,7.9-1.2c3.8-0.7,7.6-1.3,11.5-1.6c6.7-0.5,13.1-2.7,18.7-6.3&#10;&#9;&#9;c6.4-4.1,10.8-10.1,12.2-16.6l0.1-0.7c0.5-3.2,0.6-6.5,0.2-9.7c-1.8-19.1-11.6-35.2-29.9-49.2c-0.8-0.6-1.3-0.9-1.5-0.8&#10;&#9;&#9;s-0.8,0.6-1.1,1c-6.1,6.5-13.6,11.8-21.8,15.3c-0.9,0.4-2,0-2.4-1c-0.2-0.3-0.2-0.7-0.1-1.1C247.2,188.4,247,184.7,246,181.3&#10;&#9;&#9;L246,181.3z M305.1,237.7L305.1,237.7z"/>
	<ellipse class="st5_rocket-boy-99" cx="296.3" cy="261.6" rx="12.6" ry="10.9"/>
	<path class="st1_rocket-boy-99" d="M296.3,274.3c-8,0-14.5-5.7-14.5-12.7s6.5-12.7,14.5-12.7s14.5,5.7,14.5,12.7S304.3,274.3,296.3,274.3z&#10;&#9;&#9; M296.3,252.6c-5.9,0-10.8,4-10.8,9s4.8,9,10.8,9s10.8-4,10.8-9S302.3,252.6,296.3,252.6L296.3,252.6z"/>
	<ellipse class="st5_rocket-boy-99" cx="203.7" cy="261.6" rx="12.6" ry="10.9"/>
	<path class="st1_rocket-boy-99" d="M203.7,274.3c-8,0-14.5-5.7-14.5-12.7s6.5-12.7,14.5-12.7s14.5,5.7,14.5,12.7S211.6,274.3,203.7,274.3z&#10;&#9;&#9; M203.7,252.6c-5.9,0-10.8,4-10.8,9s4.8,9,10.8,9s10.8-4,10.8-9S209.6,252.6,203.7,252.6L203.7,252.6z"/>
	<path class="st5_rocket-boy-99" d="M277.2,229.4c-5.4-0.1-10.8-1.2-15.9-3.1c-7.8-3.1-14.4-7.9-20.7-12.9c-4.1,9.6-15.5,15.2-26,20&#10;&#9;&#9;c-2.2,1-5.2,2-7.2,0.7c-2.2,8-2.2,16.8-2.2,24.9c0,21,20,38.1,44.8,38.1s44.8-17,44.8-38.1v-29.6C289,229.4,283,229.7,277.2,229.4z&#10;&#9;&#9;"/>
	<path class="st1_rocket-boy-99" d="M250,298.9c-25.7,0-46.6-17.9-46.6-39.9c0-7.6,0-16.9,2.3-25.4c0.3-1,1.3-1.6,2.3-1.3c0.2,0.1,0.4,0.1,0.5,0.2&#10;&#9;&#9;c1,0.6,2.8,0.4,5.4-0.8c11.1-5.1,21.4-10.4,25.1-19.1c0.4-0.9,1.5-1.4,2.4-1c0.2,0.1,0.3,0.2,0.4,0.3c5.6,4.5,12.3,9.5,20.2,12.6&#10;&#9;&#9;c4.9,1.8,10,2.9,15.3,3l0,0c3.8,0.2,7.6,0.1,11.4,0.1c2,0,4-0.1,6-0.1c1,0,1.9,0.8,1.9,1.9V259C296.6,281,275.7,298.9,250,298.9z&#10;&#9;&#9; M208.8,236.5c-1.7,7.5-1.7,15.8-1.7,22.5c0,20,19.2,36.2,42.9,36.2s42.9-16.2,42.9-36.2v-27.7l-4.1,0.1c-3.8,0.1-7.8,0.1-11.6-0.1&#10;&#9;&#9;l0,0c-5.6-0.1-11.2-1.2-16.5-3.2c-7.5-3-13.9-7.5-19.3-11.8c-4.8,8.6-15,13.8-25.9,18.8C213.6,235.9,211.1,236.8,208.8,236.5&#10;&#9;&#9;L208.8,236.5z"/>
	<path class="st1_rocket-boy-99" d="M295.7,252.1c-2.1,0-3.7-1.7-3.7-3.7c0-18.7-19-33.9-42.3-33.9s-42.3,15.2-42.3,33.9c0,2.1-1.7,3.7-3.7,3.7&#10;&#9;&#9;s-3.7-1.7-3.7-3.7l0,0c0-22.8,22.3-41.3,49.8-41.3s49.8,18.5,49.8,41.3C299.5,250.5,297.8,252.1,295.7,252.1z"/>
	<ellipse transform="matrix(0.891 -0.454 0.454 0.891 -77.4685 129.1397)" class="st6_rocket-boy-99" cx="230.2" cy="225.9" rx="21.7" ry="15"/>
	<path class="st1_rocket-boy-99" d="M224.3,244.4c-6.7,0-12.5-2.7-15.1-7.7c-4.2-8.3,1.8-19.8,13.4-25.7c5.1-2.7,11-3.9,16.8-3.3&#10;&#9;&#9;c5.6,0.8,9.8,3.4,11.9,7.6l0,0c2.1,4.1,1.8,9.1-0.9,14.1c-2.9,5-7.3,9.1-12.5,11.7C233.7,243.1,229,244.3,224.3,244.4z&#10;&#9;&#9; M236.2,211.2c-4.2,0-8.3,1.1-12,3c-9.8,5-15,14.3-11.8,20.7s13.9,7.7,23.7,2.7c4.6-2.2,8.4-5.7,10.9-10.1&#10;&#9;&#9;c2.1-3.8,2.4-7.6,0.8-10.6l0,0c-1.5-3-4.8-5-9.1-5.6C237.9,211.2,237.1,211.1,236.2,211.2L236.2,211.2z"/>
	<ellipse transform="matrix(0.891 -0.454 0.454 0.891 -74.549 126.6537)" class="st2_rocket-boy-99" cx="226.5" cy="218.6" rx="21.7" ry="15"/>
	<path class="st1_rocket-boy-99" d="M220.5,237.1c-1,0-2.1-0.1-3.1-0.2c-5.6-0.7-9.8-3.4-11.9-7.6c-4.2-8.3,1.8-19.8,13.4-25.7&#10;&#9;&#9;c5.1-2.7,11-3.9,16.8-3.2c5.6,0.7,9.8,3.4,11.9,7.6l0,0c2.1,4.1,1.8,9.1-0.9,14.1c-2.9,5-7.3,9.1-12.5,11.7&#10;&#9;&#9;C229.9,235.8,225.3,237,220.5,237.1z M232.5,203.8c-4.2,0.1-8.3,1.1-11.9,3c-9.8,5-15,14.3-11.8,20.7c1.5,3,4.8,5,9.1,5.6&#10;&#9;&#9;c10.3,0.9,20.2-4.2,25.5-13c2.1-3.8,2.4-7.6,0.8-10.6l0,0c-1.5-3-4.8-5-9.1-5.6C234.3,203.8,233.4,203.8,232.5,203.8L232.5,203.8z"/>
	<ellipse transform="matrix(0.454 -0.891 0.891 0.454 -52.5955 365.9962)" class="st6_rocket-boy-99" cx="272.3" cy="225.9" rx="15" ry="21.7"/>
	<path class="st1_rocket-boy-99" d="M278.3,244.4c-4.7-0.1-9.4-1.2-13.6-3.4c-11.6-5.9-17.6-17.4-13.4-25.7l0,0c4.2-8.3,17.1-10.2,28.7-4.3&#10;&#9;&#9;s17.6,17.4,13.4,25.7C290.8,241.7,285,244.4,278.3,244.4z M254.6,216.9c-3.3,6.5,2,15.8,11.8,20.7s20.4,3.8,23.7-2.7&#10;&#9;&#9;s-2-15.8-11.8-20.7S257.9,210.4,254.6,216.9z"/>
	<ellipse transform="matrix(0.454 -0.891 0.891 0.454 -44.0445 365.3168)" class="st2_rocket-boy-99" cx="276" cy="218.6" rx="15" ry="21.7"/>
	<path class="st1_rocket-boy-99" d="M282,237c-4.7-0.1-9.4-1.2-13.6-3.4c-5.2-2.5-9.6-6.6-12.5-11.6c-2.7-4.9-3-9.9-0.9-14.1l0,0&#10;&#9;&#9;c4.2-8.3,17.1-10.2,28.7-4.3s17.6,17.4,13.4,25.7C294.5,234.3,288.7,237,282,237z M270,203.8c-5.3,0-9.7,2-11.6,5.8l0,0&#10;&#9;&#9;c-1.5,3-1.2,6.8,0.8,10.6c2.5,4.4,6.3,7.9,10.9,10.1c9.8,5,20.4,3.8,23.7-2.7s-2-15.8-11.8-20.7C278.3,204.9,274.2,203.9,270,203.8&#10;&#9;&#9;L270,203.8z M256.7,208.7L256.7,208.7z"/>
	<circle class="st1_rocket-boy-99" cx="229.7" cy="257.2" r="3.9"/>
	<circle class="st1_rocket-boy-99" cx="269.7" cy="257.2" r="3.9"/>
	<path class="st1_rocket-boy-99" d="M249.7,272.2c-1.3,0-2.6-0.1-3.9-0.3c-1-0.2-1.7-1.1-1.5-2.2c0.2-1,1.1-1.7,2.2-1.5c1.7,0.3,3.3,0.3,5,0.2&#10;&#9;&#9;c-0.1-1.5-1.5-5.1-3.2-8.3c-0.5-0.9-0.3-2,0.6-2.6c0.9-0.5,2-0.3,2.6,0.6c0,0.1,0.1,0.1,0.1,0.2c1.8,3.3,4.5,9.4,3.3,12&#10;&#9;&#9;c-0.3,0.8-1,1.4-1.8,1.5C251.9,272.1,250.8,272.2,249.7,272.2z"/>
	<path class="st1_rocket-boy-99" d="M249.7,285.9c-6.8,0-12.2-5.5-12.2-12.2c0-1,0.8-1.9,1.9-1.9s1.9,0.8,1.9,1.9c-0.3,4.7,3.2,8.8,7.9,9.1&#10;&#9;&#9;c4.7,0.3,8.8-3.2,9.1-7.9c0-0.4,0-0.8,0-1.2c0-1,0.8-1.9,1.9-1.9c1,0,1.9,0.8,1.9,1.9C261.9,280.4,256.4,285.9,249.7,285.9z"/>
	<path class="st1_rocket-boy-99" d="M236.3,251.7h-18c-1.6,0.3-3.2-0.8-3.5-2.4s0.8-3.2,2.4-3.5c0.3-0.1,0.7-0.1,1,0h18c1.6-0.3,3.2,0.8,3.5,2.4&#10;&#9;&#9;s-0.8,3.2-2.4,3.5C237,251.7,236.6,251.7,236.3,251.7z"/>
	<path class="st1_rocket-boy-99" d="M281.1,251.7h-18c-1.6-0.3-2.7-1.8-2.4-3.5c0.2-1.2,1.2-2.2,2.4-2.4h18c1.6,0.3,2.7,1.8,2.4,3.5&#10;&#9;&#9;C283.4,250.5,282.4,251.5,281.1,251.7z"/>
	<path class="st5_rocket-boy-99" d="M216.3,314.5c0,0,8.6-20.3,3.7-20.5s-7.4,7.1-7.4,7.1s0.8-9.8-2.4-13.6c-1.9-2.3-16.1-4.1-17.5,3.2&#10;&#9;&#9;c-0.9,4.2,0.4,8.5,3.5,11.5C196.3,302.2,206.9,311.1,216.3,314.5z"/>
	<path class="st1_rocket-boy-99" d="M216.3,316.4c-0.2,0-0.4,0-0.6-0.1c-9.6-3.5-20.1-12.3-20.6-12.7c-3.6-3.4-5.1-8.4-4.1-13.3&#10;&#9;&#9;c0.6-3,2.9-5.2,6.5-6.2c4.9-1.3,12.2-0.2,14.2,2.1c1.8,2,2.5,5.3,2.8,8.3c1.4-1.6,3.5-2.5,5.7-2.4c1.1,0,2,0.6,2.6,1.5&#10;&#9;&#9;c2.4,3.9-2.4,16.4-4.7,21.6C217.7,315.9,217,316.4,216.3,316.4z M202.2,287.3c-1.4,0-2.9,0.2-4.3,0.6c-2.9,0.9-3.2,2.6-3.3,3.1&#10;&#9;&#9;c-0.8,3.5,0.3,7.2,2.9,9.8c0.1,0.1,9.2,7.7,17.8,11.3c2.9-7.3,4.9-14.5,4.3-16.3c-3.2,0.2-5.2,5.7-5.2,5.8c-0.3,1-1.4,1.5-2.4,1.1&#10;&#9;&#9;c-0.8-0.3-1.3-1.1-1.2-1.9c0.3-3.5,0-9.9-2-12.2C208.2,288,205.3,287.3,202.2,287.3z"/>
	<path class="st1_rocket-boy-99" d="M272.1,320.5c-1,0-1.9-0.8-1.9-1.9v-16.2c0-1,0.8-1.9,1.9-1.9c1,0,1.9,0.8,1.9,1.9v16.2&#10;&#9;&#9;C274,319.6,273.2,320.5,272.1,320.5L272.1,320.5z"/>
	<path class="st1_rocket-boy-99" d="M250,323.4c-1,0-1.9-0.8-1.9-1.9V297c0-1,0.8-1.9,1.9-1.9s1.9,0.8,1.9,1.9v24.5&#10;&#9;&#9;C251.9,322.5,251.1,323.4,250,323.4C250,323.4,250,323.4,250,323.4z"/>
	<path class="st5_rocket-boy-99" d="M212.6,301c0,0-5.4,1.4-6.5,2.6"/>
	<path class="st1_rocket-boy-99" d="M206.1,305.5c-1,0-1.9-0.9-1.9-1.9c0-0.5,0.2-0.9,0.5-1.2c1.3-1.4,5.2-2.6,7.4-3.1c1-0.3,2,0.2,2.3,1.2&#10;&#9;&#9;c0.3,1-0.2,2-1.2,2.3c-0.1,0-0.1,0-0.2,0.1c-1.9,0.4-3.8,1.1-5.6,2C207.2,305.2,206.7,305.5,206.1,305.5z"/>
	<path class="st7_rocket-boy-99" d="M218.3,223.1c-1,0-1.9-0.8-1.9-1.8c0-0.7,0.3-1.3,0.9-1.6l13.9-8.6c0.9-0.6,2-0.3,2.6,0.6&#10;&#9;&#9;c0.6,0.9,0.3,2-0.6,2.6l0,0l-13.9,8.6C219,223,218.6,223.1,218.3,223.1z"/>
	<path class="st7_rocket-boy-99" d="M274.1,227.6c-1,0-1.9-0.8-1.9-1.9c0-0.7,0.4-1.3,0.9-1.6l15.1-8.8c0.9-0.5,2-0.2,2.5,0.7&#10;&#9;&#9;c0.5,0.9,0.2,2-0.7,2.5l-15.1,8.8C274.8,227.5,274.4,227.6,274.1,227.6z"/>
	<path class="st7_rocket-boy-99" d="M265.1,221.4c-1,0-1.9-0.8-1.9-1.8c0-0.7,0.4-1.3,1-1.7l6.6-3.5c0.9-0.5,2-0.1,2.5,0.8c0.5,0.9,0.1,2-0.8,2.5&#10;&#9;&#9;l0,0l-6.6,3.5C265.7,221.3,265.4,221.4,265.1,221.4z"/>
</g>
</svg>