<svg width="164" height="194" viewBox="0 0 164 194" fill="none" xmlns="http://www.w3.org/2000/svg">
<g clip-path="url(#clip0_66_130)">
<path d="M33.3189 48.136C33.2604 48.136 33.202 48.136 33.1435 48.0775L21.6307 42.7586C21.397 42.6417 21.3385 42.4079 21.4554 42.2325C21.5723 42.0572 21.8061 41.9403 21.9814 42.0572L33.4942 47.3761C33.6695 47.493 33.7864 47.7268 33.6695 47.9022C33.6111 48.0775 33.4942 48.136 33.3189 48.136Z" fill="#D1D3D4"/>
<path d="M40.9162 35.2186C40.7993 35.2186 40.6824 35.1602 40.624 35.1017L31.215 24.6976C31.0397 24.5807 30.9813 24.2885 31.0982 24.1131C31.215 23.9378 31.5072 23.8793 31.6826 23.9962C31.741 24.0547 31.741 24.0547 31.7995 24.1131L41.2084 34.5172C41.3837 34.6926 41.3837 34.9264 41.2084 35.1017C41.1499 35.1602 41.0331 35.2186 40.9162 35.2186Z" fill="#D1D3D4"/>
<path d="M52.8965 24.873C52.7212 24.873 52.5459 24.7561 52.4874 24.5223L50.6758 15.7548C50.6173 15.521 50.7927 15.3457 50.968 15.2872C51.2017 15.2288 51.3771 15.4041 51.4355 15.5795L53.2472 24.3469C53.3056 24.5807 53.1303 24.7561 52.8965 24.8145V24.873Z" fill="#D1D3D4"/>
<path d="M67.273 193.734C93.5132 193.734 114.785 191.693 114.785 189.175C114.785 186.657 93.5132 184.616 67.273 184.616C41.0327 184.616 19.7607 186.657 19.7607 189.175C19.7607 191.693 41.0327 193.734 67.273 193.734Z" fill="#D1D3D4"/>
<path d="M135.999 104.014C135.999 103.897 135.941 103.839 135.882 103.722C135.181 102.027 126.824 91.2135 126.532 90.8043C126.415 90.5705 110.402 98.5781 110.402 98.5781L106.311 82.7967L91.6427 95.5387L86.7922 81.7446L73.7599 92.0902L61.7796 72.9187L42.9033 86.1868L33.5528 68.9441L14.618 80.7509H14.5596C14.5596 80.7509 21.9815 153.989 53.8901 160.769C66.747 163.516 107.48 168.25 122.499 155.45C137.694 142.591 134.538 106.177 135.123 105.475C135.765 104.832 136.058 104.365 135.999 104.014Z" fill="#231F20"/>
<path d="M86.7338 164.334C72.6496 164.334 59.1498 162.347 53.8317 161.178C44.6565 159.191 31.6243 150.189 21.9231 118.334C18.2998 106.06 15.67 93.493 14.209 80.8094C14.209 80.6341 14.2674 80.4587 14.4427 80.4003L33.3191 68.5934C33.4944 68.4765 33.7866 68.535 33.9035 68.7103C33.9035 68.7103 33.9035 68.7103 33.9035 68.7688L43.0202 85.6023L61.4874 72.6264C61.6628 72.5095 61.955 72.568 62.0718 72.7433L73.76 91.5057L86.4416 81.4524C86.5585 81.3939 86.6754 81.3355 86.7922 81.3939C86.9091 81.4524 87.026 81.5108 87.0844 81.6277L91.7597 94.8958L106.019 82.5629C106.136 82.446 106.253 82.446 106.428 82.5045C106.545 82.5629 106.662 82.6798 106.72 82.7967L110.694 98.1106C126.59 90.1614 126.649 90.2783 126.941 90.7459C126.999 90.8628 127.701 91.7395 128.46 92.7332C131.967 97.3507 135.707 102.319 136.291 103.605C136.408 103.722 136.467 103.897 136.467 104.014C136.467 104.072 136.467 104.072 136.467 104.131C136.467 104.482 136.233 104.949 135.59 105.709C135.532 106.001 135.532 107.112 135.59 108.398C135.649 117.399 135.765 144.87 122.909 155.8C115.019 162.405 100.643 164.334 86.7338 164.334ZM15.0856 80.9848C15.6116 85.7777 23.7348 153.93 54.007 160.418C64.5264 162.639 106.837 168.309 122.266 155.158C134.83 144.461 134.714 117.282 134.655 108.398C134.655 105.709 134.655 105.475 134.83 105.241L134.889 105.183C135.473 104.482 135.59 104.189 135.59 104.131C135.59 104.131 135.59 104.072 135.532 104.072L135.473 104.014C134.947 102.845 130.097 96.3571 127.759 93.2592L126.357 91.3888C124.779 91.9733 116.246 96.1817 110.578 99.0458C110.461 99.1042 110.344 99.1042 110.227 99.0458C110.11 98.9873 110.052 98.8704 109.993 98.7535L106.078 83.615L91.935 95.8895C91.8181 96.0064 91.7012 96.0064 91.5844 95.9479C91.4675 95.8895 91.3506 95.831 91.2922 95.7141L86.6169 82.446L73.9937 92.4409C73.8769 92.4994 73.76 92.5578 73.6431 92.4994C73.5262 92.4994 73.4093 92.3825 73.3509 92.324L61.6043 73.5032L43.0786 86.479C42.9618 86.5375 42.8449 86.5959 42.728 86.5375C42.6111 86.5375 42.4942 86.4206 42.4942 86.3037L33.4359 69.5286L15.0856 80.9848Z" fill="#231F20"/>
<path d="M81.0103 143.159C103.129 138.876 117.921 119.191 114.049 99.1926C110.178 79.1941 89.1086 66.4544 66.9901 70.7377C44.8715 75.0211 30.0795 94.7054 33.9511 114.704C37.8226 134.703 58.8918 147.442 81.0103 143.159Z" fill="white"/>
<path d="M72.4158 144.403C64.7016 144.461 57.1043 142.357 50.4421 138.382C41.4423 132.947 35.4813 124.53 33.5528 114.769C31.6242 105.008 34.0787 94.9543 40.3903 86.5375C46.7019 78.1207 56.1109 72.3927 66.8639 70.2885C89.1882 65.9632 110.461 78.8806 114.376 99.1042C118.292 119.328 103.331 139.259 81.0066 143.585C78.2598 144.111 75.3378 144.403 72.4158 144.403ZM75.5716 70.2885C72.708 70.2885 69.9028 70.5807 67.0977 71.1068C56.5199 73.1525 47.2863 78.8221 41.0916 87.0636C34.8969 95.305 32.5593 105.066 34.4294 114.652C36.2995 124.238 42.1435 132.421 50.9096 137.74C59.6757 143.058 70.3704 144.87 81.0066 142.825C102.863 138.616 117.532 119.094 113.733 99.338C110.344 82.0369 94.0972 70.2885 75.5716 70.2885Z" fill="#231F20"/>
<path d="M57.2211 83.0306C57.2211 83.0306 15.6699 54.2733 13.566 56.6697C11.4621 59.0661 -1.21947 91.5058 36.7669 104.54" fill="white"/>
<path d="M36.767 104.891C36.7085 104.891 36.7085 104.891 36.6501 104.891C22.2737 99.9809 13.5076 91.798 10.5271 80.5756C7.37132 68.7687 12.0466 57.7217 13.2738 56.3774C13.7998 55.7929 14.7933 54.6239 36.4163 68.5934C46.9356 75.432 57.338 82.6213 57.4549 82.6798C57.6302 82.7967 57.7471 83.0305 57.6302 83.2643C57.5134 83.4396 57.2796 83.5565 57.0458 83.4396C57.0458 83.4396 56.9874 83.4396 56.9874 83.3812C37.4682 69.8793 15.6699 56.0267 13.8582 56.9619C12.7479 58.2478 8.24793 68.9441 11.3453 80.4003C14.2089 91.3304 22.8581 99.2795 36.9423 104.131C37.176 104.189 37.2929 104.423 37.176 104.657C37.0592 104.832 36.8838 104.891 36.767 104.891Z" fill="#231F20"/>
<path d="M85.6233 72.8017C85.6233 72.8017 112.155 36.3291 113.792 38.4332C115.428 40.5374 140.908 82.0368 108.006 90.9212" fill="white"/>
<path d="M108.006 91.3888C107.831 91.3888 107.655 91.2719 107.597 91.0966C107.538 90.8628 107.655 90.629 107.889 90.5705C115.895 88.4079 121.038 84.0826 123.142 77.77C128.051 63.216 115.662 41.7065 113.499 38.784C111.22 39.3101 95.4413 60.0013 85.9155 73.094C85.7986 73.2694 85.5064 73.3278 85.331 73.2109C85.1557 73.094 85.0973 72.8018 85.2726 72.6264C89.4803 66.8399 110.577 38.0242 113.616 38.0242C113.85 38.0242 114.025 38.0826 114.142 38.258C114.902 39.2516 118.642 45.3888 121.506 52.812C124.194 59.7675 126.765 69.8209 124.019 78.0623C121.798 84.6671 116.48 89.1677 108.181 91.3888C108.064 91.3888 108.064 91.3888 108.006 91.3888Z" fill="#231F20"/>
<path d="M66.4547 91.2719C79.3005 91.2719 89.714 80.8567 89.714 68.0089C89.714 55.161 79.3005 44.7458 66.4547 44.7458C53.6089 44.7458 43.1953 55.161 43.1953 68.0089C43.1953 80.8567 53.6089 91.2719 66.4547 91.2719Z" fill="white"/>
<path d="M66.4548 91.6811C53.3641 91.6811 42.7864 81.1017 42.7864 68.009C42.7864 54.9162 53.3641 44.3368 66.4548 44.3368C77.7923 44.3368 87.4935 52.4029 89.6558 63.5083C92.1103 76.3673 83.7533 88.7586 70.8963 91.272C69.4937 91.5058 67.9743 91.6811 66.4548 91.6811ZM66.5133 45.1551C65.0523 45.1551 63.5912 45.272 62.1302 45.5642C49.7408 47.9607 41.676 59.9429 44.0721 72.3342C46.4681 84.7256 58.4485 92.7917 70.8379 90.3952C83.2273 87.9988 91.2921 76.0166 88.896 63.6252C86.8506 52.9289 77.4417 45.1551 66.5133 45.1551Z" fill="#231F20"/>
<path d="M61.2535 71.1068C61.1367 71.6328 65.9872 78.3545 69.2015 77.7116C71.9482 77.1855 73.5261 68.8857 73.2923 68.3596L61.2535 71.1068Z" fill="white"/>
<path d="M68.7339 78.1791C66.9807 78.1791 64.9937 76.5426 63.6496 75.1398C62.5977 74.0877 60.6691 71.6912 60.8444 71.0483C60.9029 70.8729 61.0198 70.756 61.1366 70.756L73.117 68.0673C73.2923 68.0089 73.4676 68.1258 73.5845 68.3011C73.8767 68.8856 73.0585 72.9771 71.8313 75.4904C71.0715 77.127 70.1949 78.0622 69.2014 78.2376C69.0846 78.1791 68.9092 78.1791 68.7339 78.1791ZM61.7795 71.399C62.5976 72.8602 66.5716 77.8284 69.0846 77.3024C71.1884 76.8932 72.7079 70.6391 72.8248 68.8856L61.7795 71.399Z" fill="#231F20"/>
<path d="M73.2923 68.3596C73.2923 68.3596 65.4029 64.385 61.312 71.0483C61.312 71.0483 64.7016 74.263 68.2664 73.5616C70.9547 73.094 73.2923 68.3596 73.2923 68.3596Z" fill="white"/>
<path d="M67.2146 74.1461C63.9419 74.1461 61.1367 71.5158 61.0199 71.3989C60.903 71.282 60.8445 71.0483 60.9614 70.8729C65.2276 63.9174 73.4093 67.9504 73.4677 68.0089C73.643 68.1258 73.7599 68.3596 73.643 68.5349C73.5261 68.7103 71.247 73.4447 68.3249 74.0292C67.9743 74.0876 67.5652 74.1461 67.2146 74.1461ZM61.7796 70.9898C62.5977 71.6912 65.3445 73.7369 68.1496 73.2109C70.195 72.8017 72.1236 69.6455 72.708 68.5349C71.1301 67.892 65.2276 65.7878 61.7796 70.9898Z" fill="#231F20"/>
<path d="M58.5273 68.3898C59.161 68.2671 59.5107 67.3198 59.3082 66.2739C59.1057 65.228 58.4278 64.4796 57.794 64.6024C57.1603 64.7251 56.8106 65.6724 57.0131 66.7183C57.2156 67.7642 57.8935 68.5126 58.5273 68.3898Z" fill="#231F20"/>
<path d="M72.7304 65.6463C73.3641 65.5236 73.7138 64.5762 73.5113 63.5303C73.3088 62.4845 72.6309 61.7361 71.9971 61.8588C71.3634 61.9816 71.0137 62.9289 71.2162 63.9748C71.4187 65.0207 72.0966 65.769 72.7304 65.6463Z" fill="#231F20"/>
<path d="M71.247 47.3761C66.5717 43.9276 61.0783 41.8234 55.2927 41.2389C55.0589 42.1741 55.8771 42.9339 56.6368 43.5184L61.0199 47.0839C56.52 44.8628 51.2019 45.2135 47.0526 47.9606C46.7019 48.1944 46.3513 48.5451 46.5266 48.8958C46.5851 49.0712 46.7019 49.1881 46.8773 49.305C49.7993 51.526 53.3642 52.9288 57.0459 53.2211" fill="white"/>
<path d="M56.9873 53.6302C53.1887 53.338 49.5654 51.9352 46.5849 49.6556C46.3511 49.5387 46.2343 49.3049 46.1174 49.0711C45.9421 48.6035 46.1758 48.0775 46.8187 47.6684C50.3251 45.3888 54.7082 44.6874 58.7406 45.798L56.3445 43.8691C55.877 43.46 54.5913 42.4663 54.8835 41.1804C54.9419 41.0051 55.1172 40.8297 55.351 40.8882C61.1951 41.4727 66.7469 43.6353 71.4806 47.0839C71.6559 47.2008 71.7144 47.493 71.5391 47.6684C71.3637 47.8437 71.13 47.9021 70.9546 47.7268C66.4547 44.3952 61.1951 42.3494 55.6432 41.7065C55.877 42.3494 56.2861 42.8755 56.8705 43.2262L61.2535 46.7916C61.4288 46.9085 61.4288 47.1423 61.3119 47.3177C61.1951 47.493 60.9613 47.5514 60.786 47.4345C56.4029 45.3304 51.2602 45.6226 47.2278 48.3113C46.9356 48.4866 46.8187 48.7204 46.8187 48.7789C46.8771 48.8373 46.9356 48.8958 47.0524 48.9542C49.916 51.1753 53.364 52.4612 56.9873 52.7535C57.2211 52.8119 57.338 52.9873 57.338 53.2211C57.338 53.4549 57.2211 53.6302 56.9873 53.6302Z" fill="#231F20"/>
<path d="M132.96 140.603C129.98 152.352 125.246 162.055 119.168 169.711C117.473 171.874 115.603 173.978 113.616 175.907C109.934 179.473 105.844 182.454 101.402 184.908C97.4866 187.071 93.3373 188.708 89.0711 189.935C77.4414 193.208 64.643 193.033 51.7276 189.76C34.1954 185.318 19.7021 175.849 10.7607 162.288C8.01401 158.138 5.8517 153.638 4.2738 148.903C2.98811 145.046 2.1115 141.071 1.58554 137.096C1.23489 134.057 1.05957 131.018 1.05957 127.978C1.17645 121.14 2.1115 114.36 3.80628 107.755C6.26078 98.3443 9.8841 89.343 14.6762 80.8678L22.0982 111.203L25.8384 108.164L30.5721 104.306L37.4681 98.695L38.8122 103.137L40.7992 109.508L44.6563 122.016L56.6366 112.548L62.0131 108.339L65.2858 113.95L69.026 120.497L74.2272 129.498L91.2334 112.664L96.61 119.795L107.012 133.648L108.59 129.79L116.538 110.385L119.519 114.769L123.317 120.438L128.285 127.861L134.129 109.859L135.999 104.131C136.116 106.06 136.233 107.989 136.291 109.917C136.642 120.205 135.473 130.55 132.96 140.603Z" fill="#65E3FF"/>
<path d="M14.6179 80.751L22.0399 111.086L25.7801 108.047L30.5137 104.189L37.4097 98.5782L38.7539 103.02L40.7409 109.391L44.5979 121.958L56.5783 112.489L61.9548 108.281L65.2275 113.892L68.9677 120.438L74.1689 129.44L91.1751 112.606L96.6101 119.795L107.013 133.648L108.59 129.79L116.538 110.385L119.519 114.769L123.317 120.438L128.285 127.861L134.129 109.859L135.999 104.131C136.116 106.06 136.233 107.989 136.291 109.917C136.583 120.263 135.473 130.609 132.96 140.662C129.98 152.41 125.246 162.113 119.168 169.77C117.473 171.933 115.603 174.037 113.558 175.966C109.876 179.531 105.785 182.512 101.344 184.967C97.4283 187.13 93.279 188.766 89.0128 189.994C83.2272 191.572 77.2662 192.39 71.3053 192.332C64.6431 192.332 58.0393 191.455 51.6693 189.76C34.1371 185.318 19.6438 175.849 10.7024 162.288C7.95568 158.138 5.79338 153.638 4.21548 148.903C2.92979 145.046 2.05318 141.071 1.52721 137.097C1.17657 134.057 1.00125 131.018 1.00125 127.978C1.11813 121.14 2.05318 114.36 3.74795 107.755C6.2609 98.2859 9.88422 89.2262 14.6179 80.751ZM14.6179 79.9327C14.3257 79.9327 14.0335 80.108 13.9166 80.3418C9.12449 88.8755 5.44273 97.9937 2.98823 107.463C1.23501 114.126 0.299958 121.023 0.183077 127.92C0.124636 131.018 0.299959 134.116 0.709043 137.155C1.23501 141.247 2.11162 145.28 3.39731 149.137C4.97521 153.93 7.19595 158.489 10.0011 162.698C18.9425 176.258 33.2605 185.844 51.4355 190.461C57.9224 192.156 64.5846 193.033 71.3053 193.033C77.3831 193.033 83.4025 192.273 89.2466 190.637C93.5712 189.468 97.7205 187.773 101.694 185.61C101.753 185.61 101.811 185.551 101.87 185.493C106.37 183.038 110.519 179.94 114.201 176.375C116.246 174.446 118.116 172.342 119.811 170.121C126.123 162.113 130.798 152.235 133.778 140.72C136.291 130.609 137.46 120.146 137.109 109.742C137.051 107.93 136.993 106.001 136.817 103.897C136.817 103.488 136.467 103.196 136.116 103.137H135.999C135.648 103.137 135.298 103.371 135.239 103.722L133.428 109.45L128.11 125.874L124.077 119.854L120.279 114.184L117.298 109.801C117.123 109.567 116.889 109.45 116.597 109.45H116.48C116.188 109.45 115.895 109.684 115.837 109.976L107.889 129.381L106.837 131.895L97.2529 119.211L91.8179 111.963C91.7011 111.788 91.4673 111.671 91.2335 111.671H91.1751C90.9413 111.671 90.766 111.729 90.5907 111.905L74.3442 127.978L69.669 119.854L65.9288 113.366L62.6561 107.755C62.5392 107.521 62.3639 107.404 62.1301 107.346C62.0717 107.346 62.0132 107.346 61.9548 107.346C61.7795 107.346 61.6042 107.404 61.4288 107.521L56.0523 111.729L45.007 120.497L41.5006 109.041L39.5136 102.67L38.111 98.2275C38.0526 97.9937 37.8188 97.7599 37.5851 97.7014C37.5266 97.7014 37.4097 97.643 37.3513 97.643C37.176 97.643 37.0007 97.7014 36.8253 97.8183L29.9293 103.429L25.1957 107.287L22.449 109.508L15.3776 80.4003C15.3192 80.0496 15.027 79.8158 14.6763 79.7573L14.6179 79.9327Z" fill="#231F20"/>
<path d="M40.7408 109.391C39.1045 110.56 37.1759 111.32 35.189 111.612C31.6241 112.138 27.9423 110.969 25.78 108.105L30.5137 104.248C30.8644 104.774 31.3319 105.183 31.9163 105.417C34.4877 106.527 36.9422 105.008 38.7538 103.02L40.7408 109.391Z" fill="white"/>
<path d="M68.9677 120.38C63.5911 120.789 58.3315 118.159 56.6367 112.489L62.0133 108.281C62.0717 109.216 62.3055 110.151 62.5977 110.969C63.0067 112.314 64.0002 113.366 65.2859 113.892L68.9677 120.38Z" fill="white"/>
<path d="M119.519 114.71L123.317 120.38C123.025 120.964 122.733 121.549 122.441 122.075C119.051 128.563 113.616 136.98 105.201 136.454C97.0191 135.928 96.4932 126.4 96.5516 119.737L106.954 133.59L108.532 129.732C110.986 128.329 113.441 125.29 114.318 123.887C116.363 120.964 117.766 117.75 119.519 114.71Z" fill="white"/>
<path d="M136.291 109.859C135.59 109.742 134.889 109.742 134.188 109.8L136.058 104.072C136.174 106.001 136.291 107.93 136.291 109.859Z" fill="white"/>
<path d="M1.00119 127.92C0.942751 130.959 1.11807 134.057 1.52716 137.097C9.00756 144.227 17.3061 150.423 26.2475 155.567C39.5136 163.165 54.0068 167.9 68.9676 170.881C83.6362 173.803 98.6554 175.849 113.616 175.966C115.603 174.037 117.473 171.991 119.168 169.77C114.551 169.887 109.934 169.828 105.318 169.595C90.2984 168.776 75.3961 166.497 60.7859 162.814C47.4615 159.541 34.8383 154.047 23.2671 146.624C15.2023 141.246 7.72186 134.992 1.00119 127.92Z" fill="white"/>
<path d="M4.21558 148.903C5.79347 153.638 7.95577 158.139 10.7025 162.288C14.9102 165.445 19.3517 168.367 23.9101 170.997C37.1761 178.596 51.6693 183.33 66.6301 186.311C74.0521 187.773 81.5325 189.058 89.0713 189.935C93.396 188.766 97.4868 187.071 101.402 184.909C86.909 184.032 72.5326 181.752 58.5069 178.187C45.1824 174.914 32.5008 169.419 20.988 161.996C15.0271 158.139 9.41679 153.755 4.21558 148.903Z" fill="white"/>
<path d="M76.8573 144.344C80.6981 144.344 83.8117 141.23 83.8117 137.389C83.8117 133.547 80.6981 130.433 76.8573 130.433C73.0164 130.433 69.9028 133.547 69.9028 137.389C69.9028 141.23 73.0164 144.344 76.8573 144.344Z" fill="white"/>
<path d="M95.266 163.457C99.1068 163.457 102.22 160.343 102.22 156.502C102.22 152.66 99.1068 149.546 95.266 149.546C91.4251 149.546 88.3115 152.66 88.3115 156.502C88.3115 160.343 91.4251 163.457 95.266 163.457Z" fill="white"/>
<path d="M50.5589 155.917C54.3997 155.917 57.5134 152.803 57.5134 148.962C57.5134 145.12 54.3997 142.006 50.5589 142.006C46.7181 142.006 43.6045 145.12 43.6045 148.962C43.6045 152.803 46.7181 155.917 50.5589 155.917Z" fill="white"/>
<path d="M37.3514 134.291C41.1922 134.291 44.3058 131.177 44.3058 127.335C44.3058 123.494 41.1922 120.38 37.3514 120.38C33.5106 120.38 30.397 123.494 30.397 127.335C30.397 131.177 33.5106 134.291 37.3514 134.291Z" fill="white"/>
<path d="M21.4074 121.97C21.6796 118.138 18.7945 114.811 14.9633 114.539C11.1321 114.266 7.80555 117.152 7.53328 120.984C7.261 124.816 10.1461 128.143 13.9773 128.415C17.8086 128.687 21.1351 125.802 21.4074 121.97Z" fill="white"/>
<path d="M149.674 99.5134C149.616 99.6303 149.499 99.8056 149.44 99.9225L149.265 99.2211L144.94 83.4397L128.168 92.967L126.999 71.399L122.09 72.6849L116.129 74.2631L102.805 77.77L102.863 76.4841L103.272 69.8209L104.266 52.5197L91.1751 54.0979L83.461 55.0331L80.3052 55.4422L84.5713 45.5058L86.9674 39.8946L89.7141 33.5235L66.4547 31.7701L64.9353 31.6532C64.5846 30.7764 66.3379 11.5464 66.3379 11.5464C96.8439 -2.53996 132.259 -3.59206 150.668 16.2224C168.843 35.7446 165.453 70.3469 149.674 99.5134Z" fill="#65E3FF"/>
<path d="M110.636 1.02545C126.532 1.02545 140.967 5.64298 150.668 16.1055C168.843 35.6862 165.453 70.3469 149.674 99.5133C149.616 99.6302 149.499 99.8056 149.44 99.9225L149.265 99.2211L144.941 83.4396L128.168 92.967L126.999 71.399L122.09 72.6849L116.129 74.263L102.805 77.77L102.863 76.4841L103.272 69.8208L104.266 52.5197L91.1751 54.0979L83.461 55.0331L80.3052 55.4422L84.5713 45.5057L86.9674 39.8946L89.7141 33.5235L66.4548 31.77L64.9353 31.6531C64.5847 30.7764 66.3379 11.5464 66.3379 11.5464C80.7727 4.76624 96.3179 1.02545 110.636 1.02545ZM110.636 0.207153C96.4932 0.207153 80.6558 3.94794 65.9872 10.6697C65.695 10.7866 65.5197 11.0204 65.5197 11.3711C64.7015 20.2554 63.8249 31.0102 64.1756 31.8869C64.2925 32.1792 64.5847 32.3545 64.8769 32.413L66.3963 32.5299L88.5453 34.2249L86.2661 39.5439L83.8701 45.155L79.6039 55.0915C79.4286 55.5007 79.6039 55.9683 80.013 56.1436C80.1299 56.2021 80.2467 56.202 80.3636 56.202H80.4805L83.6363 55.7929L91.3505 54.8577L103.448 53.3965L102.513 69.7624L102.104 76.4257L102.045 77.77C102.045 78.0038 102.162 78.2961 102.337 78.4714C102.513 78.5883 102.688 78.6468 102.863 78.6468C102.922 78.6468 102.98 78.6468 103.097 78.6468L116.421 75.1398L122.382 73.5616L126.356 72.5095L127.467 93.0839C127.467 93.3761 127.642 93.6099 127.876 93.7853C127.993 93.8437 128.11 93.9022 128.285 93.9022C128.402 93.9022 128.577 93.8437 128.694 93.7853L144.59 84.784L148.622 99.5718L148.798 100.273C148.914 100.624 149.148 100.858 149.499 100.858H149.557C149.85 100.858 150.142 100.682 150.317 100.39C150.375 100.332 150.375 100.273 150.434 100.215L150.551 99.9809C158.616 85.1347 163.349 68.8857 163.875 54.3901C164.46 38.4918 160.135 25.1068 151.369 15.6963C142.018 5.64298 127.993 0.3825 110.753 0.3825L110.636 0.207153Z" fill="#231F20"/>
<path d="M66.4547 31.7115L64.9353 31.5946C64.5846 30.7179 66.3379 11.4879 66.3379 11.4879C68.0911 15.6378 68.7339 20.1385 68.2664 24.6391C67.9742 27.0356 67.3898 29.432 66.4547 31.7115Z" fill="white"/>
<path d="M91.1168 54.0394L83.4026 54.9746C83.8117 54.3901 84.1623 53.864 84.5714 53.2795C85.5649 51.7014 87.6103 45.9148 84.5714 45.4472L86.9675 39.8361C89.1882 40.8297 90.883 42.6416 91.7012 44.9212C92.87 48.019 92.4024 51.1753 91.1168 54.0394Z" fill="white"/>
<path d="M122.09 72.6848L116.129 74.263C116.129 73.5031 116.012 72.5095 115.486 72.0419C114.785 71.3989 113.558 71.9834 112.74 72.2172C109.292 73.3278 106.078 75.0228 102.863 76.4256L103.272 69.7623C106.72 68.0088 110.11 66.1969 113.733 65.6709C117.824 65.1448 121.038 67.7166 121.915 71.6912C121.973 72.0419 122.032 72.3926 122.09 72.6848Z" fill="white"/>
<path d="M149.674 99.5133C149.616 99.6302 149.499 99.8056 149.44 99.9225L149.265 99.2211L149.674 99.5133Z" fill="white"/>
<path d="M112.798 52.5782C116.639 52.5782 119.753 49.4641 119.753 45.6226C119.753 41.7812 116.639 38.6671 112.798 38.6671C108.957 38.6671 105.844 41.7812 105.844 45.6226C105.844 49.4641 108.957 52.5782 112.798 52.5782Z" fill="white"/>
<path d="M112.915 18.1513C116.756 18.1513 119.87 15.0372 119.87 11.1958C119.87 7.35433 116.756 4.24023 112.915 4.24023C109.074 4.24023 105.961 7.35433 105.961 11.1958C105.961 15.0372 109.074 18.1513 112.915 18.1513Z" fill="white"/>
<path d="M140.733 48.0776C144.574 48.0776 147.687 44.9635 147.687 41.122C147.687 37.2806 144.574 34.1665 140.733 34.1665C136.892 34.1665 133.778 37.2806 133.778 41.122C133.778 44.9635 136.892 48.0776 140.733 48.0776Z" fill="white"/>
<path d="M142.895 70.9314C146.736 70.9314 149.85 67.8173 149.85 63.9759C149.85 60.1345 146.736 57.0204 142.895 57.0204C139.054 57.0204 135.941 60.1345 135.941 63.9759C135.941 67.8173 139.054 70.9314 142.895 70.9314Z" fill="white"/>
<path d="M90.9412 29.0229C94.7821 29.0229 97.8957 25.9088 97.8957 22.0673C97.8957 18.2259 94.7821 15.1118 90.9412 15.1118C87.1004 15.1118 83.9868 18.2259 83.9868 22.0673C83.9868 25.9088 87.1004 29.0229 90.9412 29.0229Z" fill="white"/>
</g>
<defs>
<clipPath id="clip0_66_130">
<rect width="164" height="194" fill="white"/>
</clipPath>
</defs>
</svg>
