<svg width="283" height="226" viewBox="0 0 283 226" fill="none" xmlns="http://www.w3.org/2000/svg">
<g clip-path="url(#clip0_1_353)">
<path d="M59.3328 175.85C57.453 172.71 52.4936 171.822 49.289 170.637C44.5862 168.897 39.8557 167.212 35.0558 165.784C25.2063 162.852 14.9059 161.105 4.66105 162.755C3.5235 162.942 2.10156 163.448 2.10156 164.626C2.10156 165.514 2.99634 166.117 3.79402 166.526C8.94219 169.185 14.435 171.117 20.1151 172.266L10.6748 171.677C9.5095 171.607 8.27485 171.552 7.26909 172.141C6.26333 172.731 5.7223 174.221 6.5061 175.081C6.94742 175.478 7.49886 175.731 8.08757 175.809C13.9557 177.153 19.8654 178.295 25.8167 179.233C22.5494 178.603 19.1707 178.9 16.0643 180.093C15.75 180.179 15.4559 180.326 15.1987 180.526C14.9416 180.725 14.7266 180.974 14.566 181.258C14.0666 182.45 15.4192 183.552 16.5845 184.107C24.7762 188.01 33.9252 189.653 42.9909 189.653C46.4937 189.653 50.0798 189.382 53.2843 187.968C56.4889 186.554 59.2842 183.809 59.964 180.391C60.3179 178.851 60.0933 177.235 59.3328 175.85Z" fill="#231F20"/>
<path d="M42.88 190.138C33.0929 190.138 24.1521 188.252 16.3834 184.544C14.9546 183.85 13.5049 182.547 14.1222 181.077C14.3075 180.73 14.5618 180.424 14.8696 180.179C15.1773 179.933 15.5319 179.753 15.9118 179.649C17.0941 179.192 18.3218 178.862 19.5741 178.665C15.6967 177.972 11.8263 177.16 8.00442 176.287C7.31573 176.18 6.67519 175.869 6.16631 175.393C5.96535 175.166 5.8185 174.896 5.7368 174.605C5.6551 174.313 5.64069 174.006 5.69464 173.708C5.76297 173.297 5.91914 172.905 6.15254 172.559C6.38593 172.213 6.69107 171.922 7.04721 171.705C8.21251 171.011 9.66219 171.115 10.7234 171.178L14.8089 171.434C10.9277 170.298 7.16486 168.791 3.57214 166.935C2.73285 166.498 1.62305 165.791 1.62305 164.599C1.62305 163.406 2.69817 162.561 4.58484 162.262C13.602 160.807 23.3128 161.77 35.1877 165.299C40.2858 166.817 45.2592 168.606 49.4556 170.152C50.1492 170.394 50.8429 170.63 51.6336 170.845C54.6994 171.809 58.1676 172.925 59.749 175.538C60.5724 177.027 60.8193 178.767 60.4427 180.426C59.749 183.76 57.1757 186.727 53.5064 188.35C50.0382 189.861 46.2718 190.069 43.0187 190.076L42.88 190.138ZM22.4874 179.4C20.3537 179.392 18.2371 179.78 16.2447 180.544C15.7311 180.675 15.287 180.997 15.0031 181.445C14.6216 182.353 15.9465 183.275 16.7857 183.67C24.4156 187.324 33.2247 189.168 42.8661 189.168H43.0049C46.1609 189.168 49.8302 188.967 53.1041 187.525C56.378 186.083 58.9167 183.282 59.5063 180.301C59.8382 178.874 59.6307 177.376 58.9236 176.093C57.5364 173.777 54.2486 172.744 51.3492 171.829C50.5585 171.58 49.8024 171.344 49.1227 171.088C44.9609 169.542 39.9876 167.753 34.9241 166.235C23.2087 162.769 13.6159 161.791 4.74437 163.219C4.38368 163.282 2.59413 163.621 2.59413 164.606C2.59413 165.105 3.04498 165.569 4.023 166.075C9.1356 168.717 14.5913 170.635 20.2331 171.774C20.3532 171.797 20.46 171.866 20.5321 171.965C20.6041 172.064 20.6361 172.186 20.6215 172.308C20.6043 172.43 20.5421 172.541 20.4471 172.619C20.3521 172.697 20.2312 172.737 20.1082 172.731L10.6679 172.141C9.46104 172.065 8.38591 172.044 7.54663 172.536C7.31515 172.681 7.11653 172.872 6.96359 173.097C6.81066 173.323 6.70681 173.578 6.65878 173.847C6.62855 174.003 6.63339 174.165 6.67297 174.319C6.71254 174.474 6.78587 174.618 6.88768 174.741C7.27075 175.055 7.73481 175.255 8.22638 175.316C13.6783 176.564 19.2273 177.653 24.7555 178.547C25.1509 178.602 25.5463 178.665 25.9416 178.741C26.057 178.775 26.1558 178.85 26.219 178.952C26.2821 179.054 26.3052 179.176 26.2836 179.294C26.262 179.412 26.1974 179.518 26.1022 179.591C26.007 179.665 25.888 179.7 25.7682 179.691L24.6099 179.552C23.906 179.46 23.1972 179.409 22.4874 179.4Z" fill="#231F20"/>
<path d="M7.99046 197.015C6.60321 197.66 5.06335 198.769 5.35468 200.239C12.9846 199.601 20.5752 198.612 28.1265 197.272C24.8788 198.623 21.9298 200.602 19.4482 203.094C16.9666 205.586 15.0011 208.543 13.6643 211.795C15.4192 212.398 17.3336 211.795 19.0816 211.158L42.2348 202.963C37.7055 208.828 32.9125 215.823 34.6535 223.026C34.8893 223.997 35.4512 225.106 36.4431 225.161C36.7896 225.132 37.127 225.034 37.4354 224.874C37.7438 224.713 38.0172 224.493 38.2396 224.225L55.3097 208.433C57.5155 210.18 54.8797 214.776 57.3143 216.184C59.194 217.265 61.053 214.873 62.3431 213.133C66.2482 207.858 73.3857 206.416 79.0942 203.164C80.7589 202.221 82.3889 201.022 83.2005 199.289C84.012 197.556 83.7207 195.178 82.1115 194.138C81.2863 193.691 80.3716 193.432 79.4341 193.383C54.6716 190.256 31.4836 185.271 7.99046 197.015Z" fill="#231F20"/>
<path d="M36.5196 225.646H36.4156C35.3682 225.591 34.5567 224.676 34.189 223.151C32.5174 216.267 36.5612 209.695 40.8687 203.968L19.2414 211.594C17.2715 212.288 15.3501 212.87 13.5051 212.239C13.4429 212.217 13.3857 212.184 13.3369 212.139C13.2881 212.095 13.2485 212.042 13.2207 211.982C13.1949 211.922 13.1816 211.857 13.1816 211.792C13.1816 211.726 13.1949 211.661 13.2207 211.601C15.512 205.986 19.6227 201.301 24.8944 198.298C18.4368 199.358 11.8889 200.163 5.4035 200.71C5.28381 200.728 5.16179 200.701 5.06072 200.634C4.95966 200.568 4.88662 200.467 4.85554 200.35C4.57809 198.963 5.60465 197.577 7.74796 196.592C28.7996 186.076 49.4766 188.876 71.3675 191.844C74.0518 192.204 76.75 192.571 79.469 192.918C80.4794 192.973 81.464 193.257 82.3476 193.75C84.2481 194.977 84.484 197.639 83.61 199.504C82.6736 201.514 80.7037 202.804 79.3026 203.601C77.4359 204.626 75.5165 205.551 73.5524 206.374C69.3074 208.218 65.2982 209.958 62.7041 213.466C61.5318 215.04 59.3677 217.986 57.0441 216.641C55.5458 215.775 55.6568 213.958 55.7192 212.35C55.7886 211.088 55.851 209.896 55.2684 209.147L38.5658 224.614C38.0349 225.199 37.306 225.567 36.5196 225.646ZM42.2351 202.478C42.312 202.479 42.3875 202.498 42.456 202.533C42.5245 202.568 42.5842 202.618 42.6305 202.679C42.6929 202.762 42.7267 202.863 42.7267 202.967C42.7267 203.071 42.6929 203.172 42.6305 203.254C38.115 209.105 33.4399 215.927 35.1324 222.915C35.2295 223.317 35.611 224.627 36.478 224.676C37.0417 224.595 37.5555 224.308 37.9208 223.872L54.9909 208.079C55.0789 208.004 55.1908 207.963 55.3065 207.963C55.4223 207.963 55.5342 208.004 55.6221 208.079C56.8915 209.085 56.8013 210.852 56.725 212.378C56.6487 213.903 56.5724 215.213 57.5643 215.788C59.007 216.613 60.5885 214.714 61.9619 212.87C64.7364 209.161 69.0299 207.282 73.2056 205.466C75.136 204.667 77.0229 203.767 78.8586 202.769C80.1488 202.034 81.9453 200.863 82.7707 199.102C83.4643 197.646 83.2979 195.497 81.8551 194.568C81.0914 194.156 80.2455 193.919 79.3789 193.875C76.6598 193.528 73.957 193.17 71.2704 192.8C49.5321 189.854 28.9938 187.074 8.21269 197.459C7.33872 197.875 5.97228 198.686 5.82662 199.733C13.2415 199.095 20.7188 198.111 28.0574 196.807C28.1731 196.79 28.2909 196.816 28.3893 196.879C28.4877 196.942 28.5599 197.039 28.5928 197.151C28.6257 197.263 28.617 197.383 28.5684 197.49C28.5197 197.596 28.4343 197.681 28.3279 197.729C22.0543 200.308 17.0315 205.226 14.3236 211.442C15.7108 211.726 17.3131 211.241 18.9223 210.672L42.0756 202.478C42.1286 202.472 42.1821 202.472 42.2351 202.478Z" fill="#231F20"/>
<path d="M162.233 202.734C164.938 203.053 168.323 202.79 169.446 200.308L158.653 195.06C162.281 195.455 165.978 195.857 169.543 195.095C173.109 194.332 176.591 192.211 178.013 188.856L165.777 185.549C170.587 184.373 175.243 182.64 179.65 180.384C182.015 179.171 184.574 177.424 184.838 174.776C184.879 174.544 184.874 174.306 184.823 174.077C184.772 173.847 184.676 173.63 184.54 173.438C184.019 172.828 183.055 172.959 182.272 173.147L164.508 177.341C170.057 175.441 176.029 173.181 179.074 168.197C167.205 167.157 155.252 168.745 144.067 172.848C136.18 175.753 127.572 184.765 135.278 192.627C141.181 198.686 154.256 201.812 162.233 202.734Z" fill="#231F20"/>
<path d="M163.994 203.324C163.387 203.321 162.781 203.286 162.177 203.22C153.208 202.18 140.675 198.873 134.904 192.967C132.275 190.284 131.262 187.192 131.977 184.017C133.197 178.589 138.996 174.186 143.865 172.398C155.117 168.271 167.141 166.673 179.081 167.718C179.163 167.725 179.242 167.752 179.31 167.798C179.378 167.845 179.433 167.908 179.469 167.982C179.51 168.052 179.531 168.132 179.531 168.214C179.531 168.296 179.51 168.376 179.469 168.446C177.569 171.587 174.614 173.653 171.146 175.275L182.154 172.675C183.069 172.453 184.234 172.315 184.928 173.126C185.109 173.366 185.24 173.64 185.311 173.932C185.383 174.224 185.394 174.528 185.344 174.824C185.039 177.847 182.084 179.677 179.885 180.814C175.988 182.806 171.897 184.397 167.678 185.563L178.179 188.391C178.246 188.408 178.308 188.44 178.361 188.484C178.415 188.527 178.458 188.582 178.488 188.644C178.519 188.706 178.535 188.773 178.537 188.842C178.539 188.911 178.525 188.979 178.498 189.043C177.111 192.246 173.844 194.686 169.689 195.573C166.943 196.072 164.137 196.156 161.366 195.823L169.689 199.871C169.803 199.927 169.891 200.025 169.933 200.144C169.976 200.263 169.971 200.394 169.918 200.509C168.85 202.797 166.207 203.324 163.994 203.324ZM162.309 202.256C164.223 202.478 167.504 202.527 168.801 200.523L158.445 195.497C158.343 195.447 158.261 195.363 158.214 195.259C158.167 195.155 158.158 195.038 158.189 194.928C158.222 194.819 158.292 194.725 158.387 194.662C158.482 194.599 158.595 194.571 158.709 194.582C162.253 194.977 165.923 195.386 169.446 194.63C172.97 193.875 175.973 191.857 177.333 189.181L165.624 186.027C165.521 185.998 165.43 185.937 165.365 185.852C165.3 185.767 165.264 185.663 165.264 185.556C165.265 185.449 165.302 185.345 165.368 185.261C165.435 185.177 165.527 185.117 165.631 185.091C170.406 183.918 175.029 182.197 179.407 179.961C181.397 178.942 184.082 177.285 184.338 174.734C184.399 174.396 184.333 174.048 184.151 173.757C183.791 173.341 182.958 173.479 182.362 173.618L164.598 177.819C164.478 177.844 164.354 177.823 164.249 177.76C164.144 177.697 164.067 177.597 164.033 177.479C163.999 177.362 164.011 177.237 164.065 177.127C164.119 177.018 164.213 176.933 164.327 176.89C169.946 174.963 175.238 172.876 178.2 168.62C166.665 167.726 155.074 169.325 144.212 173.306C139.579 175.018 134.064 179.164 132.927 184.239C132.275 187.116 133.177 189.826 135.597 192.301C141.209 198.02 153.486 201.244 162.295 202.263L162.309 202.256Z" fill="#231F20"/>
<path d="M125.616 109.749C124.203 116.684 123.635 123.765 123.924 130.837C124.062 134.003 124.417 137.155 124.985 140.272C125.722 144.403 126.872 148.448 128.418 152.349C130.32 157.153 132.853 161.683 135.951 165.819C145.974 179.323 161.525 188.232 179.886 191.843C193.488 194.512 206.75 193.923 218.562 189.895C222.937 188.421 227.127 186.446 231.048 184.01C235.511 181.231 239.582 177.866 243.151 174.006C245.107 171.901 246.915 169.664 248.562 167.309C254.367 159.039 258.723 148.758 261.151 136.418C263.162 125.881 263.724 115.12 262.823 104.431C262.656 102.275 262.427 100.119 262.129 97.9772C257.62 63.9593 239.378 32.8531 212.188 27.5082C184.665 22.1008 155.636 44.583 138.663 74.9058C137.627 76.7545 136.638 78.6309 135.695 80.535C131.061 89.7863 127.673 99.6093 125.616 109.749Z" fill="#68E1FD"/>
<path d="M203.857 26.6832C206.651 26.6834 209.439 26.9527 212.181 27.4874C239.364 32.8324 257.606 63.9386 262.122 97.9564C262.413 100.099 262.642 102.255 262.816 104.411C263.721 115.099 263.159 125.861 261.144 136.397C258.716 148.737 254.36 159.018 248.555 167.288C246.908 169.643 245.1 171.881 243.144 173.985C239.567 177.852 235.487 181.221 231.013 184.003C227.092 186.439 222.902 188.414 218.527 189.889C211.309 192.301 203.742 193.51 196.13 193.466C190.664 193.45 185.212 192.904 179.851 191.837C161.49 188.225 145.939 179.316 135.916 165.812C132.83 161.674 130.309 157.145 128.418 152.342C126.872 148.442 125.722 144.396 124.985 140.266C124.417 137.148 124.062 133.996 123.924 130.83C123.635 123.758 124.203 116.677 125.616 109.742C127.669 99.5956 131.055 89.7655 135.688 80.5073C136.612 78.6031 137.602 76.7267 138.656 74.8781C153.916 47.6055 178.956 26.6763 203.857 26.6763M203.857 25.7057C191.802 25.7057 179.074 30.5585 167.095 39.7787C155.803 48.4305 145.69 60.403 137.838 74.4413C136.77 76.3616 135.757 78.2681 134.855 80.1121C130.167 89.4237 126.74 99.3179 124.666 109.534C123.24 116.547 122.664 123.707 122.953 130.858C123.096 134.063 123.455 137.255 124.028 140.411C124.776 144.606 125.938 148.716 127.496 152.682C129.43 157.559 131.995 162.162 135.126 166.373C145.162 179.885 160.561 189.015 179.657 192.765C185.079 193.847 190.594 194.399 196.123 194.415C203.842 194.463 211.515 193.236 218.833 190.783C223.249 189.292 227.48 187.301 231.443 184.849L231.595 184.758C236.113 181.933 240.237 178.523 243.859 174.616C245.844 172.478 247.68 170.206 249.352 167.815C255.428 159.157 259.722 148.64 262.101 136.557C264.14 125.935 264.705 115.083 263.78 104.307C263.613 102.109 263.377 99.9183 263.086 97.797C260.783 80.4172 254.88 63.9386 246.439 51.4046C237.235 37.6921 225.443 29.0819 212.347 26.5099C209.537 25.96 206.679 25.6837 203.816 25.6849L203.857 25.7057Z" fill="#231F20"/>
<path d="M135.688 80.5142C138.314 82.1238 140.543 84.3051 142.209 86.8953C143.874 89.4856 144.934 92.4182 145.308 95.4746C145.745 99.6341 145.266 104.071 147.583 107.794C149.9 111.516 154.18 112.868 158.307 112.016C160.24 111.572 162.066 110.75 163.68 109.599C165.294 108.447 166.664 106.988 167.712 105.305C169.03 103.216 170.14 101.003 171.028 98.6982C171.721 96.9581 172.415 94.0742 173.893 92.757C177.18 89.7483 179.282 96.7432 179.407 98.8022C179.67 102.962 179.046 107.073 180.322 111.1C182.833 119.031 191.42 121.021 198.447 117.783C207.062 113.797 209.344 104.709 214.532 97.5821C215.059 96.8403 215.746 95.634 216.724 95.745C217.591 95.842 218.423 96.9928 218.867 97.6098C219.873 99.1194 220.61 100.792 221.045 102.553C222.155 106.518 222.12 110.768 222.259 114.851C222.502 121.631 222.856 133.645 232.254 133.721C240.987 133.784 246.127 124.744 249.234 117.867C251.079 113.818 252.876 109.09 256.545 106.317C258.321 104.911 260.564 104.23 262.822 104.411C262.656 102.255 262.427 100.099 262.129 97.9564C256.621 98.1089 251.031 101.963 247.958 106.567C245.107 110.851 243.547 115.787 240.987 120.231C239.551 122.719 233.801 130.338 230.583 126.414C228.204 123.551 228.703 117.853 228.578 114.386C228.439 110.227 228.321 106.144 227.427 102.088C226.58 98.2684 224.93 94.2129 221.919 91.5785C218.77 88.8055 214.463 88.6045 211.369 91.5439C205.168 97.4504 204.086 108.529 195.645 112.133C192.336 113.52 188.181 113.568 186.572 109.79C184.9 105.846 186.149 101.145 185.615 96.9997C185.129 93.1869 183.61 89.6582 180.302 87.5091C177.132 85.4294 172.984 85.1867 170.008 87.724C166.637 90.6149 165.652 95.6687 163.766 99.5093C162.247 102.58 158.751 107.301 154.596 105.804C151.128 104.549 151.918 98.6635 151.703 95.8073C151.398 91.9028 150.23 88.1145 148.284 84.7153C145.97 80.6651 142.655 77.2758 138.656 74.8712C137.625 76.7198 136.635 78.6008 135.688 80.5142Z" fill="white"/>
<path d="M123.924 130.837C124.062 134.003 124.417 137.155 124.985 140.272C133.126 147.196 142.065 153.121 151.613 157.923C165.777 165.035 181.037 169.056 196.658 171.295C212.001 173.507 227.649 174.762 243.131 173.985C245.087 171.881 246.895 169.643 248.541 167.288C243.776 167.684 238.997 167.871 234.211 167.885C218.612 167.881 203.049 166.379 187.738 163.399C173.785 160.771 160.365 155.852 148.02 148.841C139.299 143.821 131.21 137.776 123.924 130.837Z" fill="white"/>
<path d="M128.418 152.349C130.32 157.153 132.853 161.683 135.951 165.819C140.493 168.854 145.219 171.604 150.101 174.055C164.244 181.167 179.525 185.188 195.152 187.434C202.893 188.544 210.717 189.41 218.562 189.895C222.937 188.421 227.127 186.446 231.048 184.01C216.001 183.909 200.997 182.417 186.225 179.552C172.274 176.92 158.854 172.001 146.508 164.994C140.118 161.318 134.065 157.087 128.418 152.349Z" fill="white"/>
<path d="M202.935 143.545C206.926 143.545 210.162 140.311 210.162 136.321C210.162 132.331 206.926 129.097 202.935 129.097C198.943 129.097 195.707 132.331 195.707 136.321C195.707 140.311 198.943 143.545 202.935 143.545Z" fill="white"/>
<path d="M223.057 162.221C227.048 162.221 230.284 158.987 230.284 154.997C230.284 151.008 227.048 147.773 223.057 147.773C219.065 147.773 215.829 151.008 215.829 154.997C215.829 158.987 219.065 162.221 223.057 162.221Z" fill="white"/>
<path d="M176.383 157.008C180.375 157.008 183.61 153.773 183.61 149.784C183.61 145.794 180.375 142.56 176.383 142.56C172.391 142.56 169.155 145.794 169.155 149.784C169.155 153.773 172.391 157.008 176.383 157.008Z" fill="white"/>
<path d="M198.426 82.4414C202.418 82.4414 205.654 79.2073 205.654 75.2178C205.654 71.2282 202.418 67.9941 198.426 67.9941C194.435 67.9941 191.199 71.2282 191.199 75.2178C191.199 79.2073 194.435 82.4414 198.426 82.4414Z" fill="white"/>
<path d="M161.442 135.385C165.434 135.385 168.67 132.151 168.67 128.161C168.67 124.172 165.434 120.938 161.442 120.938C157.45 120.938 154.214 124.172 154.214 128.161C154.214 132.151 157.45 135.385 161.442 135.385Z" fill="white"/>
<path d="M177.548 53.5329C181.54 53.5329 184.776 50.2987 184.776 46.3092C184.776 42.3197 181.54 39.0855 177.548 39.0855C173.556 39.0855 170.32 42.3197 170.32 46.3092C170.32 50.2987 173.556 53.5329 177.548 53.5329Z" fill="white"/>
<path d="M219.048 61.6855C223.04 61.6855 226.276 58.4514 226.276 54.4618C226.276 50.4723 223.04 47.2382 219.048 47.2382C215.056 47.2382 211.82 50.4723 211.82 54.4618C211.82 58.4514 215.056 61.6855 219.048 61.6855Z" fill="white"/>
<path d="M234.8 79.509C238.792 79.509 242.027 76.2749 242.027 72.2853C242.027 68.2958 238.792 65.0616 234.8 65.0616C230.808 65.0616 227.572 68.2958 227.572 72.2853C227.572 76.2749 230.808 79.509 234.8 79.509Z" fill="white"/>
<path d="M137.47 130.678C141.462 130.678 144.698 127.444 144.698 123.454C144.698 119.465 141.462 116.231 137.47 116.231C133.479 116.231 130.243 119.465 130.243 123.454C130.243 127.444 133.479 130.678 137.47 130.678Z" fill="white"/>
<path d="M165.763 76.015C169.755 76.015 172.991 72.7808 172.991 68.7913C172.991 64.8018 169.755 61.5676 165.763 61.5676C161.772 61.5676 158.536 64.8018 158.536 68.7913C158.536 72.7808 161.772 76.015 165.763 76.015Z" fill="white"/>
<path d="M95.1035 204.419C106.465 204.96 116.557 203.566 125.353 200.592C132.915 198.118 139.911 194.168 145.935 188.971C151.958 183.774 156.89 177.434 160.443 170.318C163.769 163.701 166.075 156.619 167.282 149.313C167.876 145.831 168.256 142.317 168.42 138.789C168.588 135.263 168.544 131.73 168.288 128.21C167.788 121.024 166.241 113.95 163.696 107.211C157.787 91.8558 146.48 79.4328 129.792 72.4795C121.683 69.1033 112.292 67.0166 101.644 66.5106C96.6325 66.2804 91.6107 66.3892 86.6135 66.8364C69.3294 68.3771 52.5637 73.5383 37.4076 81.9839C31.1715 85.4711 25.3537 89.6576 20.0669 94.4625C10.3561 103.392 3.58628 114.026 1.6025 125.707C1.31033 127.411 1.1227 129.131 1.04066 130.858C0.958546 132.612 0.984027 134.369 1.11696 136.12C2.08111 149.146 8.94802 161.451 19.4218 171.926C22.5853 175.099 25.9719 178.041 29.5557 180.731C42.2907 190.311 58.1123 197.625 74.5236 201.487C81.2797 203.089 88.1684 204.071 95.1035 204.419Z" fill="#68E1FD"/>
<path d="M96.6086 66.3927C98.2941 66.3927 99.9727 66.3927 101.644 66.5105C112.292 67.0166 121.683 69.1033 129.792 72.4794C146.48 79.412 157.787 91.8558 163.696 107.211C166.239 113.946 167.786 121.015 168.288 128.196C168.544 131.717 168.588 135.249 168.42 138.775C168.256 142.303 167.876 145.817 167.282 149.299C166.075 156.605 163.769 163.687 160.443 170.304C156.89 177.42 151.958 183.76 145.935 188.957C139.911 194.154 132.915 198.104 125.353 200.578C117.134 203.267 108.53 204.595 99.8825 204.509C98.3288 204.509 96.7473 204.472 95.1381 204.398C88.2031 204.05 81.3144 203.068 74.5582 201.466C58.147 197.604 42.3253 190.291 29.5903 180.71C25.9953 178.029 22.597 175.093 19.4217 171.926C8.95491 161.431 2.08106 149.125 1.09611 136.092C0.963175 134.341 0.937694 132.584 1.01981 130.83C1.10185 129.104 1.28948 127.383 1.58165 125.68C3.56542 113.998 10.3144 103.364 20.046 94.4347C25.3328 89.6299 31.1506 85.4433 37.3867 81.9562C52.5428 73.5105 69.3086 68.3493 86.5926 66.8086C89.9359 66.5082 93.2676 66.3603 96.5878 66.365M96.5878 65.3944C93.2861 65.3944 89.8943 65.54 86.5094 65.8381C69.0906 67.4003 52.1933 72.596 36.9081 81.0896C30.5977 84.6096 24.71 88.8381 19.3593 93.6929C9.00347 103.197 2.51805 114.192 0.63138 125.492C0.329296 127.233 0.137015 128.99 0.0556709 130.754C-0.0276721 132.55 0.00012527 134.349 0.138905 136.141C1.0753 148.779 7.51216 161.382 18.7281 172.62C21.928 175.817 25.3517 178.782 28.973 181.493C41.7843 191.129 57.8834 198.554 74.3016 202.416C81.1052 204.035 88.0425 205.03 95.0271 205.39C96.6364 205.466 98.2525 205.501 99.8201 205.501C108.586 205.584 117.306 204.235 125.637 201.507C133.316 198.989 140.419 194.976 146.537 189.699C152.655 184.422 157.667 177.985 161.282 170.762C164.653 164.054 166.991 156.877 168.219 149.472C168.222 149.461 168.222 149.449 168.219 149.437C169.411 142.412 169.755 135.269 169.245 128.161C169.25 128.15 169.25 128.138 169.245 128.127C168.737 120.851 167.172 113.689 164.598 106.865C158.321 90.5594 146.411 78.3582 130.152 71.5851C121.096 67.934 111.473 65.8884 101.714 65.54C100.042 65.4568 98.3288 65.4221 96.6294 65.4221L96.5878 65.3944Z" fill="#231F20"/>
<path d="M65.4438 89.8246C79.3649 86.6079 88.9786 76.7915 86.9463 67.897C86.8634 67.5376 86.7591 67.1834 86.6342 66.8364C69.3501 68.3771 52.5844 73.5382 37.4282 81.9839C41.0767 89.2492 52.8684 92.7293 65.4438 89.8246Z" fill="white"/>
<path d="M123.541 105.447C123.973 96.3258 112.756 88.3843 98.4867 87.7093C84.2176 87.0342 72.3001 93.8813 71.8681 103.003C71.4361 112.124 82.6533 120.065 96.9224 120.74C111.191 121.415 123.109 114.568 123.541 105.447Z" fill="white"/>
<path d="M1.57471 125.7C3.44213 124.952 5.25065 124.064 6.985 123.045C19.2969 115.808 25.5257 103.565 20.8992 95.6687C20.6429 95.237 20.3554 94.8245 20.0391 94.4347C10.3075 103.385 3.55848 114.019 1.57471 125.7Z" fill="white"/>
<path d="M19.4218 171.926C24.5339 165.042 21.1212 152.515 11.3133 143.136C8.32118 140.239 4.86851 137.859 1.09619 136.092C2.08114 149.146 8.94805 161.451 19.4218 171.926Z" fill="white"/>
<path d="M125.519 169.825C125.95 160.704 114.733 152.763 100.464 152.088C86.1952 151.412 74.2776 158.26 73.8456 167.381C73.4137 176.502 84.6308 184.444 98.8999 185.119C113.169 185.794 125.087 178.947 125.519 169.825Z" fill="white"/>
<path d="M75.4121 134.358C75.844 125.237 64.6269 117.296 50.3578 116.621C36.0887 115.946 24.1712 122.793 23.7392 131.914C23.3072 141.035 34.5244 148.977 48.7935 149.652C63.0625 150.327 74.9801 143.48 75.4121 134.358Z" fill="white"/>
<path d="M147.125 154.325C155.116 154.706 162.385 152.723 167.282 149.313C167.876 145.831 168.255 142.317 168.42 138.789C168.588 135.263 168.544 131.73 168.288 128.21C163.717 124.349 156.684 121.686 148.693 121.312C134.425 120.619 122.502 127.482 122.072 136.564C121.641 145.645 132.857 153.652 147.125 154.325Z" fill="white"/>
<path d="M163.696 107.211C157.786 91.8558 146.48 79.4327 129.792 72.4794C129.249 73.0299 128.77 73.6391 128.363 74.2957C123.507 82.0255 129.382 94.4486 141.479 102.026C149.13 106.816 157.398 108.542 163.696 107.211Z" fill="white"/>
<path d="M125.352 200.592C132.915 198.118 139.911 194.168 145.934 188.971C151.958 183.774 156.889 177.434 160.443 170.318C154.2 169.472 146.224 171.58 139.017 176.557C129.257 183.261 123.923 193.126 125.352 200.592Z" fill="white"/>
<path d="M74.5235 201.487C74.3987 194.006 67.5873 185.445 57.1274 180.509C46.4594 175.497 35.3128 175.816 29.5557 180.731C42.3115 190.311 58.1123 197.625 74.5235 201.487Z" fill="white"/>
<path d="M90.5878 91.9806C90.4671 91.9794 90.3512 91.9332 90.2627 91.8512C90.1743 91.7692 90.1195 91.6571 90.1092 91.537L88.6387 75.2247C88.633 75.1619 88.6398 75.0985 88.6587 75.0383C88.6776 74.9781 88.7082 74.9222 88.7489 74.8738C88.7895 74.8255 88.8393 74.7857 88.8954 74.7567C88.9514 74.7277 89.0127 74.71 89.0757 74.7048C89.2034 74.6932 89.3306 74.7327 89.4294 74.8145C89.5282 74.8963 89.5905 75.0139 89.6028 75.1416L91.0733 91.4538C91.079 91.5166 91.0722 91.58 91.0533 91.6402C91.0344 91.7005 91.0038 91.7563 90.9631 91.8047C90.9225 91.853 90.8727 91.8928 90.8166 91.9218C90.7605 91.9509 90.6993 91.9685 90.6363 91.9737L90.5878 91.9806Z" fill="#231F20"/>
<path d="M105.258 97.6167C105.198 97.6159 105.139 97.6041 105.084 97.5821L90.5528 91.9945C87.05 92.764 81.3622 94.1574 80.5784 94.7051C80.527 94.7415 80.4688 94.7674 80.4073 94.7814C80.3458 94.7953 80.2822 94.7971 80.22 94.7864C80.1579 94.7758 80.0984 94.7531 80.0451 94.7195C79.9917 94.6859 79.9455 94.6421 79.9091 94.5907C79.8726 94.5393 79.8467 94.4812 79.8327 94.4197C79.8188 94.3582 79.817 94.2946 79.8277 94.2325C79.8383 94.1704 79.8611 94.111 79.8947 94.0577C79.9283 94.0043 79.972 93.9581 80.0235 93.9217C81.2304 93.0621 89.5401 91.2319 90.4834 91.0239C90.5737 90.9957 90.6705 90.9957 90.7609 91.0239L105.431 96.6809C105.535 96.7225 105.622 96.7989 105.676 96.8972C105.73 96.9955 105.749 97.1095 105.728 97.2199C105.708 97.3302 105.65 97.4301 105.564 97.5024C105.478 97.5748 105.37 97.6152 105.258 97.6167Z" fill="#231F20"/>
<path d="M65.8112 9.37277C71.4901 8.70375 77.2466 9.29069 82.6733 11.092C85.0205 7.8698 88.1057 5.25629 91.6708 3.47021C95.2358 1.68412 99.1771 0.77741 103.165 0.825948C107.152 0.874485 111.07 1.87686 114.591 3.74919C118.111 5.62152 121.132 8.30935 123.4 11.5878C125.668 14.8662 127.117 18.6398 127.627 22.5929C128.136 26.546 127.691 30.5635 126.328 34.3093C124.965 38.0551 122.725 41.4202 119.794 44.1231C116.863 46.8259 113.327 48.7879 109.482 49.8448C109.18 57.3264 106.739 64.5648 102.448 70.7027C98.1569 76.8406 92.1959 81.6208 85.2707 84.4774C78.3456 87.334 70.7464 88.1472 63.3731 86.8207C55.9998 85.4942 49.1613 82.0836 43.6675 76.9928C38.1737 71.902 34.2546 65.3443 32.3745 58.0962C30.4944 50.8481 30.7319 43.2133 33.059 36.096C35.3861 28.9786 39.7053 22.6769 45.505 17.9371C51.3047 13.1973 58.342 10.218 65.7835 9.35197L65.8112 9.37277Z" fill="white"/>
<path d="M70.2852 87.9528C60.1992 87.886 50.5172 83.9832 43.2071 77.0376C35.8971 70.0921 31.5075 60.6251 30.9307 50.5609C30.3539 40.4967 33.6332 30.5906 40.1019 22.8563C46.5707 15.1219 55.7435 10.1396 65.7558 8.92217C71.3886 8.25862 77.0984 8.82148 82.493 10.5721C84.5308 7.85126 87.0939 5.56645 90.0305 3.85279C92.9672 2.13913 96.2179 1.03141 99.5903 0.595136C102.963 0.158865 106.388 0.4029 109.665 1.31281C112.941 2.22272 116.002 3.78004 118.666 5.89266C121.291 7.95641 123.48 10.5203 125.106 13.4359C126.733 16.3514 127.764 19.5605 128.141 22.8773C128.8 28.8458 127.34 34.8562 124.014 39.857C120.688 44.8578 115.708 48.5307 109.947 50.233C109.43 60.4017 105.027 69.984 97.6467 77.0027C90.2666 84.0215 80.4725 87.9411 70.2852 87.9528ZM65.8945 9.85112C58.5434 10.7013 51.5901 13.6396 45.8584 18.3179C40.1267 22.9961 35.8567 29.2184 33.5543 36.2475C31.2519 43.2766 31.0136 50.8179 32.8676 57.9782C34.7216 65.1385 38.5902 71.6177 44.0151 76.6481C49.44 81.6786 56.1939 85.0495 63.4767 86.3617C70.7595 87.6738 78.266 86.8721 85.1069 84.0516C91.9479 81.231 97.8366 76.5099 102.076 70.4473C106.314 64.3848 108.726 57.235 109.024 49.8448C109.03 49.7422 109.067 49.644 109.132 49.5642C109.197 49.4845 109.286 49.4274 109.385 49.4011C115.004 47.8208 119.88 44.2987 123.144 39.462C126.409 34.6252 127.85 28.7875 127.211 22.9882C126.646 18.0945 124.616 13.4852 121.386 9.7633C118.157 6.04143 113.879 3.38027 109.112 2.12792C104.345 0.875575 99.311 1.09034 94.668 2.74413C90.0251 4.39792 85.9896 7.41373 83.0895 11.3971C83.0283 11.4783 82.9434 11.5385 82.8465 11.5696C82.7497 11.6006 82.6455 11.6009 82.5485 11.5704C77.1935 9.78077 71.5094 9.19374 65.9014 9.85112H65.8945Z" fill="#231F20"/>
<path d="M72.1995 101.118C72.0765 101.116 71.9588 101.068 71.87 100.983C71.7812 100.898 71.7279 100.783 71.7208 100.66L70.2504 75.2109C70.2466 75.1481 70.2553 75.0851 70.276 75.0256C70.2966 74.9661 70.3288 74.9113 70.3707 74.8643C70.4126 74.8173 70.4633 74.779 70.52 74.7516C70.5768 74.7243 70.6383 74.7084 70.7012 74.7048C70.7648 74.6991 70.829 74.7064 70.8897 74.7263C70.9504 74.7461 71.0065 74.778 71.0545 74.8202C71.1025 74.8623 71.1414 74.9138 71.1689 74.9714C71.1964 75.029 71.2119 75.0916 71.2145 75.1554L72.685 100.605C72.6907 100.733 72.6461 100.858 72.5605 100.954C72.475 101.05 72.3554 101.109 72.2272 101.118H72.1995Z" fill="#231F20"/>
<path d="M86.87 106.761C86.8103 106.763 86.7509 106.751 86.6966 106.726L72.1304 101.145C68.6622 101.915 62.9398 103.301 62.156 103.849C62.1041 103.89 62.0444 103.919 61.9805 103.936C61.9167 103.952 61.8501 103.956 61.785 103.945C61.7198 103.935 61.6575 103.911 61.602 103.875C61.5465 103.84 61.499 103.793 61.4624 103.738C61.423 103.686 61.3947 103.625 61.3793 103.561C61.3638 103.498 61.3616 103.431 61.3726 103.366C61.3836 103.301 61.4077 103.24 61.4434 103.184C61.4791 103.129 61.5257 103.082 61.5803 103.045C62.7872 102.185 71.0969 100.355 72.0402 100.147C72.1305 100.119 72.2273 100.119 72.3177 100.147L86.9879 105.783C87.0922 105.825 87.1788 105.901 87.233 106C87.2872 106.098 87.3056 106.212 87.2852 106.322C87.2648 106.433 87.2067 106.533 87.1208 106.605C87.035 106.677 86.9267 106.718 86.8145 106.719L86.87 106.761Z" fill="#231F20"/>
<path d="M86.8696 101.118H72.1994C72.0706 101.118 71.9471 101.067 71.8561 100.976C71.765 100.885 71.7139 100.761 71.7139 100.632C71.7139 100.504 71.765 100.38 71.8561 100.289C71.9471 100.198 72.0706 100.147 72.1994 100.147H86.8696C86.9984 100.147 87.1219 100.198 87.213 100.289C87.304 100.38 87.3552 100.504 87.3552 100.632C87.3552 100.761 87.304 100.885 87.213 100.976C87.1219 101.067 86.9984 101.118 86.8696 101.118Z" fill="#231F20"/>
<path d="M106.326 91.9806H90.5876C90.4588 91.9806 90.3353 91.9295 90.2443 91.8385C90.1532 91.7475 90.1021 91.624 90.1021 91.4953C90.1021 91.3666 90.1532 91.2432 90.2443 91.1522C90.3353 91.0612 90.4588 91.0101 90.5876 91.0101H106.326C106.455 91.0101 106.578 91.0612 106.669 91.1522C106.76 91.2432 106.812 91.3666 106.812 91.4953C106.812 91.624 106.76 91.7475 106.669 91.8385C106.578 91.9295 106.455 91.9806 106.326 91.9806Z" fill="#231F20"/>
<path d="M125.498 30.2258L144.032 38.1704L123.056 36.8879C123.056 36.8879 122.571 32.6729 125.498 30.2258Z" fill="white"/>
<path d="M144.032 38.6557L123.056 37.3663C122.943 37.3604 122.836 37.3148 122.753 37.2373C122.671 37.1599 122.618 37.0558 122.605 36.9434C122.605 36.7562 122.127 32.4372 125.213 29.8584C125.283 29.8005 125.367 29.7627 125.456 29.7493C125.545 29.7358 125.637 29.7472 125.72 29.7821L144.254 37.7267C144.355 37.7717 144.438 37.8502 144.489 37.949C144.54 38.0478 144.555 38.161 144.532 38.2697C144.509 38.3784 144.45 38.476 144.364 38.5463C144.278 38.6165 144.17 38.6551 144.059 38.6557H144.032ZM123.514 36.4304L141.285 37.5188L125.588 30.7873C123.618 32.6244 123.466 35.3974 123.514 36.4304Z" fill="#231F20"/>
<path d="M123.056 36.8879L138.476 42.4825L123.465 40.5483C123.465 40.5483 121.933 39.9452 123.056 36.8879Z" fill="white"/>
<path d="M138.476 42.9816H138.413L123.424 41.0474H123.306C123.223 41.0474 121.329 40.2363 122.613 36.7701C122.657 36.6501 122.746 36.5523 122.861 36.4978C122.977 36.4433 123.109 36.4365 123.23 36.4789L138.649 42.0735C138.76 42.1156 138.852 42.1963 138.908 42.3007C138.964 42.4052 138.981 42.5263 138.955 42.6419C138.923 42.743 138.859 42.8309 138.772 42.8922C138.686 42.9536 138.582 42.985 138.476 42.9816ZM123.625 40.0908L134.196 41.4773L123.362 37.5465C122.772 39.4044 123.466 39.966 123.625 40.0769V40.0908Z" fill="#231F20"/>
<path d="M115.35 27.3765C116.407 27.3765 117.264 26.194 117.264 24.7352C117.264 23.2765 116.407 22.0939 115.35 22.0939C114.293 22.0939 113.436 23.2765 113.436 24.7352C113.436 26.194 114.293 27.3765 115.35 27.3765Z" fill="#231F20"/>
<path d="M123.001 28.3124C124.058 28.3124 124.915 27.1299 124.915 25.6711C124.915 24.2124 124.058 23.0298 123.001 23.0298C121.944 23.0298 121.086 24.2124 121.086 25.6711C121.086 27.1299 121.944 28.3124 123.001 28.3124Z" fill="#231F20"/>
<path d="M83.5124 47.7512C83.5124 47.7512 59.2355 81.4571 53.4853 60.9576C47.7351 40.4582 58.6806 32.5343 58.6806 32.5343" fill="white"/>
<path d="M59.971 68.0565C59.6013 68.0558 59.2323 68.0233 58.8681 67.9595C56.0936 67.4742 54.1653 65.1865 53.0208 61.0893C50.0174 50.3647 51.6336 43.0648 53.4925 38.8706C55.5387 34.2605 58.2855 32.2362 58.4034 32.1461C58.5075 32.0887 58.6291 32.0714 58.745 32.0976C58.861 32.1238 58.9633 32.1917 59.0326 32.2882C59.1019 32.3848 59.1333 32.5035 59.1209 32.6217C59.1084 32.7398 59.0531 32.8494 58.9652 32.9295C58.8612 33.0057 48.3805 40.9365 53.9572 60.8328C54.9838 64.514 56.6971 66.5938 59.0346 67.0097C67.7812 68.5626 82.9717 47.6819 83.1243 47.467C83.1614 47.4126 83.2094 47.3666 83.2651 47.3316C83.3209 47.2967 83.3833 47.2736 83.4484 47.2638C83.5135 47.2541 83.5799 47.2578 83.6435 47.2749C83.7071 47.2919 83.7664 47.3219 83.8179 47.363C83.872 47.4002 83.9179 47.448 83.953 47.5035C83.988 47.559 84.0114 47.6211 84.0218 47.6859C84.0322 47.7507 84.0293 47.8169 84.0133 47.8806C83.9973 47.9442 83.9686 48.004 83.9289 48.0562C83.2977 48.8812 69.3627 68.0565 59.971 68.0565Z" fill="#231F20"/>
<path d="M212.049 125.867C212.049 125.867 178.172 120.66 178.061 128.355C177.95 136.051 194.854 150.914 205.411 152.404" fill="white"/>
<path d="M205.397 152.89H205.314C194.556 151.371 177.43 136.252 177.569 128.355C177.578 127.907 177.687 127.467 177.889 127.066C178.091 126.665 178.379 126.315 178.734 126.04C184.456 121.187 210.995 125.222 212.125 125.395C212.244 125.423 212.349 125.494 212.417 125.596C212.486 125.697 212.514 125.82 212.496 125.941C212.477 126.062 212.414 126.171 212.318 126.248C212.222 126.324 212.102 126.361 211.98 126.352C211.702 126.31 184.748 122.234 179.379 126.782C179.13 126.966 178.926 127.205 178.783 127.48C178.64 127.755 178.561 128.059 178.554 128.369C178.443 135.739 195.305 150.498 205.487 151.94C205.606 151.96 205.714 152.024 205.788 152.119C205.863 152.214 205.899 152.333 205.891 152.453C205.882 152.574 205.829 152.686 205.741 152.77C205.654 152.853 205.539 152.901 205.418 152.904L205.397 152.89Z" fill="#231F20"/>
<path d="M201.152 187.178C201.051 187.177 200.953 187.146 200.871 187.087C200.789 187.028 200.728 186.946 200.695 186.85C200.662 186.755 200.66 186.652 200.688 186.556C200.717 186.459 200.774 186.374 200.854 186.311L213.866 176.356C213.917 176.315 213.975 176.284 214.038 176.265C214.101 176.247 214.167 176.242 214.232 176.251C214.298 176.259 214.36 176.281 214.416 176.315C214.473 176.348 214.522 176.393 214.56 176.446C214.602 176.496 214.634 176.555 214.653 176.618C214.672 176.681 214.677 176.748 214.669 176.813C214.66 176.878 214.638 176.941 214.604 176.997C214.569 177.054 214.524 177.102 214.47 177.14L201.464 187.102C201.371 187.159 201.261 187.186 201.152 187.178Z" fill="#231F20"/>
<path d="M206.008 196.641C205.891 196.639 205.778 196.595 205.69 196.517C205.603 196.44 205.545 196.334 205.529 196.218C205.411 195.275 202.581 190.152 200.778 187.053L186.829 180.121C186.771 180.093 186.72 180.055 186.678 180.007C186.636 179.96 186.603 179.905 186.583 179.845C186.562 179.785 186.554 179.721 186.558 179.658C186.562 179.595 186.578 179.533 186.607 179.476C186.635 179.418 186.674 179.367 186.722 179.325C186.77 179.282 186.826 179.25 186.887 179.229C186.947 179.209 187.011 179.2 187.075 179.205C187.139 179.209 187.201 179.226 187.259 179.254L201.339 186.228C201.423 186.27 201.493 186.335 201.541 186.415C202.026 187.254 206.299 194.61 206.486 196.079C206.502 196.206 206.467 196.334 206.389 196.435C206.311 196.536 206.197 196.603 206.07 196.62L206.008 196.641Z" fill="#231F20"/>
<path d="M263.925 116.404C259.263 113.113 253.936 110.884 248.319 109.873C247.799 105.922 246.34 102.152 244.063 98.8803C241.787 95.608 238.759 92.9283 235.234 91.0653C231.709 89.2022 227.789 88.21 223.801 88.1717C219.814 88.1335 215.875 89.0502 212.315 90.8452C208.755 92.6402 205.676 95.2613 203.337 98.4892C200.998 101.717 199.467 105.458 198.871 109.399C198.275 113.339 198.632 117.365 199.913 121.14C201.193 124.914 203.359 128.328 206.23 131.094C202.913 137.81 201.593 145.335 202.425 152.778C203.256 160.221 206.205 167.27 210.922 173.09C215.639 178.909 221.926 183.256 229.038 185.614C236.15 187.972 243.79 188.243 251.051 186.395C258.313 184.547 264.892 180.657 270.01 175.187C275.128 169.716 278.57 162.894 279.927 155.529C281.285 148.163 280.502 140.563 277.671 133.629C274.84 126.695 270.079 120.717 263.953 116.404H263.925Z" fill="white"/>
<path d="M241.272 188.1C234.562 188.082 227.966 186.365 222.101 183.108C216.235 179.852 211.291 175.164 207.729 169.48C204.168 163.797 202.106 157.304 201.736 150.608C201.366 143.912 202.699 137.232 205.612 131.191C202.745 128.352 200.595 124.872 199.339 121.039C198.082 117.206 197.756 113.129 198.386 109.145C199.016 105.161 200.586 101.383 202.964 98.1247C205.342 94.866 208.462 92.2191 212.065 90.4025C215.668 88.5858 219.652 87.6515 223.688 87.6766C227.724 87.7016 231.696 88.6854 235.276 90.5466C238.857 92.4079 241.943 95.0933 244.281 98.3814C246.618 101.669 248.14 105.466 248.721 109.457C254.295 110.502 259.579 112.737 264.21 116.009C270.627 120.525 275.56 126.843 278.384 134.162C281.208 141.481 281.797 149.473 280.076 157.126C278.355 164.78 274.401 171.751 268.715 177.159C263.028 182.566 255.865 186.166 248.131 187.504C245.866 187.898 243.571 188.097 241.272 188.1ZM223.57 88.6599C218.686 88.6501 213.911 90.1007 209.858 92.8253C205.806 95.5498 202.662 99.4236 200.83 103.949C198.998 108.474 198.562 113.443 199.579 118.217C200.596 122.992 203.018 127.353 206.535 130.74C206.609 130.811 206.659 130.903 206.678 131.004C206.697 131.105 206.683 131.209 206.639 131.302C203.361 137.936 202.054 145.369 202.874 152.723C203.693 160.076 206.605 167.04 211.264 172.79C215.922 178.54 222.132 182.834 229.158 185.165C236.184 187.495 243.731 187.764 250.905 185.939C258.078 184.114 264.578 180.272 269.634 174.868C274.691 169.464 278.091 162.724 279.432 155.448C280.773 148.172 279.999 140.664 277.201 133.814C274.404 126.964 269.7 121.059 263.648 116.799C259.04 113.537 253.767 111.333 248.208 110.345C248.107 110.328 248.014 110.279 247.943 110.205C247.872 110.132 247.826 110.037 247.812 109.936C247.042 104.054 244.158 98.6523 239.698 94.738C235.237 90.8237 229.506 88.6635 223.57 88.6599Z" fill="#231F20"/>
<path d="M237.429 203.636H237.332C237.206 203.611 237.095 203.537 237.024 203.43C236.952 203.324 236.926 203.193 236.95 203.067L241.972 178.076C241.985 178.014 242.01 177.955 242.045 177.903C242.081 177.85 242.126 177.805 242.179 177.771C242.232 177.736 242.291 177.712 242.353 177.7C242.415 177.688 242.479 177.688 242.541 177.701C242.603 177.714 242.662 177.739 242.714 177.774C242.766 177.81 242.811 177.855 242.846 177.908C242.881 177.961 242.905 178.02 242.917 178.082C242.929 178.144 242.928 178.208 242.916 178.27L237.901 203.227C237.883 203.339 237.826 203.442 237.739 203.517C237.653 203.592 237.543 203.634 237.429 203.636Z" fill="#231F20"/>
<path d="M247.216 207.871C247.093 207.868 246.975 207.822 246.883 207.74C246.189 207.046 240.751 204.911 237.394 203.656L222.224 207.157C222.161 207.177 222.094 207.183 222.028 207.175C221.962 207.168 221.898 207.147 221.841 207.114C221.783 207.081 221.733 207.036 221.694 206.983C221.654 206.93 221.626 206.869 221.611 206.804C221.595 206.74 221.594 206.673 221.605 206.607C221.617 206.542 221.642 206.48 221.679 206.425C221.715 206.369 221.763 206.322 221.819 206.286C221.874 206.25 221.937 206.226 222.002 206.215L237.318 202.686C237.409 202.662 237.504 202.662 237.595 202.686C238.497 203.026 246.467 206.007 247.549 207.019C247.64 207.111 247.692 207.236 247.692 207.365C247.692 207.495 247.64 207.62 247.549 207.712C247.461 207.805 247.343 207.861 247.216 207.871Z" fill="#231F20"/>
<path d="M237.429 203.636H237.359L222.835 201.556C222.708 201.537 222.594 201.469 222.517 201.366C222.441 201.264 222.408 201.135 222.426 201.008C222.434 200.946 222.455 200.886 222.487 200.831C222.519 200.777 222.561 200.729 222.611 200.691C222.661 200.653 222.719 200.626 222.78 200.61C222.841 200.594 222.904 200.59 222.967 200.599L237.491 202.679C237.618 202.687 237.737 202.746 237.821 202.841C237.904 202.937 237.947 203.062 237.939 203.189C237.93 203.315 237.872 203.434 237.776 203.518C237.681 203.602 237.556 203.644 237.429 203.636Z" fill="#231F20"/>
<path d="M201.152 187.178C201.016 187.177 200.887 187.122 200.791 187.025L190.144 175.448C190.087 175.406 190.04 175.352 190.007 175.29C189.973 175.227 189.953 175.158 189.949 175.088C189.945 175.017 189.956 174.946 189.982 174.881C190.008 174.815 190.048 174.755 190.099 174.707C190.151 174.658 190.212 174.621 190.279 174.598C190.346 174.576 190.418 174.568 190.488 174.576C190.558 174.584 190.626 174.607 190.687 174.644C190.747 174.681 190.799 174.731 190.838 174.789L201.492 186.367C201.583 186.459 201.635 186.584 201.635 186.713C201.635 186.843 201.583 186.968 201.492 187.06C201.397 187.14 201.276 187.182 201.152 187.178Z" fill="#231F20"/>
<path d="M201.534 106.192L181.453 101.52L200.459 113.201C200.459 113.201 202.928 109.735 201.534 106.192Z" fill="white"/>
<path d="M200.458 113.693C200.37 113.694 200.284 113.67 200.209 113.624L181.196 101.908C181.102 101.846 181.032 101.753 180.998 101.644C180.965 101.536 180.971 101.42 181.015 101.315C181.058 101.211 181.137 101.125 181.237 101.072C181.338 101.02 181.453 101.004 181.564 101.028L201.638 105.7C201.714 105.716 201.786 105.751 201.845 105.802C201.904 105.853 201.95 105.918 201.978 105.991C203.462 109.742 200.986 113.312 200.882 113.464C200.838 113.537 200.775 113.596 200.701 113.636C200.627 113.676 200.543 113.696 200.458 113.693ZM184.214 102.671L200.299 112.549C200.833 111.614 202.005 109.132 201.138 106.608L184.214 102.671Z" fill="#231F20"/>
<path d="M200.458 113.201L181.425 115.461L198.378 116.217C198.378 116.217 200.008 116.466 200.458 113.201Z" fill="white"/>
<path d="M198.419 116.702H198.301L181.432 115.953C181.313 115.944 181.202 115.891 181.119 115.805C181.037 115.719 180.989 115.606 180.985 115.487C180.98 115.368 181.02 115.251 181.096 115.16C181.172 115.068 181.279 115.007 181.397 114.99L200.458 112.723C200.532 112.713 200.607 112.721 200.677 112.746C200.747 112.772 200.81 112.814 200.861 112.868C200.912 112.922 200.951 112.987 200.974 113.057C200.997 113.128 201.003 113.204 200.992 113.277C200.493 116.466 198.877 116.702 198.419 116.702ZM187.397 115.246L198.384 115.731C198.447 115.731 199.425 115.78 199.889 113.763L187.397 115.246Z" fill="#231F20"/>
<path d="M218.273 104.275C218.829 102.926 218.488 101.507 217.51 101.104C216.532 100.701 215.289 101.469 214.733 102.817C214.177 104.166 214.519 105.586 215.497 105.988C216.474 106.391 217.717 105.624 218.273 104.275Z" fill="#231F20"/>
<path d="M210.847 102.229C211.403 100.88 211.061 99.4607 210.083 99.0582C209.106 98.6557 207.862 99.4227 207.306 100.772C206.75 102.12 207.092 103.54 208.07 103.943C209.047 104.345 210.291 103.578 210.847 102.229Z" fill="#231F20"/>
<path d="M242.555 125.915C242.555 125.915 279.393 105.638 282.237 112.847C285.081 120.057 266.353 144.342 248.645 149.902" fill="white"/>
<path d="M248.645 150.38C248.524 150.39 248.405 150.353 248.31 150.278C248.216 150.203 248.153 150.095 248.134 149.976C248.116 149.857 248.143 149.735 248.211 149.635C248.279 149.535 248.381 149.465 248.499 149.437C261.172 145.465 275.176 131.302 280.302 120.57C281.876 117.27 282.383 114.594 281.786 113.028C281.686 112.79 281.533 112.577 281.34 112.406C281.147 112.234 280.918 112.108 280.669 112.036C273.56 109.478 243.096 126.172 242.77 126.338C242.715 126.369 242.654 126.388 242.591 126.395C242.529 126.402 242.465 126.397 242.405 126.38C242.283 126.344 242.179 126.262 242.118 126.151C242.056 126.04 242.041 125.909 242.076 125.786C242.111 125.664 242.194 125.561 242.305 125.499C243.574 124.806 273.449 108.418 280.975 111.128C281.354 111.243 281.703 111.442 281.996 111.709C282.289 111.977 282.518 112.307 282.667 112.674C283.395 114.518 282.868 117.395 281.155 120.993C275.939 131.912 261.678 146.318 248.77 150.366C248.729 150.376 248.687 150.38 248.645 150.38Z" fill="#231F20"/>
</g>
<defs>
<clipPath id="clip0_1_353">
<rect width="283" height="226" fill="white"/>
</clipPath>
</defs>
</svg>
