<svg width="595" height="340" viewBox="0 0 595 340" fill="none" xmlns="http://www.w3.org/2000/svg">
<g clip-path="url(#clip0_2_437)">
<path d="M279.052 85.2595V202.962C279.052 231.901 255.538 255.389 226.568 255.389H109.127L81.4552 295.229L73.9203 306.13V255.389H62.6179C35.0764 255.389 12.2118 234.107 10.2631 206.725C10.1332 205.427 10.1332 204.26 10.1332 202.962V85.2595C10.1332 56.3206 33.6474 32.832 62.488 32.832C62.488 32.832 62.488 32.832 62.6179 32.832H226.438C255.538 32.832 279.052 56.3206 279.052 85.2595Z" fill="white"/>
<path d="M226.568 32.8321C255.538 32.8321 279.052 56.3206 279.052 85.2595V202.962C279.052 231.901 255.538 255.389 226.568 255.389H109.127L81.4553 295.229L73.9203 306.13V255.389H62.6179C35.0765 255.389 12.2118 234.107 10.2631 206.725C10.1332 205.427 10.1332 204.26 10.1332 202.962V85.2595C10.1332 56.3206 33.6474 32.8321 62.488 32.8321C62.488 32.8321 62.488 32.8321 62.6179 32.8321H226.568ZM226.568 31.0153H62.6179C32.6081 31.0153 8.31445 55.2824 8.31445 85.2595V202.962C8.31445 204.26 8.31445 205.557 8.44437 206.855C10.523 235.145 34.1671 257.076 62.6179 257.076H72.1016V306C72.1016 306.779 72.6212 307.427 73.4007 307.687C73.5306 307.687 73.7904 307.817 73.9203 307.817C74.44 307.817 75.0896 307.557 75.3494 307.038L82.8843 296.137L110.036 257.076H226.438C256.448 257.076 280.741 232.809 280.741 202.832V85.2595C280.741 55.2824 256.448 31.0153 226.568 31.0153Z" fill="#231F20"/>
<path d="M592.532 115.886V233.588C592.532 261.229 570.966 284.198 543.425 285.885V336.756L540.307 332.214L510.557 289.389L508.218 286.015H376.097C347.127 286.015 323.612 262.527 323.612 233.588V115.886C323.612 86.9466 347.127 63.458 376.097 63.458H539.917C569.017 63.458 592.532 86.9466 592.532 115.886Z" fill="white"/>
<path d="M540.047 63.458C569.018 63.458 592.532 86.9466 592.532 115.885V233.588C592.532 261.229 570.966 284.198 543.425 285.885V336.756L540.307 332.214L510.557 289.389L508.218 286.015H376.097C347.127 286.015 323.612 262.527 323.612 233.588V115.885C323.612 86.9466 347.127 63.458 376.097 63.458H540.047ZM540.047 61.771H376.097C346.087 61.771 321.924 86.0382 321.794 116.015V233.588C321.794 263.565 346.087 287.702 376.097 287.832H507.179L508.998 290.427L538.748 333.252L541.866 337.794C542.256 338.313 542.775 338.573 543.295 338.573C543.425 338.573 543.685 338.573 543.814 338.443C544.594 338.183 545.114 337.534 545.114 336.756V287.573C572.915 284.847 594.221 261.489 594.221 233.588V115.885C594.221 86.0382 569.927 61.771 540.047 61.771Z" fill="#231F20"/>
<path d="M33.6474 93.4352L35.0764 72.9314C35.0764 72.9314 42.2216 52.8169 41.3122 50.0917C40.4029 47.3665 34.167 49.4428 31.0491 61.252C31.0491 61.252 25.9825 34.5191 23.5142 34C21.0459 33.481 18.7074 35.168 18.9673 39.0611C19.357 42.6947 20.0066 46.3283 20.786 49.8321C20.786 49.8321 17.2784 33.6107 14.1605 35.0382C11.0426 36.4657 14.1605 51.9085 14.1605 51.9085C14.1605 51.9085 10.9127 36.7252 8.44433 38.542C5.97599 40.3588 10.2631 54.7634 10.2631 54.7634C10.2631 54.7634 3.11792 36.3359 1.55896 41.397C1.29938e-05 46.4581 7.53495 64.626 7.79477 71.2443C8.0546 77.8626 8.96398 106.282 8.96398 106.282L33.6474 93.4352Z" fill="white"/>
<path d="M9.22385 107.45C9.09394 107.45 8.96403 107.45 8.83412 107.321C8.57429 107.191 8.44438 106.931 8.44438 106.542C8.44438 106.282 7.53499 77.9924 7.27516 71.5038C7.14525 68.7787 5.71621 63.9771 4.28717 58.916C2.07866 51.3893 0.129967 44.3817 1.03936 41.2672C1.42909 39.9695 2.20857 39.8397 2.59831 39.8397C4.02735 39.8397 5.71621 42.3054 7.40508 45.6794C6.88543 42.1756 6.88542 39.0611 8.18455 38.0229C8.57429 37.6336 9.22385 37.6336 9.61359 37.7634C10.523 38.1527 11.4324 39.4504 12.2118 41.2672C12.0819 37.8932 12.4717 35.0382 14.0306 34.2596C14.5503 34 15.1998 34 15.5896 34.2596C16.8887 35.168 17.7981 36.4657 18.3177 37.8931C18.3177 36.3359 18.9673 34.7786 20.1365 33.7405C21.1758 32.8321 22.6049 32.5725 24.0339 32.8321C26.2424 33.3512 29.2304 45.8092 31.5688 57.3588C33.9073 51 37.4149 48.0153 39.8832 48.0153C41.0525 47.8855 42.0918 48.6641 42.3516 49.7023C43.261 52.5573 37.4149 69.2977 36.1158 72.9313L34.4269 93.4351C34.4269 93.6947 34.297 93.9542 34.0372 94.2138L9.7435 107.45C9.61359 107.45 9.48368 107.45 9.22385 107.45ZM2.72822 41.6565V41.7863C1.94875 44.3817 4.02735 51.9084 5.97604 58.397C7.53499 63.5878 8.83412 68.5191 9.09394 71.3741C9.35377 77.084 10.1332 99.1451 10.2632 104.985L32.868 92.6565L34.297 72.8016C34.297 72.6718 34.297 72.6718 34.297 72.542C37.8046 62.8092 41.0525 51.7787 40.5328 50.3512C40.5328 50.2214 40.4029 49.8321 39.7533 49.9619C37.9346 49.9619 34.1671 53.2061 31.9586 61.5115C31.8287 61.9008 31.4389 62.1603 31.0492 62.1603C30.6594 62.1603 30.2697 61.9008 30.1398 61.3817C27.8014 49.1832 24.5535 35.8168 23.1245 34.7787C22.345 34.6489 21.5656 34.7786 21.0459 35.2977C20.1365 36.3359 19.6169 37.6336 19.8767 38.9313C20.1365 42.6947 21.6955 49.5725 21.6955 49.5725C21.8254 50.0916 21.4356 50.4809 21.0459 50.6107C20.6562 50.7405 20.1365 50.3512 20.0066 49.9619C18.4477 42.6947 15.8494 35.9466 14.6802 35.8168C13.2511 36.5954 13.7708 44.6412 15.1998 51.7786C15.3298 52.2977 14.94 52.687 14.4204 52.8168C13.9007 52.9466 13.511 52.5573 13.3811 52.168C11.952 45.8092 10.0033 40.229 8.96403 39.4504C8.05464 40.4886 9.09394 47.4962 11.1725 54.6336C11.3025 55.1527 11.0426 55.542 10.6529 55.6718C10.2632 55.8015 9.7435 55.542 9.48368 55.1527C7.27516 49.313 4.15726 42.6947 2.72822 41.6565Z" fill="#231F20"/>
<path d="M280.611 165.069C280.611 165.069 290.874 158.321 292.823 154.038C294.772 149.756 294.772 141.45 296.85 137.427C298.929 133.405 302.437 139.244 300.228 150.794C300.228 150.794 315.168 126.137 316.727 129.122C318.286 132.107 316.727 132.496 312.83 140.542C312.83 140.542 315.818 131.977 319.195 133.924C322.573 135.87 314.129 146.511 314.129 146.511C314.129 146.511 320.754 137.038 322.573 140.542C324.392 144.046 315.818 152.87 315.818 152.87C315.818 152.87 324.912 141.58 325.431 145.733C325.951 149.885 315.038 163.901 292.823 181.679" fill="white"/>
<path d="M292.823 182.458C292.563 182.458 292.304 182.328 292.174 182.198C291.914 181.809 291.914 181.42 292.304 181.16C315.038 162.992 325.042 149.366 324.652 145.992C324.652 145.863 324.652 145.863 324.652 145.733C324.132 145.733 322.183 147.29 319.975 149.626C318.936 151.053 317.766 152.351 316.467 153.649C316.078 153.908 315.688 153.908 315.298 153.519C315.038 153.26 315.038 152.87 315.298 152.611C316.078 151.572 317.377 150.015 318.806 148.588C321.014 145.733 322.703 142.618 321.924 141.191C321.794 140.801 321.534 140.801 321.404 140.801C320.105 140.672 317.896 143.008 316.078 145.343C315.428 146.252 314.778 147.031 314.649 147.29C314.389 147.679 313.869 147.679 313.609 147.42C313.219 147.16 313.219 146.641 313.479 146.382C313.739 145.992 314.259 145.343 314.908 144.435C317.117 141.321 319.455 137.298 319.066 135.481C319.066 135.221 318.936 135.092 318.676 134.962C318.416 134.702 318.026 134.702 317.637 134.832C316.987 135.221 316.337 135.74 315.948 136.389C315.298 137.687 314.519 139.114 313.479 141.191C313.349 141.58 312.83 141.71 312.44 141.58C312.05 141.45 311.92 140.931 312.05 140.542C312.7 138.725 313.609 137.038 314.649 135.481L314.908 135.092C316.467 132.237 316.857 131.588 316.078 130.03C313.999 131.069 306.854 141.58 300.878 151.572C300.618 151.962 300.228 152.092 299.968 151.832C299.579 151.702 299.449 151.313 299.449 150.924C301.138 142.229 299.319 137.687 298.28 137.298C298.02 137.168 297.76 137.687 297.5 138.076C296.461 140.672 295.811 143.397 295.551 146.252C295.292 149.107 294.512 151.962 293.603 154.687C291.524 159.099 281.521 165.718 281.001 166.107C280.611 166.366 280.222 166.237 279.962 165.847C279.702 165.458 279.832 164.939 280.222 164.809C280.352 164.809 290.355 158.061 292.174 154.168C293.083 151.572 293.733 148.977 293.992 146.252C294.252 143.267 295.032 140.412 296.071 137.687C297.11 135.74 298.28 136 298.799 136.13C300.748 136.779 302.177 141.191 301.527 147.679C306.204 140.153 313.869 128.603 316.337 128.603C316.727 128.603 317.117 128.863 317.377 129.252C318.156 130.55 318.286 132.107 317.637 133.405C318.286 133.275 318.936 133.405 319.585 133.794C320.235 134.183 320.624 134.702 320.754 135.481C320.884 137.168 320.365 138.725 319.585 140.153C320.235 139.763 320.884 139.504 321.664 139.504C322.443 139.504 323.093 140.023 323.483 140.672C324.002 142.229 323.872 143.916 323.093 145.214C323.742 144.695 324.522 144.435 325.301 144.565C325.951 144.824 326.471 145.473 326.471 146.122C326.99 150.794 315.688 165.198 293.473 182.718C293.213 182.328 292.953 182.458 292.823 182.458Z" fill="#231F20"/>
<path d="M100.293 25.6947C96.9149 33.6107 95.356 42.0458 94.3167 50.6107L98.4739 43.9924C95.8756 48.0153 97.0448 56.1909 97.3046 60.7328C97.6944 67.6107 98.9935 74.4886 101.072 80.9771C101.722 77.6031 102.631 74.3588 104.06 71.2443L109.516 84.6107C110.686 87.9847 112.375 91.229 114.453 94.2138C121.988 103.557 139.007 104.206 149.789 102C158.753 100.053 174.603 92.6565 172.784 80.7176L173.563 85.9084C179.669 75.916 181.748 64.1069 179.409 52.6871L187.334 63.3283C188.373 50.8703 185.645 38.2825 179.539 27.3817C173.433 16.4809 166.548 10.5115 155.635 4.28247C152.518 2.46567 147.581 1.55728 146.022 4.93132C138.357 -0.259517 127.964 -0.259521 119.65 3.89315C111.335 8.04582 105.099 15.4428 101.202 23.7481C100.812 24.5267 100.552 25.0458 100.293 25.6947Z" fill="white"/>
<path d="M138.487 104.076C128.873 104.076 118.87 101.481 113.544 94.8626C111.335 91.8779 109.646 88.6336 108.477 85.1298L103.93 73.71C103.021 76.1756 102.371 78.6413 101.852 81.2367C101.722 81.7558 101.332 82.0153 100.812 82.0153C100.423 82.0153 100.163 81.7558 100.163 81.3664C98.0842 74.7481 96.785 67.8703 96.3953 60.8626C96.3953 60.2138 96.2654 59.4352 96.2654 58.5268C96.0056 55.542 95.8756 52.5573 96.0056 49.5725L95.0962 51.1298C94.8363 51.5191 94.4466 51.6489 94.0569 51.5191C93.6671 51.3893 93.4073 51 93.5372 50.6107C94.4466 43.4733 95.8756 34.1298 99.6431 25.4352C99.9029 24.7863 100.163 24.2672 100.423 23.6183C104.71 14.2748 111.465 7.00766 119.26 3.24431C128.094 -1.03814 138.357 -0.778596 145.762 3.89316C146.282 3.11453 147.061 2.59545 147.971 2.33591C150.569 1.42752 153.947 2.59545 156.025 3.76339C167.847 10.3817 174.343 16.7405 180.319 27.1222C186.555 38.1527 189.283 50.8703 188.244 63.5878C188.244 63.9771 187.984 64.2367 187.594 64.3665C187.204 64.4962 186.815 64.3664 186.685 64.1069L180.968 56.4504C182.138 66.9619 179.799 77.6031 174.213 86.5573C174.083 86.8168 173.693 87.0764 173.304 86.9466C173.174 86.9466 173.174 86.9466 173.044 86.8168C170.056 95.5115 158.234 101.221 149.919 103.038C146.022 103.687 142.254 104.076 138.487 104.076ZM103.93 70.4657C104.32 70.4657 104.58 70.7252 104.71 70.9848L110.036 84.3512C111.205 87.7252 112.764 90.8397 114.843 93.6947C122.378 102.908 139.526 103.168 149.27 101.092C158.753 99.0153 173.174 91.7481 171.615 80.8474C171.485 80.3283 171.875 79.939 172.394 79.8092C172.914 79.6794 173.304 80.0687 173.434 80.5878L173.823 83.1833C178.89 73.9695 180.449 63.1985 178.37 52.8168C178.24 52.2977 178.63 51.9084 179.15 51.7787C179.539 51.7787 179.799 51.9084 180.059 52.168L186.555 60.8626C187.074 49.313 184.346 37.8932 178.63 27.9008C172.914 17.7787 166.548 11.6794 155.116 5.19087C153.167 4.1527 150.439 3.24431 148.49 3.89316C147.711 4.1527 147.061 4.67178 146.801 5.32064C146.671 5.58018 146.542 5.70995 146.282 5.83973C146.022 5.9695 145.762 5.83973 145.502 5.70996C138.487 0.908429 128.484 0.519112 120.039 4.67178C112.634 8.30537 106.139 15.1832 101.982 24.1374C101.722 24.6565 101.462 25.3054 101.202 25.8245C98.4739 32.4428 96.6551 39.4504 95.7457 46.5878L97.6944 43.4733C97.9542 43.084 98.6038 43.084 98.9935 43.3435C99.2534 43.6031 99.3833 43.9924 99.2534 44.3817C97.1748 47.626 97.6944 53.7252 98.0842 58.2672C98.0842 59.0458 98.2141 59.8245 98.2141 60.6031C98.4739 66.313 99.3833 71.8932 100.942 77.3436C101.462 75.1375 102.241 72.9313 103.151 70.855C103.281 70.7252 103.54 70.4657 103.93 70.4657Z" fill="#231F20"/>
<path d="M191.751 255.389H112.245C107.048 199.977 99.773 109.786 107.308 98.4962C108.867 96.2901 110.945 94.3436 113.284 93.0459C114.323 92.397 115.492 91.8779 116.662 91.4886C122.378 89.1527 129.523 88.1146 136.798 87.9848C142.644 87.855 148.36 88.2443 154.077 89.023H154.206C159.143 89.6718 163.95 90.71 168.627 92.2672C169.276 92.5268 169.796 92.7863 170.446 93.0459C177.201 96.4199 188.114 213.992 191.751 255.389Z" fill="white"/>
<path d="M213.057 255.389H109.127L103.021 264.214L81.5853 295.229C80.416 284.069 79.2468 273.557 78.2075 263.435C74.57 228.008 72.2315 199.458 71.0623 176.618C71.0623 176.489 71.0623 176.229 71.0623 176.099C69.1136 134.832 71.3222 112.122 78.4674 100.443C81.1955 96.0306 84.8331 92.397 89.1202 89.542C94.9663 85.7787 101.592 83.4428 108.477 82.5344C111.205 82.1451 113.934 81.8855 116.532 81.8855C118.221 81.8855 119.13 81.8855 119.13 81.8855C119.13 81.8855 124.976 81.626 133.291 81.4962H136.408C143.813 81.4962 152.647 81.626 160.962 82.2748C164.989 82.5344 169.016 83.0535 172.654 83.5725H172.914L174.473 83.8321C178.89 84.481 183.307 85.9084 187.334 87.855C188.893 88.7634 190.452 91.4886 192.011 95.3817C192.011 95.5115 192.141 95.5115 192.141 95.6412C193.57 99.6641 194.739 103.687 195.649 107.84C201.365 132.237 206.042 174.153 209.289 209.061C210.069 217.756 210.848 226.061 211.368 233.588C211.888 239.557 212.277 245.008 212.667 249.679C212.797 251.496 212.927 253.573 213.057 255.389Z" fill="#65E3FF"/>
<path d="M116.792 100.832L154.336 181.679L155.505 107.969L116.792 100.832Z" fill="white"/>
<path d="M154.336 182.588C153.947 182.588 153.687 182.328 153.557 182.069L116.012 101.221C115.882 100.962 115.882 100.573 116.142 100.313C116.272 100.053 116.662 99.9237 116.921 99.9237L155.635 106.931C156.025 107.061 156.415 107.321 156.415 107.84L155.246 181.679C155.246 182.069 154.986 182.458 154.596 182.588H154.336ZM118.351 102.13L153.557 177.786L154.596 108.748L118.351 102.13Z" fill="#231F20"/>
<path d="M153.947 84.4809L155.506 107.84C155.506 107.84 149.27 121.466 134.07 117.053C118.87 112.641 116.792 100.702 116.792 100.702C116.792 100.702 116.012 56.5802 116.012 55.542C116.012 54.2443 126.145 46.7176 127.574 44.9008C131.472 39.8397 134.46 34 136.149 27.9008L136.278 34.5191C140.566 31.145 143.943 26.6031 145.892 21.542C148.101 26.6031 153.557 29.3282 158.234 32.313C169.666 39.7099 171.095 58.916 168.627 71.374C166.288 83.313 153.947 84.4809 153.947 84.4809Z" fill="white"/>
<path d="M139.916 118.87C137.837 118.87 135.759 118.611 133.81 118.092C118.221 113.55 115.882 101.611 115.882 101.092C115.752 96.4199 115.103 56.7099 115.103 55.8015C115.103 54.8931 116.662 53.3359 122.118 48.7939C123.807 47.4962 125.366 46.0687 126.925 44.5115C130.822 39.5802 133.68 33.8702 135.239 27.771C135.369 27.2519 135.889 26.9924 136.408 27.1221C136.798 27.2519 137.058 27.5115 137.058 27.9008L137.188 32.7023C140.695 29.5878 143.424 25.5649 145.112 21.1527C145.242 20.6336 145.892 20.5038 146.282 20.6336C146.542 20.7634 146.671 20.8931 146.801 21.1527C148.62 25.1756 152.647 27.771 156.675 30.2367L158.753 31.5344C170.965 39.4504 171.874 59.8245 169.536 71.5038C167.457 82.0153 157.844 84.6107 154.856 85.1298L156.415 107.71C156.415 107.84 156.415 107.969 156.285 108.099C156.285 108.359 151.348 118.87 139.916 118.87ZM135.369 33.0916C133.68 37.5038 131.212 41.7863 128.354 45.5496C126.795 47.1069 125.106 48.6641 123.287 50.0916C120.819 52.0382 117.181 55.1527 116.921 55.9313C116.921 56.7099 117.441 85.6489 117.701 100.832C117.701 101.092 119.909 112.122 134.33 116.275C142.254 118.87 150.959 115.237 154.596 107.71L153.037 84.4809C153.037 83.9619 153.427 83.5725 153.817 83.5725C154.336 83.5725 165.509 82.2748 167.717 71.2443C169.926 59.9542 169.146 40.6183 157.714 33.0916C157.064 32.7023 156.415 32.1832 155.635 31.7939C151.998 29.458 148.23 27.1221 146.022 23.6183C143.943 28.1603 140.825 32.1832 136.798 35.2977C136.408 35.5573 135.889 35.5573 135.499 35.168C135.369 35.0382 135.369 34.7786 135.369 34.6489V33.0916Z" fill="#231F20"/>
<path d="M154.336 96.0306C148.49 96.4199 142.904 94.3436 138.747 90.1909C132.251 83.313 133.031 79.5497 133.031 79.5497C133.031 79.5497 143.683 86.0382 153.947 84.481L154.336 96.0306Z" fill="#231F20"/>
<path d="M153.037 96.939C147.451 96.939 142.124 94.7329 138.227 90.8397C131.602 83.8321 132.121 79.939 132.251 79.5496C132.251 79.2901 132.511 79.0306 132.771 78.9008C133.031 78.771 133.29 78.771 133.55 78.9008C133.68 78.9008 144.073 85.2596 153.817 83.7023C154.076 83.7023 154.336 83.7023 154.466 83.8321C154.596 83.9619 154.726 84.2214 154.726 84.481L155.116 96.0306C155.116 96.4199 154.856 96.8092 154.336 96.939C154.336 96.939 153.817 96.939 153.037 96.939ZM134.07 81.2367C134.46 82.7939 135.629 85.6489 139.396 89.6718C143.164 93.3054 148.23 95.3817 153.427 95.2519L153.037 85.5191C145.112 86.4275 137.188 82.7939 134.07 81.2367Z" fill="#231F20"/>
<path d="M151.608 46.3282C151.608 46.3282 158.234 60.084 155.895 62.0305C153.557 63.9771 148.23 61.6412 148.23 61.6412" fill="white"/>
<path d="M153.297 63.7176C151.478 63.5878 149.659 63.1985 147.971 62.5497C147.451 62.4199 147.191 61.9008 147.321 61.5115C147.451 60.9924 147.971 60.7329 148.36 60.8626C148.36 60.8626 148.49 60.8626 148.49 60.9924C149.789 61.5115 153.817 62.8092 155.376 61.5115C156.285 60.7329 154.206 53.7252 150.829 46.8474C150.569 46.4581 150.829 45.939 151.218 45.6794C151.608 45.4199 152.128 45.6794 152.388 46.0687C154.466 50.3512 159.013 60.7329 156.415 62.8092C155.635 63.458 154.466 63.7176 153.297 63.7176Z" fill="#231F20"/>
<path d="M144.47 43.7528C144.701 41.8314 144.194 40.191 143.339 40.0888C142.484 39.9867 141.605 41.4614 141.375 43.3828C141.144 45.3041 141.651 46.9445 142.506 47.0467C143.361 47.1489 144.24 45.6741 144.47 43.7528Z" fill="#231F20"/>
<path d="M162.175 45.2715C162.405 43.3502 161.899 41.7098 161.044 41.6076C160.189 41.5054 159.309 42.9802 159.079 44.9015C158.849 46.8229 159.355 48.4633 160.21 48.5655C161.065 48.6677 161.945 47.1929 162.175 45.2715Z" fill="#231F20"/>
<path d="M128.354 49.8321C127.055 47.4962 125.366 45.2901 123.417 43.4733C120.949 41.3969 117.181 41.397 114.713 43.6031C113.284 44.9008 112.245 46.458 111.725 48.4046C109.387 56.4504 114.063 61.9008 121.079 64.7557" fill="white"/>
<path d="M121.079 65.5344C120.949 65.5344 120.819 65.5344 120.689 65.4046C112.245 62.0306 108.607 55.6718 110.816 48.0153C111.335 45.939 112.504 44.1222 114.063 42.8245C116.921 40.3588 121.079 40.3588 123.937 42.8245C126.015 44.6413 127.834 46.8474 129.133 49.4428C129.393 49.8321 129.133 50.3512 128.743 50.6107C128.354 50.8703 127.834 50.6107 127.574 50.2214C126.405 47.8855 124.716 45.939 122.768 44.2519C120.559 42.4352 117.311 42.4351 115.233 44.3817C113.933 45.5496 113.024 46.9771 112.504 48.7939C109.776 58.2672 117.701 62.5497 121.338 63.9771C121.728 64.1069 121.988 64.626 121.858 65.1451C121.728 65.4046 121.338 65.5344 121.079 65.5344Z" fill="#231F20"/>
<path d="M150.829 76.1756C145.892 76.1756 144.463 70.5954 144.333 67.7405C144.333 67.4809 144.463 67.2214 144.593 67.0916C144.723 66.9618 144.983 66.8321 145.242 66.9618L157.974 68.9084C158.493 69.0382 158.753 69.4275 158.623 69.9466V70.0763C158.104 72.1527 155.635 76.1756 150.829 76.1756ZM146.152 68.7786C146.412 70.7252 147.321 74.4885 150.829 74.4885C153.427 74.3588 155.765 72.8015 156.675 70.3359L146.152 68.7786Z" fill="#231F20"/>
<path d="M192.011 95.1222C192.011 95.1222 229.816 174.412 236.311 175.97C247.614 178.695 288.406 155.725 288.406 155.725L301.917 179.473C301.917 179.473 260.085 233.069 230.335 225.412C208.25 219.702 185.775 169.351 185.775 169.351L192.011 95.1222Z" fill="#65E3FF"/>
<path d="M88.9902 89.542C88.9902 89.542 86.7817 81.1068 38.8439 148.977C38.8439 107.061 40.6627 86.9465 40.6627 86.9465L5.84609 91.6183C5.84609 91.6183 -9.22378 209.58 19.4869 213.603C48.1976 217.626 80.9356 161.695 80.9356 161.695L88.9902 89.542Z" fill="#65E3FF"/>
<path d="M17.1485 80.5878C16.6289 80.5878 16.2391 80.1985 16.2391 79.6794C16.2391 68.7786 30.1398 60.8626 30.7894 60.603C31.1791 60.3435 31.6987 60.4733 31.9586 60.9924C32.2184 61.3817 32.0885 61.9007 31.5688 62.1603C31.4389 62.2901 17.928 69.9466 17.928 79.8091C18.0579 80.0687 17.6682 80.458 17.1485 80.5878Z" fill="#231F20"/>
<path d="M212.667 250.328C212.147 250.328 211.758 249.939 211.758 249.55C208.64 199.588 194.869 108.878 194.739 107.969C194.609 107.45 194.999 107.061 195.519 106.931C196.038 106.802 196.428 107.191 196.558 107.71C196.688 108.618 210.329 199.458 213.577 249.55C213.577 249.809 213.187 250.198 212.667 250.328Z" fill="#231F20"/>
<path d="M45.4695 205.168C45.2096 205.168 44.9498 205.038 44.8199 204.908C44.4302 204.519 44.4302 204 44.8199 203.611C45.0797 203.351 72.2315 175.84 90.4192 149.886C90.6791 149.496 91.1987 149.366 91.5884 149.626C91.5884 149.626 91.5884 149.626 91.7184 149.626C92.1081 149.886 92.238 150.534 91.9782 150.924C73.6605 177.008 46.5088 204.649 46.2489 204.908C45.9891 205.038 45.7293 205.168 45.4695 205.168Z" fill="#231F20"/>
<path d="M300.228 163.252C300.098 163.252 299.968 163.252 299.968 163.122C299.579 162.992 299.449 162.473 299.579 162.084C301.787 156.893 299.579 151.053 299.579 151.053C299.449 150.664 299.579 150.145 299.968 150.015C300.358 149.886 300.878 150.015 301.008 150.405C301.138 150.664 303.476 156.893 301.008 162.603C300.878 162.992 300.618 163.252 300.228 163.252Z" fill="#231F20"/>
<path d="M117.571 181.16C117.181 181.16 110.556 180.252 105.359 171.687C100.163 163.122 102.111 145.343 102.241 144.565C102.241 144.176 102.631 143.786 103.151 143.786L128.224 144.305C128.614 144.305 129.003 144.565 129.133 145.084C129.263 145.733 131.732 161.046 129.133 168.313C126.535 175.58 118.48 181.031 118.221 181.29C117.961 181.16 117.831 181.16 117.571 181.16ZM103.93 145.473C103.67 149.107 102.631 163.641 106.918 170.649C111.205 177.656 116.142 178.954 117.441 179.214C118.87 178.176 125.236 173.374 127.444 167.405C129.653 161.435 127.964 148.977 127.574 145.863L103.93 145.473Z" fill="#231F20"/>
<path d="M508.608 65.7939C508.608 65.7939 520.43 40.7481 539.267 58.5267C554.727 73.0611 531.083 108.489 547.322 114.069C547.322 114.069 532.252 111.603 528.225 99.2748C524.198 86.9466 525.367 83.4427 525.367 83.4427C525.367 83.4427 517.572 88.1145 510.167 84.0916C502.762 80.0687 508.608 65.7939 508.608 65.7939Z" fill="white"/>
<path d="M547.452 114.847H547.322C546.672 114.718 531.733 112.122 527.705 99.5343C524.977 91.3588 524.587 86.8168 524.587 84.7404C521.989 85.9084 515.883 87.9847 509.907 84.7404C502.112 80.3282 507.569 66.0534 507.829 65.4046C508.088 64.8855 513.545 53.4656 523.288 51.5191C528.615 50.4809 534.201 52.5572 539.657 57.7481C547.842 65.4046 545.633 78.5114 543.555 89.9313C541.606 100.962 540.047 110.565 547.452 113.16C547.842 113.29 548.101 113.809 547.972 114.198C548.101 114.718 547.842 114.847 547.452 114.847ZM525.497 82.6641C525.627 82.6641 525.886 82.6641 526.016 82.7939C526.276 83.0534 526.406 83.313 526.276 83.7023C526.276 83.7023 525.367 87.4656 529.134 99.145C531.603 106.542 538.358 110.305 543.035 111.992C539.267 107.321 540.696 98.7557 542.255 89.9313C544.204 78.771 546.283 66.1832 538.748 59.0458C533.551 54.2443 528.485 52.2977 523.678 53.2061C514.844 54.8931 509.647 65.5343 509.388 66.1832C509.128 66.832 504.191 79.9389 510.687 83.4427C517.572 87.2061 524.977 82.9237 525.107 82.7939C525.237 82.6641 525.367 82.6641 525.497 82.6641Z" fill="#231F20"/>
<path d="M523.548 80.5877C523.288 82.6641 521.729 84.2213 519.781 84.7404C517.052 85.3893 513.415 83.832 511.076 81.7557C508.998 79.8091 507.309 77.3435 506.27 74.6183C504.321 70.206 497.825 53.7251 509.517 58.5267C519.781 62.8091 525.237 73.7099 523.548 80.5877Z" fill="#231F20"/>
<path d="M518.481 85.6488C515.493 85.519 512.765 84.3511 510.557 82.2747C508.348 80.1984 506.659 77.7328 505.62 74.8778C504.191 71.7633 499.904 61.3816 503.152 58.0076C504.451 56.5801 506.789 56.5801 509.777 57.8778C520.17 62.1603 526.016 73.4503 524.198 80.7175C523.808 83.0534 522.119 84.8702 519.91 85.3893C519.521 85.6488 519.001 85.6488 518.481 85.6488ZM506.01 58.5267C505.36 58.5267 504.711 58.6564 504.321 59.1755C502.372 61.2519 504.321 68.519 507.049 74.4885C508.088 77.0839 509.647 79.4198 511.596 81.3664C513.675 83.1831 517.052 84.7404 519.651 84.2213C521.339 83.7022 522.639 82.2748 522.898 80.5877C524.457 73.9694 519.001 63.4579 509.387 59.5648C508.218 58.916 507.179 58.6564 506.01 58.5267Z" fill="#231F20"/>
<path d="M463.139 61.5114C463.139 61.5114 451.317 36.4656 432.479 54.2442C416.89 68.7786 440.664 104.206 424.425 109.786C424.425 109.786 439.495 107.321 443.522 94.9923C447.549 82.6641 446.38 79.0305 446.38 79.0305C446.38 79.0305 454.175 83.7022 461.58 79.6793C468.985 75.6564 463.139 61.5114 463.139 61.5114Z" fill="white"/>
<path d="M424.425 110.565C424.035 110.565 423.645 110.176 423.645 109.786C423.645 109.397 423.905 109.137 424.165 109.008C431.57 106.412 429.881 96.9389 428.062 85.7786C426.113 74.229 423.905 61.1221 431.96 53.4656C437.546 48.2748 443.002 46.1984 448.329 47.2366C458.072 49.0534 463.658 60.603 463.788 61.1221C464.048 61.771 469.634 76.0458 461.71 80.458C455.863 83.7023 449.758 81.6259 447.029 80.458C447.029 82.5343 446.64 87.0763 443.912 95.2519C440.014 107.84 425.074 110.435 424.425 110.565ZM445.73 48.6641C441.573 48.6641 437.286 50.7404 432.999 54.7633C425.464 61.7709 427.672 74.4885 429.491 85.6488C431.05 94.603 432.479 103.038 428.712 107.71C433.259 106.023 440.144 102.26 442.612 94.8626C446.51 83.1832 445.47 79.4198 445.47 79.4198C445.341 79.0305 445.6 78.5114 445.99 78.3816C446.25 78.2519 446.51 78.3816 446.64 78.5114C446.64 78.5114 454.175 82.9236 461.06 79.1603C467.556 75.5267 462.619 62.5496 462.359 61.9007C462.099 61.2519 456.773 50.6106 447.939 48.9236C447.289 48.6641 446.51 48.6641 445.73 48.6641Z" fill="#231F20"/>
<path d="M448.199 76.435C448.458 78.5114 450.017 80.0686 451.966 80.5877C454.694 81.2366 458.332 79.6793 460.67 77.603C462.749 75.6564 464.438 73.1908 465.477 70.4656C467.426 66.0534 473.921 49.5724 462.229 54.374C451.966 58.6564 446.64 69.5572 448.199 76.435Z" fill="#231F20"/>
<path d="M453.265 81.4962C452.746 81.4962 452.226 81.4962 451.836 81.3664C449.628 80.8473 447.809 78.9007 447.549 76.5649C445.86 69.2977 451.576 58.0076 461.969 53.7252C465.087 52.4274 467.296 52.5572 468.595 53.8549C471.843 57.229 467.556 67.6107 466.127 70.7252C464.957 73.4504 463.268 76.0458 461.19 78.1221C458.981 80.0687 456.253 81.2366 453.265 81.4962ZM465.867 54.374C464.698 54.5038 463.658 54.7633 462.619 55.1526C452.875 59.1755 447.549 69.5572 449.108 76.1755C449.368 77.8626 450.537 79.29 452.356 79.8091C454.954 80.3282 458.332 78.771 460.41 76.9542C462.359 75.0076 463.918 72.6717 464.957 70.0763C467.685 64.1068 469.634 56.8397 467.686 54.8931C467.036 54.5038 466.386 54.2442 465.867 54.374Z" fill="#231F20"/>
<path d="M469.115 52.2976C459.631 57.0992 451.446 63.4579 450.537 77.4732C449.628 92.1373 448.848 110.046 460.93 119.259C473.012 128.214 489.251 129.641 502.632 122.763C515.883 115.496 523.938 101.481 523.548 86.4274C522.509 55.6717 491.2 41.1373 469.115 52.2976Z" fill="white"/>
<path d="M484.574 127.954C475.87 128.084 467.296 125.229 460.411 120.038C447.679 110.305 448.848 91.3587 449.758 77.4732C450.667 62.6793 459.891 56.1908 468.725 51.6488C480.417 45.9389 494.188 46.5878 505.23 53.3358C516.923 60.2137 523.808 72.2824 524.328 86.4274C524.717 101.74 516.403 116.145 502.892 123.542C497.306 126.397 490.94 127.954 484.574 127.954ZM468.985 52.2977L469.374 52.9465C460.411 57.4885 452.096 63.5877 451.187 77.4732C450.407 90.9694 449.238 109.397 461.19 118.611C473.012 127.435 488.861 128.733 502.112 121.985C515.104 114.847 523.028 101.092 522.639 86.4274C522.249 72.8015 515.494 61.2519 504.321 54.6336C493.668 48.145 480.417 47.6259 469.245 53.0763L468.985 52.2977Z" fill="#231F20"/>
<path d="M374.278 144.954C373.629 135.481 371.55 126.267 367.783 117.573C367.263 116.275 365.964 114.718 364.665 115.366C365.444 119.389 366.094 123.412 366.873 127.305C359.468 122.374 353.103 116.145 348.036 108.878C347.646 108.099 346.997 107.45 346.217 107.061C345.438 106.672 344.398 106.931 344.009 107.71C343.879 108.359 344.009 109.137 344.398 109.786C346.607 113.679 349.075 117.443 351.933 120.817C348.296 115.366 344.398 109.786 338.682 106.672C339.332 112.901 341.67 118.87 345.438 123.931L336.214 113.679C335.434 112.771 334.005 111.733 332.966 112.511C331.927 113.29 332.706 114.847 333.356 115.886L339.722 125.359C336.474 122.504 333.096 119.779 329.588 117.313C330.238 123.153 334.655 127.824 339.332 131.198C344.009 134.573 349.335 137.298 353.232 141.71C355.571 144.565 357.52 147.679 359.208 150.924" fill="white"/>
<path d="M359.338 151.832C359.079 151.832 358.819 151.702 358.689 151.443C357.13 148.198 355.181 145.214 352.843 142.359C349.985 139.504 346.867 136.908 343.359 134.832C341.93 133.924 340.501 132.885 339.072 131.977C332.836 127.565 329.458 122.634 328.939 117.572C328.939 117.313 329.069 116.924 329.329 116.794C329.588 116.664 329.978 116.664 330.238 116.794C332.187 118.221 334.265 119.779 336.084 121.336L332.836 116.405C331.537 114.588 331.537 112.901 332.706 111.992C333.876 111.084 335.434 111.603 336.993 113.16L340.761 117.443C339.202 114.069 338.293 110.435 337.903 106.801C337.903 106.542 338.033 106.282 338.293 106.023C338.552 105.893 338.812 105.893 339.072 106.023C340.501 106.801 341.93 107.84 343.229 108.878C343.099 108.359 343.099 107.969 343.359 107.45C343.619 106.931 344.009 106.542 344.528 106.282C345.178 106.023 345.957 106.023 346.607 106.412C347.516 106.931 348.166 107.58 348.686 108.489C353.362 115.107 359.208 120.947 365.834 125.618C365.184 122.244 364.535 118.87 364.015 115.496C364.015 115.107 364.145 114.847 364.405 114.718C364.925 114.458 365.574 114.328 366.094 114.588C367.263 115.107 368.043 116.145 368.562 117.313C372.33 126.137 374.538 135.351 375.058 144.954C375.058 145.343 374.798 145.733 374.278 145.733C373.889 145.733 373.499 145.473 373.499 144.954C372.979 135.611 370.771 126.527 367.133 117.832C366.873 117.053 366.354 116.534 365.704 116.015C366.354 119.779 367.003 123.412 367.783 127.176C367.913 127.565 367.523 127.954 367.133 128.084C366.873 128.084 366.743 128.084 366.614 127.954C359.079 123.023 352.583 116.664 347.386 109.397C346.997 108.748 346.477 108.229 345.827 107.84C345.568 107.71 345.178 107.71 344.918 107.84C344.788 107.84 344.658 107.969 344.658 108.099C344.528 108.359 344.788 109.008 345.048 109.397C345.698 110.695 346.477 111.863 347.256 113.031C349.205 115.366 351.024 117.962 352.583 120.298C352.843 120.687 352.713 121.206 352.453 121.466C352.063 121.725 351.544 121.595 351.284 121.336C349.335 119 347.516 116.534 345.957 114.069C344.139 111.863 341.93 109.786 339.592 108.229C340.371 113.809 342.71 119 346.087 123.542C346.347 123.931 346.347 124.321 345.957 124.58C345.568 124.84 345.178 124.84 344.918 124.45L335.694 114.069C335.045 113.42 334.135 112.641 333.616 113.031C333.096 113.42 333.616 114.458 334.135 115.237L340.501 124.71C340.761 125.099 340.631 125.489 340.371 125.748C340.111 126.008 339.592 126.008 339.332 125.748C336.604 123.412 333.746 121.076 330.888 118.87C331.927 122.893 335.045 126.656 339.981 130.29C341.41 131.328 342.839 132.237 344.269 133.145C351.284 136.908 356.87 143.008 360.118 150.275C360.378 150.664 360.248 151.183 359.858 151.313C359.598 151.702 359.468 151.832 359.338 151.832Z" fill="#231F20"/>
<path d="M434.298 144.046C428.062 149.885 414.032 171.947 401.3 194.916L374.928 139.634L353.492 145.992C353.492 145.992 372.849 248.252 392.076 252.405C411.303 256.557 437.286 211.008 437.286 211.008L466.516 130.679C466.516 130.809 443.652 135.351 434.298 144.046Z" fill="#65E3FF"/>
<path d="M507.829 262.008C508.868 273.557 509.777 283.42 510.427 289.389L508.088 286.015H437.936C436.117 270.183 433.389 242.282 432.609 218.534C432.219 204.779 432.479 192.58 434.038 184.664C437.806 165.847 452.096 152.221 461.19 145.473C463.918 143.397 466.257 141.84 467.556 141.061L468.595 140.412C469.504 139.374 470.544 138.466 471.713 137.557C480.937 130.55 492.239 134.572 500.034 137.817L501.073 138.206C502.502 138.855 503.801 139.374 504.971 139.893C505.49 140.153 506.01 140.282 506.4 140.412C513.155 142.618 513.415 148.847 506.4 171.038C503.412 180.382 503.801 203.74 505.23 227.618C506.01 239.427 506.919 251.496 507.829 262.008Z" fill="white"/>
<path d="M469.634 137.038C469.374 138.206 469.115 139.374 468.725 140.412C468.335 141.45 467.945 142.618 467.426 143.916C467.166 144.435 467.036 144.954 466.776 145.343C462.879 163.252 459.241 204.13 458.202 218.275C457.942 222.817 457.163 230.214 456.253 240.076C456.123 242.023 455.863 243.969 455.734 246.046C455.734 246.175 455.734 246.175 455.734 246.305C455.474 248.511 455.344 250.717 455.084 253.053C455.084 253.183 455.084 253.313 455.084 253.443C454.954 255.13 454.824 256.817 454.694 258.633C454.564 260.191 454.434 261.618 454.305 263.175C453.655 270.183 453.135 277.84 452.616 285.885H420.397C421.696 272.779 423.126 259.282 424.295 246.565C424.944 240.206 425.594 234.107 426.113 228.137C428.972 199.328 431.31 176.099 432.609 169.481C433.129 166.885 433.778 164.42 434.428 162.084C439.365 145.084 447.939 137.298 455.344 133.664C455.863 133.404 456.513 133.145 457.033 132.885C460.021 131.717 463.139 130.939 466.256 130.809H466.516C467.296 130.809 468.075 130.809 468.465 130.809H468.595C468.855 130.809 469.115 130.809 469.504 130.939C469.764 131.588 470.024 132.366 469.894 133.145C470.024 134.572 469.894 135.74 469.634 137.038Z" fill="#65E3FF"/>
<path d="M469.374 122.374L467.296 144.176C467.296 144.176 468.465 156.504 481.976 154.038C490.16 152.481 497.046 147.29 500.943 139.893L502.762 102C502.892 100.443 500.813 95.3817 502.372 81.4962C486.263 79.8091 474.571 66.5725 474.571 66.5725C474.571 66.5725 468.335 74.3588 465.607 76.8244C463.528 78.6412 461.58 80.7175 460.021 82.9236C457.422 86.9465 457.033 92.1374 456.773 96.8092C456.383 102.389 456.383 107.84 456.903 113.42C458.332 123.931 469.374 122.374 469.374 122.374Z" fill="white"/>
<path d="M478.468 155.206C475.87 155.336 473.272 154.557 471.193 153C468.595 150.794 466.906 147.679 466.516 144.305L468.465 123.282C465.477 123.412 462.619 122.633 460.151 120.946C457.942 119.13 456.513 116.534 456.253 113.55C455.734 107.969 455.604 102.389 456.123 96.8091C456.383 92.3968 456.773 86.6869 459.501 82.5343C461.06 80.1984 463.009 78.122 465.217 76.3052C467.815 73.9694 474.051 66.1831 474.051 66.1831C474.311 65.7938 474.831 65.7938 475.22 66.0533C475.22 66.0533 475.22 66.0533 475.35 66.1831C475.48 66.3129 487.042 79.29 502.632 80.8472C502.892 80.8472 503.022 80.977 503.152 81.1068C503.282 81.2365 503.282 81.4961 503.282 81.6258C502.112 92.1373 503.022 97.5877 503.411 100.053C503.541 100.702 503.671 101.351 503.671 102C503.671 102 503.671 102.649 501.853 139.893C501.853 140.023 501.853 140.153 501.853 140.153C497.825 147.679 490.68 153 482.236 154.687C481.067 155.076 479.767 155.206 478.468 155.206ZM468.075 144.305C468.465 147.16 470.024 149.885 472.232 151.702C474.701 153.519 477.949 154.038 481.976 153.259C489.771 151.702 496.526 146.771 500.294 139.763C500.424 137.038 502.112 102.259 502.112 102C502.112 101.481 501.982 100.962 501.982 100.443C501.073 94.4732 500.943 88.3739 501.723 82.2747C487.822 80.4579 477.559 70.5953 474.831 67.8701C473.272 69.8167 468.595 75.5266 466.386 77.4732C464.308 79.29 462.489 81.2365 460.93 83.4426C458.462 87.3358 458.072 92.3968 457.812 96.9388C457.422 102.389 457.422 107.969 457.942 113.42C458.072 115.885 459.241 118.091 461.19 119.649C464.568 122.244 469.244 121.595 469.244 121.595C469.504 121.595 469.764 121.595 469.894 121.855C470.024 121.985 470.154 122.244 470.154 122.504L468.075 144.305Z" fill="#231F20"/>
<path d="M468.465 133.145C468.465 133.145 477.299 134.313 483.535 128.863C489.771 123.412 489.381 117.443 489.381 117.443C489.381 117.443 479.248 123.023 469.245 122.374L468.465 133.145Z" fill="#231F20"/>
<path d="M470.673 133.924C469.894 133.924 469.115 133.924 468.465 133.794C468.075 133.794 467.815 133.405 467.815 133.015L468.595 122.244C468.595 121.855 468.985 121.466 469.374 121.595C478.988 122.244 488.991 116.794 489.121 116.794C489.381 116.664 489.641 116.664 489.901 116.794C490.16 116.924 490.29 117.183 490.29 117.443C490.29 117.702 490.55 123.931 484.184 129.511C480.287 132.496 475.48 134.053 470.673 133.924ZM469.374 132.366C471.583 132.496 478.208 132.496 483.145 128.214C486.133 125.748 488.082 122.374 488.731 118.611C485.873 120.038 478.079 123.282 470.154 123.023L469.374 132.366Z" fill="#231F20"/>
<path d="M479.767 91.748C479.767 91.748 471.843 101.611 473.272 103.557C474.701 105.504 479.508 104.725 479.508 104.725" fill="white"/>
<path d="M477.559 105.634C475.87 105.634 473.791 105.374 472.752 103.947C471.063 101.74 476.65 94.3435 479.248 91.229C479.508 90.9695 480.027 90.8397 480.287 91.0992C480.547 91.3588 480.677 91.8779 480.417 92.1374C476.52 97.0687 473.402 102.26 474.051 103.038C475.091 104.336 478.468 104.076 479.638 103.947C480.027 103.947 480.417 104.206 480.417 104.595C480.417 104.985 480.157 105.374 479.897 105.374C479.118 105.634 478.338 105.634 477.559 105.634Z" fill="#231F20"/>
<path d="M466.741 88.8262C466.905 87.5465 466.518 86.4429 465.877 86.3613C465.237 86.2797 464.585 87.251 464.421 88.5307C464.258 89.8105 464.645 90.914 465.285 90.9956C465.926 91.0772 466.578 90.106 466.741 88.8262Z" fill="#231F20"/>
<path d="M486.798 88.8241C486.961 87.5444 486.574 86.4408 485.934 86.3592C485.293 86.2776 484.641 87.2489 484.478 88.5287C484.315 89.8084 484.701 90.912 485.342 90.9936C485.983 91.0752 486.634 90.1039 486.798 88.8241Z" fill="#231F20"/>
<path d="M473.402 109.786L479.118 108.878C479.118 108.878 479.508 117.183 476.39 117.572C473.272 117.962 473.402 109.786 473.402 109.786Z" fill="white"/>
<path d="M476.13 118.221C475.48 118.221 474.961 117.962 474.571 117.572C472.622 115.756 472.622 110.305 472.752 109.656C472.752 109.267 473.012 109.008 473.402 108.878L479.118 107.969C479.378 107.969 479.508 107.969 479.767 108.099C479.897 108.229 480.027 108.488 480.027 108.618C480.027 109.527 480.417 117.572 476.65 118.092L476.13 118.221ZM474.181 110.435C474.181 112.511 474.571 115.626 475.48 116.534C475.61 116.664 475.87 116.794 476.13 116.794C477.819 116.534 478.338 112.382 478.209 109.786L474.181 110.435Z" fill="#231F20"/>
<path d="M496.526 90.1908C498.345 86.4274 503.282 85.519 506.919 86.5572C509.387 87.206 511.206 89.2824 511.596 91.748C511.726 93.3053 511.596 94.8625 511.206 96.29C510.557 99.0152 509.387 101.611 507.829 103.947C507.049 105.114 506.01 106.153 504.841 106.801C503.282 107.58 501.333 107.321 500.034 106.023" fill="white"/>
<path d="M503.022 108.099C501.723 108.099 500.424 107.58 499.514 106.672C499.124 106.412 499.124 105.893 499.384 105.634C499.644 105.244 500.164 105.244 500.553 105.504C501.593 106.542 503.152 106.801 504.581 106.153C505.62 105.504 506.659 104.595 507.309 103.427C508.868 101.221 510.037 98.6259 510.557 96.0305C510.946 94.603 511.076 93.1755 510.946 91.748C510.687 89.5419 508.998 87.7251 506.789 87.206C503.412 86.1679 498.865 87.0763 497.306 90.4503C497.176 90.8396 496.656 90.9694 496.266 90.8396C495.877 90.7099 495.747 90.1908 495.877 89.8015C497.825 85.7786 503.152 84.6106 507.309 85.7786C510.037 86.4274 512.116 88.7633 512.505 91.6183C512.635 93.1755 512.635 94.8625 512.116 96.4198C511.466 99.2748 510.297 102 508.608 104.336C507.829 105.634 506.659 106.801 505.36 107.45C504.581 107.969 503.801 108.099 503.022 108.099Z" fill="#231F20"/>
<path d="M540.177 332.214L513.415 293.672L510.427 289.389L508.088 286.015H477.039C478.079 277.58 479.118 269.145 480.287 260.71C480.937 256.168 481.586 251.626 482.236 247.084C482.755 243.191 483.405 239.427 483.925 235.664C484.184 234.107 484.444 232.42 484.574 230.863C490.42 192.321 496.396 158.321 499.124 142.878C499.254 141.84 499.514 141.061 499.644 140.153C499.774 139.244 499.904 138.466 500.034 137.687C500.553 135.221 500.813 133.924 500.813 133.924L501.333 134.053C506.27 135.221 511.076 136.649 515.883 138.336C523.158 140.931 530.433 144.435 531.733 148.588C536.279 162.863 535.5 223.725 536.409 259.931C536.539 268.366 536.799 275.504 537.319 280.305C537.579 283.679 538.098 287.443 538.618 293.672C539.267 301.328 539.917 312.878 540.177 332.214Z" fill="#65E3FF"/>
<path d="M495.227 239.298C488.602 238.13 482.496 235.145 476.39 232.42C473.921 231.382 471.323 230.473 468.725 229.565C465.737 228.657 462.749 226.84 459.501 226.71C457.552 226.71 458.072 229.435 458.722 230.603C459.501 231.511 460.41 232.29 461.45 232.939C463.398 234.237 467.296 236.573 468.075 238.908C465.607 239.557 463.009 239.298 460.41 239.557C457.682 239.817 454.954 240.206 452.226 240.855C449.498 241.504 446.9 242.023 444.301 242.672C442.093 243.321 439.495 243.45 437.416 244.489C436.896 244.748 436.377 245.137 436.247 245.786C436.117 247.863 440.794 247.603 441.963 247.473L463.269 245.137C455.864 245.786 448.458 247.214 441.183 249.16C440.534 249.29 439.884 249.679 439.365 250.198C437.546 252.924 445.211 253.053 445.99 253.053C449.888 253.183 453.785 253.053 457.812 252.794L448.199 254.351C446.12 254.74 443.912 255 441.833 255.649C440.664 255.908 439.624 256.428 438.715 257.206C438.585 257.336 438.455 257.466 438.455 257.595C438.455 257.855 438.715 257.985 438.845 258.115C440.664 258.893 442.612 259.153 444.561 259.153C448.588 259.282 452.486 259.023 456.513 258.374L444.691 259.672C443.652 259.672 442.612 260.061 441.833 260.71C441.703 261.359 441.963 262.137 442.483 262.527C443.132 262.916 443.782 263.046 444.431 263.176C448.848 263.695 453.135 263.176 457.552 263.176C462.359 263.176 467.036 262.916 471.713 262.267C481.067 261.099 490.16 258.374 498.605 254.221" fill="white"/>
<path d="M449.368 264.084C447.809 264.084 446.25 263.954 444.691 263.824C443.912 263.824 443.002 263.565 442.353 263.046C441.443 262.397 441.054 261.359 441.313 260.321C441.313 260.191 441.443 260.191 441.443 260.061C441.573 259.931 441.703 259.802 441.963 259.672C440.924 259.542 439.884 259.282 438.845 258.763C438.325 258.634 437.936 258.114 437.936 257.595C437.936 257.206 438.066 256.817 438.325 256.557C439.365 255.649 440.534 255 441.833 254.87C443.392 254.481 445.081 254.221 446.64 253.832H446.25C441.963 253.702 439.495 253.053 438.715 251.756C438.325 251.107 438.455 250.328 438.845 249.809C439.365 249.16 440.144 248.641 441.054 248.511L442.223 248.252C441.443 248.382 437.676 248.641 436.247 247.214C435.857 246.824 435.597 246.305 435.597 245.656C435.727 244.748 436.377 244.099 437.156 243.71C438.585 243.061 440.144 242.672 441.703 242.412C442.483 242.282 443.262 242.023 444.041 241.893C446.64 241.114 449.368 240.466 451.966 239.947C454.564 239.427 457.423 239.038 460.151 238.649C461.19 238.519 462.099 238.519 463.139 238.519C464.308 238.519 465.607 238.389 466.776 238.26C465.347 236.572 463.658 235.145 461.71 234.107L460.54 233.328C459.501 232.679 458.592 231.901 457.812 230.992C457.033 229.824 456.773 228.267 457.293 226.969C457.682 226.321 458.462 225.802 459.241 225.931C461.45 226.061 463.658 226.71 465.737 227.748C466.776 228.137 467.686 228.527 468.595 228.916C471.193 229.695 473.792 230.733 476.26 231.771C477.429 232.29 478.598 232.809 479.638 233.198C484.574 235.275 489.641 237.611 494.967 238.519C495.357 238.649 495.747 239.038 495.617 239.427C495.487 239.817 495.097 240.076 494.707 240.076C489.251 239.168 484.055 236.832 479.118 234.626L475.74 233.198C473.272 232.16 470.804 231.252 468.205 230.473C467.166 230.214 466.127 229.695 465.087 229.305C463.269 228.397 461.19 227.878 459.111 227.618C458.722 227.618 458.722 227.748 458.592 227.878C458.332 228.656 458.462 229.565 458.981 230.214C459.631 230.992 460.411 231.641 461.32 232.16L462.489 232.939C464.698 234.496 467.816 236.572 468.465 238.779C468.595 239.168 468.335 239.557 467.945 239.687C466.257 240.076 464.698 240.206 463.009 240.206C462.099 240.206 461.06 240.206 460.281 240.336C457.552 240.595 454.824 240.985 452.226 241.634C449.628 242.282 447.03 242.802 444.431 243.45C443.652 243.71 442.742 243.84 441.963 244.099C440.534 244.359 439.105 244.748 437.676 245.267C437.156 245.527 437.026 245.786 437.026 245.786C437.026 245.916 437.026 246.046 437.156 246.046C437.806 246.695 440.014 246.824 441.833 246.565L463.009 244.489H463.139C463.528 244.489 463.918 244.748 464.048 245.137C464.048 245.527 463.788 245.916 463.399 246.046C455.993 246.695 448.718 248.122 441.443 249.939C440.924 250.069 440.534 250.198 440.144 250.588C440.014 250.718 440.014 250.847 440.014 250.977C440.274 251.496 442.353 252.145 446.12 252.275C449.888 252.405 453.915 252.275 457.812 252.015C458.202 252.015 458.592 252.275 458.592 252.664C458.592 253.053 458.332 253.443 457.942 253.572L448.329 255.13C446.25 255.519 444.042 255.779 441.963 256.427C441.054 256.557 440.274 256.947 439.495 257.466C441.183 257.985 442.872 258.374 444.561 258.244C446.38 258.244 448.329 258.244 450.147 258.114L456.383 257.466C456.773 257.466 457.163 257.725 457.293 258.114C457.293 258.504 457.033 258.893 456.643 259.023C454.564 259.282 452.486 259.542 450.277 259.672L444.691 260.321C443.912 260.321 443.132 260.58 442.483 260.969C442.483 261.229 442.612 261.618 443.002 261.748C443.522 262.008 444.041 262.137 444.691 262.267C447.549 262.527 450.407 262.656 453.265 262.397C454.694 262.397 456.123 262.267 457.682 262.267H457.942C462.489 262.267 467.166 262.008 471.713 261.359C480.937 260.191 489.901 257.466 498.215 253.443C498.605 253.183 498.995 253.443 499.254 253.702C499.514 254.092 499.254 254.611 498.865 254.74C490.42 258.893 481.197 261.618 471.843 262.786C467.166 263.435 462.359 263.695 457.552 263.695C456.123 263.695 454.694 263.695 453.265 263.824C451.836 263.954 450.797 264.084 449.368 264.084Z" fill="#231F20"/>
<path d="M531.732 148.458C531.732 148.458 587.335 249.42 567.329 256.168C559.144 258.893 486.133 263.176 486.133 263.176L478.338 231.641L533.032 223.206L531.732 148.458Z" fill="#65E3FF"/>
<path d="M465.607 101.481C465.217 101.481 464.827 101.481 464.438 101.481C457.422 100.832 452.096 94.6031 452.746 87.5954C453.395 80.5878 459.631 75.2672 466.646 75.916C473.662 76.5649 478.988 82.7939 478.338 89.8015C478.079 93.1756 476.39 96.2901 473.791 98.4962C471.583 100.443 468.725 101.481 465.607 101.481ZM465.607 77.3435C459.371 77.3435 454.305 82.4046 454.305 88.6336C454.305 94.8626 459.371 99.9237 465.607 99.9237C471.453 99.9237 476.39 95.5115 476.909 89.6718C477.429 83.4428 472.882 77.9924 466.646 77.4733C466.256 77.3435 465.997 77.3435 465.607 77.3435Z" fill="#231F20"/>
<path d="M490.68 101.611C490.29 101.611 489.901 101.611 489.511 101.611C482.496 100.832 477.299 94.4732 478.079 87.4656C478.858 80.5877 484.834 75.5267 491.719 76.0458C498.735 76.6946 504.061 82.9236 503.412 89.9313C502.892 96.5496 497.306 101.611 490.68 101.611ZM490.68 77.4732C484.444 77.4732 479.378 82.4045 479.248 88.6335C479.248 94.8625 484.184 99.9236 490.42 100.053C493.148 100.053 495.747 99.145 497.825 97.3282C500.164 95.3816 501.593 92.6564 501.853 89.6717C502.372 83.4427 497.825 77.9923 491.589 77.4732C491.33 77.4732 490.94 77.4732 490.68 77.4732Z" fill="#231F20"/>
<path d="M478.468 232.679C478.079 232.679 477.689 232.42 477.689 231.901C477.689 231.511 477.949 231.122 478.468 231.122L532.382 222.817L519.391 166.885C519.261 166.496 519.521 166.107 519.91 165.977C520.3 165.847 520.69 166.107 520.82 166.496L533.941 223.206C533.941 223.466 533.941 223.595 533.811 223.855C533.681 223.985 533.551 224.114 533.291 224.244L478.468 232.679Z" fill="#231F20"/>
<path d="M424.165 247.473C423.645 247.473 423.385 247.084 423.385 246.565C423.515 245.786 433.519 163.252 433.519 162.084L434.298 162.214L434.428 161.435C435.078 161.565 435.078 161.565 433.519 175.58L424.944 246.824C424.944 247.084 424.555 247.473 424.165 247.473Z" fill="#231F20"/>
<path d="M411.823 214.771C411.563 214.771 411.303 214.641 411.174 214.382L378.436 148.847C378.306 148.458 378.436 147.939 378.825 147.809C379.215 147.679 379.605 147.809 379.865 148.198L412.603 213.733C412.862 214.122 412.603 214.641 412.213 214.771C412.083 214.771 411.953 214.771 411.823 214.771Z" fill="#231F20"/>
<path d="M525.497 84.2213C525.107 84.2213 524.717 83.9618 524.587 83.5725C524.587 83.1832 524.847 82.7939 525.237 82.7939C525.237 82.7939 527.965 82.0152 533.032 77.0839C533.291 76.8244 533.811 76.8244 534.201 77.0839C534.461 77.3435 534.461 77.8626 534.201 78.1221C528.874 83.4427 525.886 84.2213 525.757 84.2213C525.757 84.2213 525.627 84.2213 525.497 84.2213Z" fill="#231F20"/>
<path d="M333.356 274.466L341.8 251.366L321.664 270.053C312.96 267.588 303.996 266.42 294.902 266.42C261.124 266.42 233.843 282.641 233.843 302.756C233.843 322.87 261.254 339.092 294.902 339.092C328.549 339.092 355.961 322.87 355.961 302.756C355.961 291.336 347.127 281.084 333.356 274.466Z" fill="white"/>
<path d="M294.902 339.87C260.735 339.87 232.933 323.26 232.933 302.756C232.933 282.252 260.735 265.641 294.902 265.641C303.866 265.641 312.83 266.809 321.404 269.145L341.151 250.847C341.54 250.588 342.06 250.588 342.32 250.847C342.58 251.107 342.58 251.366 342.45 251.756L334.265 274.076C348.556 281.214 356.74 291.595 356.74 302.756C356.87 323.13 329.069 339.87 294.902 339.87ZM294.902 267.199C261.644 267.199 234.622 283.031 234.622 302.626C234.622 322.221 261.644 338.053 294.902 338.053C328.159 338.053 355.181 322.221 355.181 302.626C355.181 291.985 347.127 281.992 332.966 275.244C332.576 275.115 332.317 274.595 332.576 274.206L339.722 254.481L322.183 270.702C321.924 270.962 321.664 270.962 321.404 270.832C312.7 268.366 303.866 267.199 294.902 267.199Z" fill="#D1D3D4"/>
<path d="M335.434 290.168H254.369C253.849 290.168 253.589 289.649 253.589 289.26C253.589 288.87 253.979 288.611 254.369 288.481H335.434C335.954 288.481 336.214 289 336.214 289.389C336.084 289.908 335.824 290.168 335.434 290.168Z" fill="#D1D3D4"/>
<path d="M335.434 304.053H254.369C253.849 304.053 253.46 303.664 253.46 303.145C253.46 302.626 253.849 302.237 254.369 302.237H335.434C335.954 302.237 336.344 302.626 336.344 303.145C336.344 303.664 335.824 304.053 335.434 304.053Z" fill="#D1D3D4"/>
<path d="M310.751 317.939H254.239C253.719 317.939 253.33 317.55 253.33 317.031C253.33 316.511 253.719 316.122 254.239 316.122H310.751C311.271 316.122 311.66 316.511 311.66 317.031C311.66 317.55 311.271 317.939 310.751 317.939Z" fill="#D1D3D4"/>
<path d="M255.668 56.5802L248.393 76.5649L265.671 60.4733C273.206 62.5497 280.871 63.5878 288.666 63.5878C317.766 63.5878 341.281 49.5725 341.281 32.313C341.281 15.0535 317.766 1.03821 288.666 1.03821C259.565 1.03821 236.051 15.0535 236.051 32.313C236.181 42.1756 243.846 50.8703 255.668 56.5802Z" fill="white"/>
<path d="M248.393 77.3435C248.263 77.3435 248.003 77.3435 247.873 77.2137C247.484 76.9542 247.354 76.5649 247.614 76.1756L254.629 57.0992C242.287 51 235.272 42.0458 235.272 32.4427C235.272 14.7939 259.306 0.259521 288.796 0.259521C318.286 0.259521 342.32 14.6641 342.32 32.4427C342.32 50.2214 318.286 64.4962 288.796 64.4962C281.131 64.4962 273.466 63.458 265.931 61.3817L248.913 77.0839C248.913 77.3435 248.653 77.3435 248.393 77.3435ZM288.796 1.94655C260.215 1.94655 236.961 15.5725 236.961 32.313C236.961 41.3969 243.976 49.9618 256.058 55.8015C256.448 56.0611 256.578 56.4504 256.448 56.8397L250.472 73.3206L265.152 59.6946C265.412 59.4351 265.671 59.4351 265.931 59.5649C273.336 61.6412 281.001 62.6794 288.796 62.6794C317.377 62.6794 340.631 49.0534 340.631 32.313C340.631 15.5725 317.377 1.94655 288.796 1.94655Z" fill="#D1D3D4"/>
<path d="M328.419 24.397H258.526C258.007 24.397 257.747 23.8779 257.747 23.4886C257.747 23.0993 258.136 22.8397 258.526 22.71H328.419C328.939 22.71 329.199 23.229 329.199 23.6184C329.069 24.0077 328.809 24.397 328.419 24.397Z" fill="#D1D3D4"/>
<path d="M306.984 39.71H258.526C258.007 39.71 257.747 39.1909 257.747 38.8016C257.747 38.4123 258.136 38.1527 258.526 38.0229H306.984C307.503 38.0229 307.763 38.542 307.763 38.9313C307.763 39.3207 307.373 39.5802 306.984 39.71Z" fill="#D1D3D4"/>
</g>
<defs>
<clipPath id="clip0_2_437">
<rect width="595" height="340" fill="white"/>
</clipPath>
</defs>
</svg>
