<svg width="703" height="123" viewBox="0 0 703 123" fill="none" xmlns="http://www.w3.org/2000/svg">
<path d="M61.4156 122.831C95.3343 122.831 122.831 95.3343 122.831 61.4156C122.831 27.4967 95.3343 0 61.4156 0C27.4967 0 0 27.4967 0 61.4156C0 71.2403 2.30689 80.5257 6.40847 88.7609C7.49848 90.9492 7.86126 93.4506 7.22936 95.812L3.57138 109.484C1.98342 115.418 7.41293 120.848 13.3478 119.26L27.0191 115.602C29.3808 114.97 31.8821 115.333 34.0705 116.423C42.3054 120.524 51.591 122.831 61.4156 122.831Z" fill="url(#paint0_linear_18_3)"/>
<path fill-rule="evenodd" clip-rule="evenodd" d="M35.3482 56.8646C33.64 55.1565 30.8705 55.1565 29.1623 56.8646C27.4541 58.5728 27.4541 61.3424 29.1623 63.0507L49.5746 83.4629C51.2828 85.1709 54.0523 85.1709 55.7606 83.4629L93.6691 45.5543C95.377 43.8461 95.377 41.0766 93.6691 39.3685C91.9608 37.6603 89.1912 37.6603 87.483 39.3685L52.6675 74.1841L35.3482 56.8646Z" fill="white"/>
<path d="M199.016 38.5172C198.162 37.8238 197.282 37.3438 196.376 37.0772C195.469 36.7572 194.349 36.5972 193.016 36.5972C190.242 36.5972 188.056 37.2372 186.456 38.5172C184.856 39.7972 184.056 41.5038 184.056 43.6372C184.056 46.3038 184.882 48.5972 186.536 50.5172C188.189 52.4372 191.069 54.6772 195.176 57.2372C198.909 59.6372 201.869 62.2238 204.056 64.9972C206.242 67.7705 207.336 70.9705 207.336 74.5972C207.389 77.9038 206.562 80.9438 204.856 83.7172C203.149 86.4372 200.562 88.6238 197.096 90.2772C193.682 91.9305 189.496 92.7572 184.536 92.7572C180.536 92.7572 176.696 92.3305 173.016 91.4772C169.389 90.6238 167.069 89.7705 166.056 88.9172L168.296 76.5972H176.296L176.696 85.3172C178.616 86.9705 181.122 87.7972 184.216 87.7972C187.896 87.7972 190.562 87.0772 192.216 85.6372C193.922 84.1438 194.776 82.1705 194.776 79.7172C194.776 77.3172 194.002 75.2105 192.456 73.3972C190.962 71.5305 188.349 69.4238 184.616 67.0772C180.669 64.5705 177.576 61.8772 175.336 58.9972C173.096 56.1172 171.976 52.7572 171.976 48.9172C171.976 43.4772 174.002 39.2638 178.056 36.2772C182.162 33.2372 187.469 31.7172 193.976 31.7172C201.069 31.7172 206.269 32.6772 209.576 34.5972L207.496 46.3572H200.136L199.016 38.5172Z" fill="#1D1D1D"/>
<path d="M231.292 50.7572C234.492 47.8772 238.145 46.4372 242.252 46.4372C246.732 46.4372 250.119 47.9038 252.412 50.8372C254.705 53.7705 255.852 57.9572 255.852 63.3972C255.852 68.7838 254.759 73.7172 252.572 78.1972C250.385 82.6772 247.292 86.2238 243.292 88.8372C239.292 91.3972 234.705 92.6772 229.532 92.6772C228.359 92.6772 227.025 92.5438 225.532 92.2772L222.732 112.197H210.572L218.412 54.1972L214.172 51.8772L214.812 48.5172L229.692 46.4372L231.692 47.3972L231.292 50.7572ZM226.332 86.6772C227.505 87.1038 228.919 87.3172 230.572 87.3172C234.625 87.3172 237.612 84.9972 239.532 80.3572C241.505 75.7172 242.492 70.0638 242.492 63.3972C242.492 60.4638 242.012 58.0372 241.052 56.1172C240.092 54.1972 238.679 53.2372 236.812 53.2372C234.519 53.2372 232.412 54.5438 230.492 57.1572L226.332 86.6772Z" fill="#1D1D1D"/>
<path d="M295.988 83.5572C294.548 85.8505 292.255 88.0105 289.108 90.0372C285.961 92.0105 282.175 92.9972 277.748 92.9972C273.801 92.9972 270.548 92.1705 267.988 90.5172C265.428 88.8105 263.561 86.5972 262.388 83.8772C261.215 81.1572 260.628 78.2238 260.628 75.0772C260.628 69.6372 261.721 64.7305 263.908 60.3572C266.148 55.9838 269.188 52.5705 273.028 50.1172C276.921 47.6105 281.215 46.3572 285.908 46.3572C290.281 46.3572 293.508 47.3172 295.588 49.2372C297.668 51.1572 298.708 53.6372 298.708 56.6772C298.708 60.5705 297.428 63.8238 294.868 66.4372C292.308 68.9972 289.161 70.8905 285.428 72.1172C281.748 73.3438 278.095 74.0105 274.468 74.1172C274.415 78.0638 275.028 81.0505 276.308 83.0772C277.641 85.1038 279.481 86.1172 281.828 86.1172C284.548 86.1172 286.815 85.5038 288.628 84.2772C290.495 83.0505 292.121 81.5038 293.508 79.6372L295.988 83.5572ZM283.108 51.7972C280.335 51.7972 278.255 53.5838 276.868 57.1572C275.535 60.7305 274.735 64.8105 274.468 69.3972C276.121 69.2905 277.881 68.7838 279.748 67.8772C281.615 66.9172 283.188 65.5572 284.468 63.7972C285.748 62.0372 286.388 59.9838 286.388 57.6372C286.388 53.7438 285.295 51.7972 283.108 51.7972Z" fill="#1D1D1D"/>
<path d="M339.696 83.0772C339.642 83.3438 339.616 83.6905 339.616 84.1172C339.616 85.3972 340.149 86.0372 341.216 86.0372C342.122 86.0372 343.296 85.4505 344.736 84.2772L345.856 86.9972C345.109 88.1705 343.776 89.4238 341.856 90.7572C339.936 92.0372 337.669 92.6772 335.056 92.6772C333.136 92.6772 331.589 92.2772 330.416 91.4772C329.242 90.6772 328.602 89.5305 328.496 88.0372V87.5572C325.189 90.9705 321.216 92.6772 316.576 92.6772C311.936 92.6772 308.469 91.1305 306.176 88.0372C303.882 84.9438 302.736 80.9972 302.736 76.1972C302.736 71.0238 303.749 66.1705 305.776 61.6372C307.856 57.0505 310.922 53.3705 314.976 50.5972C319.029 47.8238 323.882 46.4372 329.536 46.4372C330.922 46.4372 332.469 46.6238 334.176 46.9972C335.936 47.3172 337.456 47.6905 338.736 48.1172L344.736 46.4372L339.696 83.0772ZM331.376 52.1172C330.202 51.9038 329.296 51.7972 328.656 51.7972C325.669 51.7972 323.216 52.9972 321.296 55.3972C319.429 57.7972 318.096 60.8105 317.296 64.4372C316.496 68.0638 316.096 71.8238 316.096 75.7172C316.096 78.9172 316.602 81.4238 317.616 83.2372C318.682 85.0505 320.122 85.9572 321.936 85.9572C323.642 85.9572 325.349 85.1572 327.056 83.5572L331.376 52.1172Z" fill="#1D1D1D"/>
<path d="M371.439 28.5172L363.039 91.8772H350.319L357.919 33.9572L352.879 32.2772L353.599 29.0772L369.279 27.3972L371.439 28.5172ZM366.239 68.0372C368.853 66.6505 370.959 65.3438 372.559 64.1172C374.213 62.8372 376.079 60.8372 378.159 58.1172C379.546 56.2505 380.239 54.1172 380.239 51.7172C380.239 49.7972 380.879 48.4372 382.159 47.6372C383.439 46.8372 384.906 46.4372 386.559 46.4372C388.159 46.4372 389.386 46.9172 390.239 47.8772C391.146 48.8372 391.599 50.0372 391.599 51.4772C391.599 53.7172 390.853 55.7972 389.359 57.7172C386.959 60.8638 382.933 63.7705 377.279 66.4372L384.639 81.2372C385.279 82.4105 385.973 83.3172 386.719 83.9572C387.466 84.5438 388.159 84.8372 388.799 84.8372C389.333 84.8372 390.053 84.6772 390.959 84.3572C391.866 84.0372 392.666 83.6105 393.359 83.0772L394.639 85.7972C393.466 87.2905 391.679 88.8105 389.279 90.3572C386.879 91.8505 384.239 92.5972 381.359 92.5972C379.226 92.5972 377.546 92.1972 376.319 91.3972C375.146 90.5972 374.266 89.4505 373.679 87.9572L366.239 68.0372Z" fill="#1D1D1D"/>
<path d="M410.356 83.0772C410.302 83.3438 410.276 83.6905 410.276 84.1172C410.276 85.3972 410.756 86.0372 411.716 86.0372C412.142 86.0372 412.596 85.9038 413.076 85.6372C413.609 85.3705 414.356 84.9172 415.316 84.2772L416.356 86.9972C415.449 88.2238 414.036 89.4772 412.116 90.7572C410.249 92.0372 407.876 92.6772 404.996 92.6772C402.542 92.6772 400.622 92.2238 399.236 91.3172C397.902 90.3572 397.236 89.1305 397.236 87.6372C397.236 87.3172 397.262 87.0505 397.316 86.8372L399.396 71.0772L401.636 54.3572L397.156 51.9572L397.796 48.5172L413.236 46.4372L415.316 47.3972L410.356 83.0772ZM410.276 39.5572C408.676 39.5572 407.236 38.9172 405.956 37.6372C404.729 36.3572 404.116 34.9172 404.116 33.3172C404.116 31.1305 404.862 29.2905 406.356 27.7972C407.849 26.2505 409.822 25.4772 412.276 25.4772C414.142 25.4772 415.636 26.0905 416.756 27.3172C417.876 28.5438 418.436 29.9572 418.436 31.5572C418.436 33.9038 417.742 35.8238 416.356 37.3172C414.969 38.8105 412.942 39.5572 410.276 39.5572Z" fill="#1D1D1D"/>
<path d="M439.728 55.6372C441.541 52.8105 443.701 50.5705 446.208 48.9172C448.714 47.2638 451.461 46.4372 454.448 46.4372C461.381 46.4372 464.848 50.3838 464.848 58.2772C464.848 59.8238 464.208 64.4372 462.928 72.1172C462.821 72.9172 462.608 74.1705 462.288 75.8772C461.541 79.8238 461.168 82.4905 461.168 83.8772C461.168 85.3172 461.674 86.0372 462.688 86.0372C463.114 86.0372 463.568 85.9305 464.048 85.7172C464.581 85.4505 465.301 84.9705 466.208 84.2772L467.328 86.9972C466.421 88.2238 465.007 89.4772 463.087 90.7572C461.167 92.0372 458.714 92.6772 455.728 92.6772C452.634 92.6772 450.554 92.0638 449.488 90.8372C448.421 89.6105 447.888 88.0372 447.888 86.1172C447.888 84.6772 448.341 81.6905 449.247 77.1572L449.728 74.5972C450.901 67.9305 451.488 63.1038 451.488 60.1172C451.488 57.8238 451.248 56.2505 450.768 55.3972C450.288 54.5438 449.487 54.1172 448.367 54.1172C446.821 54.1172 445.141 55.0505 443.328 56.9172C441.514 58.7305 439.968 60.9972 438.688 63.7172L434.848 91.8772H422.448L427.488 54.1972L423.328 51.9572L423.967 48.5172L438.367 46.4372L440.367 47.3972L439.728 55.6372Z" fill="#1D1D1D"/>
<path d="M508.427 94.9172C507.627 101.104 504.934 105.504 500.347 108.117C495.814 110.784 490.48 112.117 484.347 112.117C482.587 112.117 480.614 111.904 478.427 111.477C476.24 111.104 474.747 110.731 473.947 110.357L475.947 102.037C476.32 102.357 477.094 102.81 478.267 103.397C479.494 104.037 480.88 104.597 482.427 105.077C484.027 105.61 485.52 105.877 486.907 105.877C489.734 105.877 491.787 105.317 493.067 104.197C494.4 103.077 495.254 100.864 495.627 97.5572L496.587 88.9172C493.494 91.4238 490 92.6772 486.107 92.6772C481.467 92.6772 478 91.1305 475.707 88.0372C473.414 84.9438 472.267 80.9972 472.267 76.1972C472.267 71.0238 473.28 66.1705 475.307 61.6372C477.387 57.0505 480.454 53.3705 484.507 50.5972C488.56 47.8238 493.414 46.4372 499.067 46.4372C500.614 46.4372 502.267 46.6238 504.027 46.9972C505.84 47.3705 507.387 47.7972 508.667 48.2772L514.987 46.4372L508.427 94.9172ZM501.787 52.3572C500.56 51.9838 499.36 51.7972 498.187 51.7972C495.2 51.7972 492.747 52.9972 490.827 55.3972C488.96 57.7972 487.627 60.8105 486.827 64.4372C486.027 68.0638 485.627 71.8238 485.627 75.7172C485.627 78.9172 486.134 81.4238 487.147 83.2372C488.214 85.0505 489.654 85.9572 491.467 85.9572C493.547 85.9572 495.494 84.9438 497.307 82.9172L501.787 52.3572Z" fill="#1D1D1D"/>
<path d="M555.311 32.4372C556.965 32.4372 559.285 32.3305 562.271 32.1172C564.938 31.9038 566.885 31.7972 568.111 31.7972C575.951 31.7972 581.525 33.2105 584.831 36.0372C588.191 38.8105 589.871 43.0238 589.871 48.6772C589.871 53.5305 588.725 57.6905 586.431 61.1572C584.191 64.6238 580.965 67.2638 576.751 69.0772C572.591 70.8905 567.685 71.7972 562.031 71.7972C560.005 71.7972 558.458 71.7172 557.391 71.5572L555.631 86.6772L566.271 87.7972L566.031 91.8772H536.031L536.431 87.7972L541.791 86.6772L548.351 37.6372L542.591 36.7572L543.151 32.4372H555.311ZM558.031 66.3572C558.938 66.5705 559.845 66.6772 560.751 66.6772C561.711 66.6772 562.271 66.6772 562.431 66.6772C566.591 66.6238 569.871 64.8905 572.271 61.4772C574.725 58.0638 575.978 53.5572 576.031 47.9572C576.031 44.1172 575.125 41.2905 573.311 39.4772C571.551 37.6638 569.071 36.7572 565.871 36.7572C564.538 36.7572 563.258 36.8638 562.031 37.0772L558.031 66.3572Z" fill="#1D1D1D"/>
<path d="M627.977 83.0772C627.924 83.3438 627.897 83.6905 627.897 84.1172C627.897 85.3972 628.43 86.0372 629.497 86.0372C630.404 86.0372 631.577 85.4505 633.017 84.2772L634.137 86.9972C633.39 88.1705 632.057 89.4238 630.137 90.7572C628.217 92.0372 625.95 92.6772 623.337 92.6772C621.417 92.6772 619.87 92.2772 618.697 91.4772C617.524 90.6772 616.884 89.5305 616.777 88.0372V87.5572C613.47 90.9705 609.497 92.6772 604.857 92.6772C600.217 92.6772 596.75 91.1305 594.457 88.0372C592.164 84.9438 591.017 80.9972 591.017 76.1972C591.017 71.0238 592.03 66.1705 594.057 61.6372C596.137 57.0505 599.204 53.3705 603.257 50.5972C607.31 47.8238 612.164 46.4372 617.817 46.4372C619.204 46.4372 620.75 46.6238 622.457 46.9972C624.217 47.3172 625.737 47.6905 627.017 48.1172L633.017 46.4372L627.977 83.0772ZM619.657 52.1172C618.484 51.9038 617.577 51.7972 616.937 51.7972C613.95 51.7972 611.497 52.9972 609.577 55.3972C607.71 57.7972 606.377 60.8105 605.577 64.4372C604.777 68.0638 604.377 71.8238 604.377 75.7172C604.377 78.9172 604.884 81.4238 605.897 83.2372C606.964 85.0505 608.404 85.9572 610.217 85.9572C611.924 85.9572 613.63 85.1572 615.337 83.5572L619.657 52.1172Z" fill="#1D1D1D"/>
<path d="M666.601 55.8772C665.801 54.9172 664.707 54.0372 663.321 53.2372C661.987 52.3838 660.414 51.9572 658.601 51.9572C656.841 51.9572 655.347 52.3838 654.121 53.2372C652.947 54.0372 652.334 55.1838 652.281 56.6772C652.281 58.1705 652.787 59.5305 653.801 60.7572C654.867 61.9305 656.681 63.4772 659.241 65.3972C661.907 67.3172 663.907 69.2105 665.241 71.0772C666.574 72.9438 667.241 75.3705 667.241 78.3572C667.241 81.4505 666.387 84.0905 664.681 86.2772C663.027 88.4105 660.787 90.0105 657.961 91.0772C655.134 92.1438 652.014 92.6772 648.601 92.6772C646.201 92.6772 643.721 92.3838 641.161 91.7972C638.601 91.2105 636.921 90.5972 636.121 89.9572L637.961 82.1972C639.134 83.3172 640.654 84.3572 642.521 85.3172C644.387 86.2772 646.334 86.7572 648.361 86.7572C650.014 86.7572 651.481 86.3305 652.761 85.4772C654.041 84.6238 654.681 83.3438 654.681 81.6372C654.681 80.1438 654.094 78.7572 652.921 77.4772C651.747 76.1972 649.934 74.7038 647.481 72.9972C645.241 71.4505 643.401 69.6372 641.961 67.5572C640.574 65.4772 639.881 62.9172 639.881 59.8772C639.881 57.2638 640.627 54.9438 642.121 52.9172C643.667 50.8905 645.801 49.3172 648.521 48.1972C651.294 47.0238 654.494 46.4372 658.121 46.4372C660.094 46.4372 662.094 46.5972 664.121 46.9172C666.147 47.2372 667.534 47.5572 668.281 47.8772L666.601 55.8772Z" fill="#1D1D1D"/>
<path d="M700.819 55.8772C700.019 54.9172 698.926 54.0372 697.539 53.2372C696.206 52.3838 694.633 51.9572 692.819 51.9572C691.059 51.9572 689.566 52.3838 688.339 53.2372C687.166 54.0372 686.553 55.1838 686.499 56.6772C686.499 58.1705 687.006 59.5305 688.019 60.7572C689.086 61.9305 690.899 63.4772 693.459 65.3972C696.126 67.3172 698.126 69.2105 699.459 71.0772C700.793 72.9438 701.459 75.3705 701.459 78.3572C701.459 81.4505 700.606 84.0905 698.899 86.2772C697.246 88.4105 695.006 90.0105 692.179 91.0772C689.353 92.1438 686.233 92.6772 682.819 92.6772C680.419 92.6772 677.939 92.3838 675.379 91.7972C672.819 91.2105 671.139 90.5972 670.339 89.9572L672.179 82.1972C673.353 83.3172 674.873 84.3572 676.739 85.3172C678.606 86.2772 680.553 86.7572 682.579 86.7572C684.233 86.7572 685.699 86.3305 686.979 85.4772C688.259 84.6238 688.899 83.3438 688.899 81.6372C688.899 80.1438 688.313 78.7572 687.139 77.4772C685.966 76.1972 684.153 74.7038 681.699 72.9972C679.459 71.4505 677.619 69.6372 676.179 67.5572C674.793 65.4772 674.099 62.9172 674.099 59.8772C674.099 57.2638 674.846 54.9438 676.339 52.9172C677.886 50.8905 680.019 49.3172 682.739 48.1972C685.513 47.0238 688.713 46.4372 692.339 46.4372C694.313 46.4372 696.313 46.5972 698.339 46.9172C700.366 47.2372 701.753 47.5572 702.499 47.8772L700.819 55.8772Z" fill="#1D1D1D"/>
<defs>
<linearGradient id="paint0_linear_18_3" x1="351.25" y1="42.3386" x2="351.25" y2="122.831" gradientUnits="userSpaceOnUse">
<stop stop-color="#65E3FF"/>
<stop offset="1" stop-color="#00BFFF"/>
</linearGradient>
</defs>
</svg>
