<svg width="250" height="250" viewBox="0 0 250 250" fill="none" xmlns="http://www.w3.org/2000/svg">
<path d="M0 52.0833C0 23.3185 23.3185 0 52.0833 0H197.917C226.681 0 250 23.3185 250 52.0833V197.917C250 226.681 226.681 250 197.917 250H52.0833C23.3185 250 0 226.681 0 197.917V52.0833Z" fill="#61ECD7"/>
<path d="M210.92 46.3542V64.2036C210.92 150.125 162.907 189.149 103.68 189.149L70.1019 189.148C68.6527 197.289 67.9328 206.169 67.9328 215.923H50.0594C50.0594 203.762 51.0935 192.716 53.1494 182.618C51.0894 171.069 50.0594 155.393 50.0594 135.601C50.0594 86.3114 90.0704 46.3542 139.426 46.3542C157.299 46.3542 175.173 55.2789 210.92 46.3542ZM139.426 64.2036C99.9416 64.2036 67.9328 96.1693 67.9328 135.601C67.9328 138.835 67.9614 141.947 68.0181 144.935C79.2282 127.287 95.6453 113.332 117.119 101.078L125.987 116.575C100.474 131.135 83.5496 147.681 74.8609 171.298L103.68 171.3C157.435 171.3 191.895 135.841 193.019 67.6633C180.757 68.8545 169.365 68.0947 155.31 65.9893C145.023 64.4483 143.008 64.2036 139.426 64.2036Z" fill="white"/>
</svg>
